<svg xmlns="http://www.w3.org/2000/svg" xmlns:xlink="http://www.w3.org/1999/xlink" width="168.909" height="96.911" viewBox="0 0 168.909 96.911">
  <defs>
    <linearGradient id="linear-gradient" y1="0.5" x2="1" y2="0.5" gradientUnits="objectBoundingBox">
      <stop offset="0" stop-color="#333"/>
      <stop offset="1" stop-color="#666"/>
    </linearGradient>
    <linearGradient id="linear-gradient-2" y1="0.5" x2="1" y2="0.5" gradientUnits="objectBoundingBox">
      <stop offset="0" stop-color="#07a5b6"/>
      <stop offset="1" stop-color="#9872e2"/>
    </linearGradient>
    <linearGradient id="linear-gradient-3" y1="0.5" x2="1" y2="0.5" gradientUnits="objectBoundingBox">
      <stop offset="0" stop-color="#fff"/>
      <stop offset="1"/>
    </linearGradient>
    <clipPath id="clip-path">
      <path id="Trazado_199336" data-name="Trazado 199336" d="M113.448,276.826c0,.016,0,.031,0,.047a2.451,2.451,0,0,1-.075.319c-.009.03-.021.058-.03.088-.026.078-.057.155-.09.232-.015.034-.03.066-.047.1-.03.062-.066.125-.1.186s-.064.11-.1.165-.08.114-.122.171-.08.108-.123.163c-.074.09-.151.181-.236.269l-.008.009c-.093.1-.194.192-.3.287l-.086.076c-.093.08-.189.159-.29.238l-.057.047c-.12.091-.246.182-.378.272l-.1.066q-.165.11-.342.217l-.1.06c-.142.084-.288.167-.44.249q-.32.174-.671.339l-.181.084c-.184.085-.373.167-.568.25l-.233.1q-.33.133-.679.261l-.129.048q-.415.149-.855.29c-.127.041-.258.08-.388.121l-.314.1c-.145.042-.294.084-.443.125-.1.029-.206.058-.311.086-.163.044-.331.085-.5.127-.1.024-.189.049-.287.072-.2.049-.41.1-.618.144l-.2.045c-.276.06-.557.119-.841.175l-.209.04c-.218.042-.437.083-.659.123l-.325.055c-.188.032-.376.064-.568.094-.122.02-.247.037-.371.056-.18.027-.359.054-.54.08s-.344.046-.516.068c-.154.02-.307.04-.463.059-.176.021-.355.04-.533.061l-.47.052-.556.053c-.156.014-.31.03-.468.043-.191.016-.385.03-.578.045-.156.012-.31.025-.467.034-.2.014-.408.025-.612.037-.15.008-.3.019-.45.026-.217.011-.436.019-.654.028l-.429.017c-.245.008-.493.013-.741.019l-.356.009q-.554.009-1.113.009-.611,0-1.213-.011l-.387-.01c-.272-.007-.543-.014-.812-.024l-.546-.022c-.149-.007-.3-.013-.445-.021-.2-.01-.393-.022-.589-.034l-.424-.027c-.2-.014-.4-.03-.6-.045l-.392-.03c-.219-.019-.435-.039-.652-.061l-.323-.03q-.463-.047-.916-.1l-.04,0q-.474-.057-.937-.121l-.286-.041c-.211-.03-.421-.06-.628-.093-.115-.017-.228-.037-.342-.056-.184-.03-.367-.059-.548-.091l-.361-.066c-.169-.03-.338-.062-.5-.094l-.364-.073-.476-.1-.36-.08-.454-.105-.351-.085c-.147-.037-.293-.074-.437-.112l-.338-.09-.42-.119-.323-.094c-.138-.041-.273-.084-.408-.126-.1-.032-.2-.064-.3-.1-.137-.045-.27-.091-.4-.137-.093-.032-.186-.064-.277-.1-.139-.05-.273-.1-.408-.153-.079-.03-.16-.06-.237-.09-.157-.062-.308-.126-.458-.19l-.153-.063c-.2-.086-.389-.174-.574-.263l-.129-.065c-.139-.068-.276-.137-.407-.207-.064-.034-.123-.069-.186-.1-.106-.058-.212-.117-.313-.176-.065-.039-.126-.078-.189-.117-.092-.057-.183-.113-.27-.172-.062-.041-.122-.084-.181-.126-.08-.057-.16-.112-.236-.17-.058-.044-.113-.088-.169-.132s-.14-.114-.208-.172c-.052-.045-.1-.091-.152-.137s-.123-.116-.181-.174-.09-.093-.134-.14-.106-.119-.155-.178-.078-.094-.114-.142-.089-.122-.131-.183-.064-.094-.093-.142c-.039-.064-.072-.128-.105-.192-.024-.046-.05-.093-.071-.14-.031-.066-.055-.135-.08-.2-.016-.044-.034-.089-.048-.133-.022-.076-.038-.151-.053-.227-.007-.038-.019-.076-.025-.113a2.306,2.306,0,0,1-.027-.345V352.23a2.306,2.306,0,0,0,.027.345c.006.038.017.076.025.113.015.076.03.152.053.227.014.044.033.089.048.133.025.068.048.135.08.2.021.047.047.094.071.14.033.064.066.128.105.191.029.048.061.1.093.142s.084.123.131.184.075.094.114.141.1.119.155.178.088.094.134.14.119.117.181.174.1.091.152.136c.067.058.137.115.209.172.055.044.11.088.168.131.076.057.156.114.236.17.06.043.119.085.181.126.087.057.177.114.268.171.064.039.125.079.19.118.1.059.206.117.312.176.062.034.122.07.186.1.131.07.268.138.407.206.044.022.085.044.129.066q.277.133.574.263l.154.064c.149.064.3.127.456.189.079.031.16.061.241.091.134.052.267.1.406.153.09.033.184.064.277.1.132.047.265.093.4.138.1.033.2.064.3.1.135.043.271.085.41.127.106.032.213.063.321.094.14.04.279.08.422.119.112.031.226.061.339.091.144.037.288.075.434.111l.352.086.453.1.362.08c.156.034.314.066.474.1.122.025.242.05.365.074l.5.094.365.066c.177.031.359.061.539.09.117.019.232.039.351.057.205.032.414.062.622.092l.29.042q.463.064.937.12l.042,0c.3.036.606.069.913.1l.337.031c.212.021.424.041.639.059.133.011.267.021.4.031.2.016.4.031.6.045l.431.027.58.034.452.021c.122,0,.243.012.365.016l.174.006c.272.01.545.017.819.024l.38.01c.4.007.806.011,1.214.011q.559,0,1.113-.009l.356-.009c.247-.006.5-.011.741-.019.144,0,.285-.012.429-.018.218-.008.438-.016.654-.027l.45-.026c.2-.012.41-.023.612-.037.157-.011.311-.023.467-.035.193-.014.387-.028.578-.044.156-.013.31-.029.465-.043.187-.017.375-.034.56-.053.156-.016.31-.034.464-.051.18-.02.36-.039.538-.061.155-.019.307-.039.461-.059.174-.023.348-.045.52-.069l.1-.012.434-.066.379-.057c.188-.03.373-.061.557-.093l.336-.057c.22-.039.437-.081.653-.122l.214-.04q.427-.085.841-.176l.2-.046c.206-.047.411-.093.612-.142.1-.024.195-.049.292-.074.166-.041.332-.083.493-.126l.314-.087c.148-.041.3-.082.44-.124l.318-.1c.1-.031.209-.062.31-.094l.075-.025c.293-.094.58-.19.856-.29l.126-.048q.351-.128.682-.263l.232-.1q.294-.123.57-.251c.06-.027.122-.054.18-.082q.351-.166.672-.339l.031-.016c.14-.076.275-.154.407-.232l.1-.061q.176-.107.34-.216l.1-.067c.131-.089.258-.18.377-.271l.059-.048c.1-.078.2-.158.288-.238.03-.026.058-.05.087-.076.105-.094.205-.19.3-.286l.009-.01c.068-.071.133-.144.194-.216.015-.017.026-.035.041-.053.044-.053.083-.108.123-.162s.084-.114.122-.171.067-.11.1-.165c.022-.039.048-.076.069-.115s.021-.048.033-.071.032-.067.047-.1c.034-.077.064-.154.09-.232.01-.03.021-.059.03-.088a2.453,2.453,0,0,0,.075-.319c0-.016,0-.031,0-.047.01-.071.019-.143.022-.215q0-.052,0-.1h0V276.507A2.438,2.438,0,0,1,113.448,276.826Z" transform="translate(-70.783 -276.507)" fill="none"/>
    </clipPath>
    <linearGradient id="linear-gradient-5" x1="0.5" x2="0.5" y2="1" gradientUnits="objectBoundingBox">
      <stop offset="0" stop-color="#f40b74"/>
      <stop offset="1" stop-color="#7a063a"/>
    </linearGradient>
    <clipPath id="clip-path-2">
      <path id="Trazado_199344" data-name="Trazado 199344" d="M179.333,285.491c0,.014,0,.028,0,.042a2.042,2.042,0,0,1-.066.282c-.007.026-.018.053-.026.079-.024.069-.05.138-.081.206-.013.03-.026.059-.041.089-.027.056-.059.111-.09.166s-.057.1-.089.147-.071.1-.108.152-.071.1-.109.145-.064.073-.1.109c-.082.094-.171.187-.267.279-.033.031-.064.063-.1.094-.128.117-.265.232-.414.346-.022.017-.048.034-.07.05-.131.1-.271.195-.418.29l-.151.1c-.145.09-.3.18-.454.267-.037.021-.071.041-.108.061-.19.1-.39.2-.6.3l-.162.074q-.246.113-.506.222l-.207.085q-.3.121-.608.235l-.11.041q-.369.133-.762.259c-.113.036-.23.071-.346.107l-.277.085c-.13.038-.263.075-.395.111-.093.026-.184.053-.277.077-.142.038-.287.074-.432.111l-.268.067c-.176.043-.356.084-.537.124-.062.015-.123.03-.186.043q-.368.081-.749.157l-.186.034q-.291.057-.587.11c-.094.017-.191.032-.287.048-.168.029-.337.057-.507.085l-.332.05c-.159.024-.319.048-.48.071s-.305.041-.459.061c-.137.017-.273.036-.411.053l-.48.054c-.137.016-.273.031-.41.045-.163.017-.33.032-.5.048l-.416.039-.512.039-.417.031c-.178.012-.359.021-.539.032l-.406.024c-.191.01-.385.016-.577.025-.129,0-.256.012-.385.016-.215.007-.433.012-.649.016-.109,0-.218.007-.327.008q-.491.009-.989.008-.543,0-1.078-.011c-.115,0-.229-.006-.343-.008-.242-.006-.484-.012-.722-.021l-.487-.02-.394-.019c-.177-.009-.351-.02-.525-.03l-.376-.024c-.18-.012-.359-.026-.537-.04l-.348-.027c-.195-.016-.387-.035-.579-.053l-.29-.028q-.4-.041-.8-.088l-.051-.006q-.421-.05-.832-.107l-.259-.038c-.185-.026-.37-.053-.553-.081l-.312-.051-.48-.08c-.108-.019-.215-.039-.322-.059-.15-.027-.3-.055-.449-.084l-.323-.065c-.143-.03-.285-.058-.424-.089q-.161-.035-.32-.071l-.4-.093-.313-.076-.388-.1-.3-.08c-.126-.034-.25-.07-.374-.106-.1-.027-.193-.055-.287-.084-.123-.037-.243-.075-.363-.112-.09-.029-.181-.057-.27-.086-.122-.04-.24-.081-.359-.122l-.245-.085c-.124-.045-.243-.09-.363-.136l-.212-.08c-.139-.056-.273-.112-.407-.169-.044-.019-.091-.037-.135-.057-.176-.076-.346-.154-.511-.234-.039-.018-.076-.038-.113-.057-.124-.061-.246-.122-.364-.185-.057-.03-.11-.061-.165-.092-.094-.052-.188-.1-.277-.157-.059-.035-.113-.071-.17-.105-.081-.05-.162-.1-.238-.152-.057-.037-.109-.075-.163-.112-.071-.05-.141-.1-.209-.151-.052-.039-.1-.078-.15-.117s-.126-.1-.186-.153-.091-.08-.135-.121-.11-.1-.162-.155-.08-.082-.119-.124-.094-.105-.138-.158-.07-.084-.1-.126-.079-.108-.116-.163-.057-.085-.083-.126-.064-.113-.093-.17c-.022-.041-.045-.083-.064-.125-.027-.059-.048-.12-.07-.18-.015-.039-.031-.079-.044-.119-.02-.066-.034-.134-.047-.2-.007-.034-.016-.067-.022-.1a2.118,2.118,0,0,1-.024-.306h0V327.4a2.138,2.138,0,0,0,.024.307c.006.034.016.067.022.1.013.067.027.135.047.2.012.039.029.079.044.118.021.061.043.121.07.18.019.042.042.084.064.126s.058.113.093.169.054.085.083.126.075.109.116.163.066.084.1.126.09.106.139.159.078.083.119.124.106.1.162.155.089.081.135.121.122.1.186.153.1.078.15.117c.067.051.138.1.209.151.053.038.106.075.162.112.077.051.158.1.239.152.057.034.112.07.17.1.089.053.184.105.277.158.055.03.108.062.165.092.117.062.24.123.364.184.038.019.074.039.113.057.164.079.335.157.511.234.044.019.091.037.135.057.134.057.268.113.407.168l.212.08c.12.046.239.092.363.136l.244.085c.119.041.238.083.361.123l.266.085.365.113.287.084.374.106.3.08.388.1q.155.039.313.076.2.048.4.094l.32.071c.14.03.282.06.424.089l.323.066c.149.029.3.056.449.084l.322.058c.158.028.319.054.48.08l.312.051c.182.028.368.054.553.081l.259.037c.274.038.552.074.832.107l.051.006q.4.047.8.089l.29.027c.192.019.384.037.579.053l.348.027c.178.014.357.029.537.041l.376.023c.175.011.349.021.525.03.131.007.263.013.394.019.11,0,.219.011.33.016l.157,0c.239.008.48.015.722.021l.343.009q.536.01,1.078.011.5,0,.989-.009l.327-.007c.217,0,.434-.01.649-.017.129,0,.256-.011.385-.016.192-.007.386-.015.577-.025.136-.007.27-.016.406-.024.181-.01.361-.02.539-.032.139-.009.275-.021.413-.03.173-.013.346-.025.517-.04.138-.011.273-.025.41-.038.167-.016.336-.03.5-.048.137-.014.272-.03.407-.045.163-.018.325-.035.485-.055l.4-.052c.156-.02.313-.039.467-.062l.085-.011.387-.058c.113-.017.227-.034.339-.052.167-.026.332-.054.5-.082.1-.017.2-.033.3-.051.2-.034.389-.071.581-.108l.19-.036c.254-.05.5-.1.749-.156l.186-.043c.181-.041.361-.082.537-.125.091-.021.178-.045.268-.067.145-.036.29-.072.432-.11l.277-.077c.132-.037.265-.074.395-.112.094-.027.185-.056.277-.084s.187-.056.277-.085l.068-.023q.392-.126.762-.258l.11-.042q.313-.115.608-.234l.207-.086c.173-.072.342-.147.506-.222.053-.025.109-.049.162-.075.207-.1.406-.2.6-.3l.028-.014c.028-.016.052-.032.08-.047.158-.088.31-.177.454-.267l.151-.1c.147-.1.287-.192.419-.291l.069-.049c.149-.114.286-.23.414-.347.034-.031.065-.062.1-.094q.144-.138.267-.278c.019-.021.042-.041.06-.062s.023-.032.036-.048c.039-.048.074-.1.109-.144s.075-.1.108-.153.06-.1.089-.146.044-.068.062-.1.019-.043.029-.063.028-.059.041-.089c.031-.069.057-.138.081-.207.008-.026.019-.052.026-.079a2.016,2.016,0,0,0,.066-.282c0-.014,0-.028,0-.042a1.846,1.846,0,0,0,.02-.19c0-.031,0-.062,0-.093V285.208A2.037,2.037,0,0,1,179.333,285.491Z" transform="translate(-141.385 -285.208)" fill="none"/>
    </clipPath>
    <linearGradient id="linear-gradient-8" y1="0.5" x2="1" y2="0.5" gradientUnits="objectBoundingBox">
      <stop offset="0" stop-color="#196d8a"/>
      <stop offset="1" stop-color="#2ab8e9"/>
    </linearGradient>
    <linearGradient id="linear-gradient-9" y1="0.5" x2="1" y2="0.5" gradientUnits="objectBoundingBox">
      <stop offset="0" stop-color="#2ec9ff"/>
      <stop offset="1" stop-color="#66dfff"/>
    </linearGradient>
    <clipPath id="clip-path-3">
      <path id="Trazado_199367" data-name="Trazado 199367" d="M224.436,294.792a1.168,1.168,0,0,1-.035.218c0,.015-.006.03-.011.044a1.441,1.441,0,0,1-.1.243c-.014.027-.03.055-.046.082s-.033.058-.052.087-.042.06-.064.089-.042.057-.065.085-.037.043-.057.065c-.048.055-.1.109-.157.163-.019.019-.038.038-.058.057-.076.069-.156.137-.244.2l-.041.029c-.077.058-.16.115-.246.172l-.09.057c-.085.053-.174.105-.267.157l-.065.036c-.112.061-.23.12-.352.178l-.094.044c-.1.044-.2.089-.3.131l-.122.051c-.115.047-.234.093-.356.137l-.068.025c-.144.053-.3.1-.45.153l-.093.029c-.22.069-.447.135-.682.2l-.065.016c-.248.065-.5.127-.766.185l-.015,0q-.4.087-.82.163l-.053.01c-.273.048-.555.093-.841.135l-.094.014q-.474.066-.97.118l-.076.008q-.507.053-1.035.089l-.055,0q-.542.037-1.1.056l-.033,0c-.383.012-.772.02-1.166.02-.443,0-.878-.01-1.307-.025l-.245-.011-.233-.011-.306-.018-.227-.014-.311-.024c-.07,0-.14-.01-.21-.016-.112-.009-.223-.02-.335-.03l-.178-.017c-.159-.016-.318-.034-.474-.052l-.027,0q-.248-.03-.49-.063l-.159-.023-.321-.047-.183-.03c-.1-.016-.19-.03-.283-.047l-.193-.035c-.088-.016-.176-.032-.262-.049l-.192-.039-.25-.052-.189-.042-.237-.055-.186-.045-.227-.058-.18-.048-.219-.062-.17-.049-.213-.066-.161-.051-.21-.072-.145-.051c-.074-.026-.144-.053-.215-.08l-.124-.047-.237-.1-.084-.035c-.1-.045-.2-.091-.3-.137l-.067-.034c-.073-.036-.145-.072-.214-.109l-.1-.053c-.057-.031-.112-.062-.166-.094l-.1-.062c-.048-.03-.1-.06-.142-.09s-.064-.044-.1-.066-.084-.059-.123-.089-.061-.046-.089-.07-.074-.059-.108-.09l-.08-.071c-.033-.03-.065-.061-.1-.092s-.048-.048-.07-.073-.056-.062-.082-.094-.041-.049-.06-.075-.046-.063-.067-.1-.034-.05-.049-.076-.038-.066-.055-.1-.026-.049-.038-.074-.029-.071-.041-.107-.018-.046-.025-.07c-.011-.039-.02-.079-.028-.119,0-.02-.01-.039-.013-.06a1.208,1.208,0,0,1-.014-.181h0v12.116a1.208,1.208,0,0,0,.014.181c0,.02.009.039.013.059.008.04.016.081.028.12.007.023.016.046.025.07s.025.071.041.107.025.048.038.073.034.067.055.1.032.05.048.075.044.064.068.1l.06.075c.026.031.053.062.082.094s.046.048.07.073.062.062.1.092l.08.071c.034.03.071.06.108.089l.089.07.124.09c.032.022.062.044.1.066s.094.06.142.09c.033.021.065.041.1.061.053.032.109.062.165.094l.1.054c.069.037.141.073.214.108l.067.034c.1.047.2.093.3.138l.08.034c.079.034.158.066.24.1l.128.048.212.08.144.05c.07.025.14.049.213.073l.158.05c.071.023.142.045.215.066l.17.05.221.062.177.047.231.059.181.044.241.056.187.042.25.052.192.039c.087.017.176.034.264.049l.189.034.287.048.181.03c.108.017.218.033.329.048l.149.022c.163.022.326.044.492.063l.025,0c.158.019.316.036.477.053l.166.016.347.032.2.016.319.025.221.014.313.018.227.011.2.009h.052q.643.025,1.306.025c.393,0,.782-.007,1.165-.02h.036c.371-.013.737-.032,1.1-.056l.058,0c.351-.024.7-.054,1.034-.089l.076-.008c.33-.035.654-.075.97-.119l.031,0,.062-.01c.287-.042.568-.086.841-.135l.053-.01q.421-.076.82-.163l.015,0c.264-.058.519-.12.767-.185l.063-.016c.236-.063.463-.129.682-.2l.055-.016.039-.013c.154-.049.3-.1.449-.152l.07-.026c.121-.044.24-.09.355-.136l.123-.051c.1-.044.2-.087.3-.131l.094-.044c.122-.058.241-.117.352-.178l.017-.008c.017-.009.031-.019.048-.028.093-.052.181-.1.267-.157l.09-.057c.086-.057.169-.114.247-.172l.04-.029c.088-.066.168-.135.244-.2.021-.018.039-.037.058-.056.057-.054.108-.109.158-.164.011-.012.025-.025.034-.037s.014-.018.021-.028c.023-.028.044-.056.065-.085s.044-.06.064-.09.035-.057.052-.086.026-.04.037-.061,0-.015.009-.022a1.434,1.434,0,0,0,.1-.242c0-.015.007-.03.011-.044a1.167,1.167,0,0,0,.035-.218c0-.012.006-.023.006-.035s0-.036,0-.054V294.7C224.443,294.733,224.438,294.763,224.436,294.792Z" transform="translate(-202.034 -294.703)" fill="none"/>
    </clipPath>
  </defs>
  <g id="Grupo_148259" data-name="Grupo 148259" transform="translate(-65.512 -312.046)">
    <g id="Grupo_148205" data-name="Grupo 148205">
      <g id="Grupo_148204" data-name="Grupo 148204">
        <path id="Trazado_199317" data-name="Trazado 199317" d="M65.512,387.255" fill="none" stroke="#db9cff" stroke-miterlimit="10" stroke-width="1.378"/>
      </g>
    </g>
    <g id="Grupo_148258" data-name="Grupo 148258">
      <g id="Grupo_148257" data-name="Grupo 148257" transform="translate(31.477 44)">
        <g id="Grupo_148226" data-name="Grupo 148226" transform="translate(65.512 268.046)">
          <path id="Trazado_199329" data-name="Trazado 199329" d="M113.744,368.282c-4.258-3.009-12.812-5.065-22.679-5.065s-18.422,2.057-22.679,5.065H65.512v4.324c0,5.186,11.44,9.389,25.553,9.389s25.553-4.2,25.553-9.389v-4.324Z" transform="translate(-65.512 -285.085)" fill="url(#linear-gradient)"/>
          <ellipse id="Elipse_6155" data-name="Elipse 6155" cx="25.553" cy="9.389" rx="25.553" ry="9.389" transform="translate(0 73.808)" fill="#1a1a1a"/>
          <g id="Grupo_148221" data-name="Grupo 148221" transform="translate(3.762)">
            <path id="Trazado_199330" data-name="Trazado 199330" d="M112.758,276.826c0,.016,0,.031,0,.047a2.448,2.448,0,0,1-.075.319c-.009.03-.02.058-.03.088-.027.078-.057.155-.091.232-.015.034-.03.066-.046.1-.031.062-.066.125-.1.186s-.063.11-.1.165-.08.114-.122.171-.08.108-.123.163c-.074.09-.15.181-.236.269l-.008.009c-.092.1-.193.192-.3.287l-.086.076q-.138.119-.289.238l-.058.047c-.12.091-.246.182-.378.272l-.1.066c-.11.073-.223.145-.342.217l-.1.06q-.212.126-.44.249-.32.174-.671.339l-.181.084q-.276.127-.567.25l-.234.1q-.33.133-.679.261l-.129.048c-.276.1-.562.2-.855.29-.127.041-.258.08-.388.121-.1.031-.207.064-.314.1l-.443.125c-.1.029-.207.058-.312.086-.163.044-.331.085-.5.127-.1.024-.19.049-.287.072-.2.049-.41.1-.619.144l-.2.045c-.276.06-.557.119-.841.175l-.209.04c-.218.042-.436.083-.658.123l-.325.055c-.189.032-.377.064-.569.094-.122.02-.247.037-.371.056-.179.027-.358.054-.54.08s-.343.046-.516.068c-.154.02-.307.04-.463.059-.176.021-.355.04-.533.061l-.47.052-.555.053c-.156.014-.311.03-.469.043-.191.016-.385.03-.578.045-.156.012-.31.025-.467.034-.2.014-.408.025-.612.037-.15.008-.3.019-.45.026-.217.011-.436.019-.654.028l-.429.017c-.245.008-.493.013-.741.019l-.356.009q-.553.009-1.113.009-.611,0-1.213-.011l-.387-.01c-.272-.007-.543-.014-.812-.024l-.546-.022c-.149-.007-.3-.013-.445-.021-.2-.01-.392-.022-.588-.034l-.424-.027c-.2-.014-.4-.03-.6-.045l-.392-.03c-.22-.019-.436-.039-.653-.061l-.323-.03q-.463-.047-.916-.1l-.04,0q-.474-.057-.937-.121l-.286-.041c-.21-.03-.421-.06-.628-.093-.115-.017-.228-.037-.342-.056-.183-.03-.367-.059-.548-.091l-.36-.066q-.255-.046-.5-.094l-.364-.073-.476-.1-.36-.08-.454-.105-.351-.085c-.147-.037-.293-.074-.437-.112l-.338-.09-.42-.119-.323-.094c-.138-.041-.273-.084-.408-.126-.1-.032-.2-.064-.3-.1-.137-.045-.269-.091-.4-.137-.093-.032-.186-.064-.277-.1-.139-.05-.273-.1-.408-.153-.079-.03-.16-.06-.237-.09-.157-.062-.308-.126-.458-.19l-.153-.063q-.3-.129-.574-.263l-.129-.065c-.139-.068-.276-.137-.407-.207-.064-.034-.123-.069-.186-.1-.106-.058-.212-.117-.313-.176-.065-.039-.126-.078-.189-.117-.091-.057-.183-.113-.27-.172-.062-.041-.121-.084-.181-.126-.08-.057-.16-.112-.236-.17-.057-.044-.113-.088-.168-.132-.071-.057-.141-.114-.208-.172s-.1-.091-.153-.137-.123-.116-.181-.174-.091-.093-.135-.14-.106-.119-.155-.178-.078-.094-.114-.142-.089-.122-.131-.183-.064-.094-.093-.142c-.039-.064-.072-.128-.105-.192-.024-.046-.049-.093-.071-.14-.03-.066-.055-.135-.08-.2-.016-.044-.034-.089-.048-.133-.023-.076-.038-.151-.053-.227-.007-.038-.019-.076-.025-.113a2.306,2.306,0,0,1-.026-.345V352.23a2.306,2.306,0,0,0,.026.345c.006.038.017.076.025.113.016.076.03.152.053.227.013.044.032.089.048.133.025.068.049.135.08.2.021.047.047.094.071.14.033.064.067.128.105.191.029.048.061.1.093.142s.084.123.131.184.075.094.114.141.1.119.155.178.088.094.134.14.119.117.181.174.1.091.152.136c.067.058.137.115.209.172.055.044.11.088.168.131.076.057.156.114.236.17.06.043.119.085.181.126.087.057.178.114.269.171.063.039.125.079.19.118.1.059.206.117.312.176.062.034.122.07.186.1.131.07.268.138.407.206.044.022.085.044.129.066q.278.133.574.263l.155.064c.149.064.3.127.455.189.079.031.161.061.241.091.134.052.268.1.406.153.09.033.184.064.277.1.133.047.265.093.4.138.1.033.2.064.3.1.135.043.271.085.41.127.106.032.213.063.321.094.14.04.28.08.422.119.112.031.226.061.34.091.143.037.287.075.433.111l.352.086.453.1.362.08c.156.034.314.066.474.1.121.025.242.05.365.074l.5.094.365.066c.178.031.359.061.54.09.117.019.232.039.35.057.205.032.414.062.622.092l.29.042q.463.064.937.12l.042,0c.3.036.606.069.913.1l.337.031c.212.021.424.041.64.059.132.011.267.021.4.031.2.016.4.031.6.045l.431.027.581.034.451.021c.122,0,.243.012.365.016l.175.006c.271.01.544.017.819.024l.381.01c.4.007.805.011,1.213.011q.56,0,1.113-.009l.356-.009c.248-.006.5-.011.741-.019.144,0,.286-.012.429-.018.218-.008.438-.016.654-.027l.45-.026c.2-.012.41-.023.612-.037.157-.011.311-.023.467-.035.193-.014.387-.028.578-.044.157-.013.31-.029.465-.043.187-.017.375-.034.561-.053.156-.016.309-.034.463-.051.18-.02.36-.039.538-.061.155-.019.308-.039.461-.059.174-.023.349-.045.52-.069l.1-.012.434-.066.379-.057c.188-.03.373-.061.557-.093l.336-.057c.221-.039.437-.081.653-.122l.214-.04q.427-.085.841-.176l.2-.046c.206-.047.412-.093.612-.142.1-.024.195-.049.292-.074.166-.041.332-.083.493-.126l.314-.087c.147-.041.3-.082.439-.124l.318-.1c.1-.031.209-.062.31-.094l.075-.025c.294-.094.58-.19.857-.29l.126-.048q.351-.128.682-.263l.232-.1q.293-.123.57-.251l.18-.082q.35-.166.672-.339l.031-.016q.211-.115.407-.232l.1-.061q.176-.107.34-.216l.1-.067c.131-.089.257-.18.377-.271l.058-.048c.1-.078.2-.158.289-.238.029-.026.058-.05.086-.076.105-.094.205-.19.3-.286l.009-.01c.068-.071.133-.144.194-.216.015-.017.026-.035.041-.053.044-.053.084-.108.123-.162s.084-.114.122-.171.067-.11.1-.165c.022-.039.048-.076.069-.115s.021-.048.034-.071.031-.067.046-.1c.034-.077.064-.154.09-.232.011-.03.021-.059.03-.088a2.451,2.451,0,0,0,.075-.319c0-.016,0-.031,0-.047.01-.071.019-.143.022-.215q0-.052,0-.1h0V276.507A2.3,2.3,0,0,1,112.758,276.826Z" transform="translate(-70.094 -269.561)" fill="url(#linear-gradient-2)"/>
            <g id="Grupo_148220" data-name="Grupo 148220">
              <path id="Trazado_199331" data-name="Trazado 199331" d="M91.44,281.938c-11.79,0-21.346-3.109-21.346-6.946s9.556-6.946,21.346-6.946,21.343,3.109,21.343,6.946S103.227,281.938,91.44,281.938Z" transform="translate(-70.094 -268.046)" fill="#206897"/>
            </g>
          </g>
          <g id="Grupo_148223" data-name="Grupo 148223" transform="translate(10.592 34.73)">
            <g id="Grupo_148222" data-name="Grupo 148222" style="mix-blend-mode: overlay;isolation: isolate">
              <path id="Trazado_199332" data-name="Trazado 199332" d="M78.441,317.456a2.905,2.905,0,0,1,2.476-2.295l-.01-.047a2.389,2.389,0,0,1-1.314-2.419c.236-1.539,1.713-2.374,3.445-2.171,1.914.224,2.776,1.477,2.675,2.7a2.441,2.441,0,0,1-1.907,2.13l0,.045a2.83,2.83,0,0,1,1.907,2.721c-.134,1.7-1.878,2.726-3.986,2.477C79.411,320.32,78.216,318.874,78.441,317.456Zm5.783.669c.112-1.189-.732-1.838-2.107-2.384a2.28,2.28,0,0,0-2.169,1.758,1.932,1.932,0,0,0,1.922,2.139C83.2,319.795,84.129,319.133,84.224,318.125ZM80.9,312.8c-.135.973.566,1.609,1.729,2.047a1.935,1.935,0,0,0,1.755-1.6,1.568,1.568,0,0,0-1.534-1.777A1.609,1.609,0,0,0,80.9,312.8Z" transform="translate(-78.414 -310.376)" fill="#fff"/>
              <path id="Trazado_199333" data-name="Trazado 199333" d="M95.3,312.53c-1.537.009-2.306,0-3.842-.062-.194,1-.292,1.5-.5,2.506a6.278,6.278,0,0,1,.846-.028,4.951,4.951,0,0,1,2.226.576,2.855,2.855,0,0,1,1.512,2.523c.016,1.919-1.7,3.383-4.106,3.3a5.636,5.636,0,0,1-2.727-.741c.176-.394.262-.592.434-.987a5.079,5.079,0,0,0,2.313.654,2.283,2.283,0,0,0,2.618-2.075c0-1.261-.9-2.163-3-2.249a13.332,13.332,0,0,0-1.456.034c.379-1.868.562-2.8.911-4.672,1.9.094,2.853.115,4.755.1Z" transform="translate(-80.258 -310.522)" fill="#fff"/>
              <path id="Trazado_199334" data-name="Trazado 199334" d="M103.719,313.718c.167,2.063-.924,3.185-2.295,3.258-1.323.07-2.5-.892-2.56-2.863s1-3.092,2.316-3.162C102.568,310.876,103.567,311.85,103.719,313.718Zm-3.749.315c.032,1.238.554,2.19,1.445,2.142.938-.05,1.295-1.018,1.206-2.314-.082-1.191-.5-2.158-1.442-2.107C100.331,311.8,99.938,312.809,99.97,314.033Zm1.571,7.068a84.066,84.066,0,0,0,5.285-10.644c.341-.041.511-.062.851-.107a84.126,84.126,0,0,1-5.181,10.7C102.114,321.069,101.923,321.081,101.541,321.1ZM111,316.937c.323,2.044-.734,3.255-2.142,3.438-1.374.178-2.675-.686-2.882-2.632s.819-3.179,2.185-3.357C109.6,314.2,110.7,315.086,111,316.937Zm-3.895.623c.135,1.239.775,2.135,1.683,2.016.976-.127,1.277-1.122,1.09-2.408-.172-1.181-.684-2.11-1.662-1.983C107.332,315.3,106.971,316.336,107.1,317.561Z" transform="translate(-82.075 -310.35)" fill="#fff"/>
            </g>
          </g>
          <path id="Trazado_199335" data-name="Trazado 199335" d="M92.13,283.035c-11.6,0-21.024-3.008-21.332-6.758,0,.063-.015.126-.015.189,0,3.837,9.557,6.946,21.347,6.946s21.343-3.109,21.343-6.946c0-.063-.01-.126-.015-.189C113.15,280.027,103.722,283.035,92.13,283.035Z" transform="translate(-66.456 -269.52)" fill="url(#linear-gradient-3)" style="mix-blend-mode: soft-light;isolation: isolate"/>
          <g id="Grupo_148225" data-name="Grupo 148225" transform="translate(4.327 6.946)">
            <g id="Grupo_148224" data-name="Grupo 148224" clip-path="url(#clip-path)">
              <line id="Línea_1110" data-name="Línea 1110" x2="0.377" y2="83.791" transform="translate(36.849 -6.946)" fill="none" stroke="#fff" stroke-linecap="round" stroke-linejoin="round" stroke-width="2.757" style="mix-blend-mode: soft-light;isolation: isolate"/>
            </g>
          </g>
        </g>
        <g id="Grupo_148233" data-name="Grupo 148233" transform="translate(123.798 275.956)">
          <path id="Trazado_199337" data-name="Trazado 199337" d="M180.734,337.065c-3.729-2.85-11.726-4.821-20.992-4.821s-17.263,1.971-20.993,4.821h-2.24v3.616c0,4.659,10.4,8.436,23.233,8.436s23.232-3.777,23.232-8.436v-3.616Z" transform="translate(-136.509 -287.45)" fill="url(#linear-gradient)"/>
          <ellipse id="Elipse_6156" data-name="Elipse 6156" cx="23.232" cy="8.437" rx="23.232" ry="8.437" transform="translate(0 41.179)" fill="#1a1a1a"/>
          <g id="Grupo_148228" data-name="Grupo 148228" transform="translate(3.771)">
            <path id="Trazado_199338" data-name="Trazado 199338" d="M179.05,285.491c0,.014,0,.028,0,.042a2.162,2.162,0,0,1-.066.282c-.008.026-.018.053-.027.079-.024.069-.05.138-.08.206-.013.03-.027.059-.041.089-.028.056-.059.111-.091.166s-.057.1-.089.147-.071.1-.108.152-.071.1-.11.145-.063.073-.1.109c-.083.094-.172.187-.268.279-.032.031-.063.063-.1.094-.128.117-.265.232-.414.346-.022.017-.047.034-.07.05-.131.1-.271.195-.417.29l-.152.1c-.144.09-.3.18-.454.267-.036.021-.071.041-.108.061-.19.1-.389.2-.6.3l-.162.074q-.245.113-.506.222c-.068.029-.136.057-.207.085-.2.08-.4.158-.608.235l-.11.041c-.245.089-.5.175-.762.259-.113.036-.229.071-.346.107l-.277.085c-.13.038-.263.075-.395.111-.093.026-.184.053-.277.077-.142.038-.287.074-.432.111l-.267.067c-.177.043-.357.084-.538.124-.062.015-.122.03-.186.043q-.368.081-.748.157l-.186.034c-.195.038-.389.075-.588.11-.094.017-.191.032-.287.048-.168.029-.337.057-.507.085l-.331.05c-.16.024-.319.048-.481.071s-.305.041-.459.061c-.137.017-.273.036-.411.053l-.48.054c-.136.016-.273.031-.41.045-.163.017-.33.032-.5.048l-.417.039-.511.039-.417.031c-.179.012-.36.021-.54.032l-.406.024c-.191.01-.384.016-.577.025-.129,0-.256.012-.385.016-.215.007-.433.012-.649.016-.109,0-.217.007-.327.008q-.491.009-.989.008-.543,0-1.078-.011c-.115,0-.228-.006-.343-.008-.242-.006-.483-.012-.722-.021l-.487-.02-.394-.019c-.177-.009-.351-.02-.525-.03l-.376-.024c-.181-.012-.359-.026-.538-.04l-.348-.027c-.195-.016-.387-.035-.579-.053l-.29-.028q-.4-.041-.8-.088l-.051-.006c-.281-.034-.557-.069-.832-.107l-.259-.038c-.186-.026-.371-.053-.553-.081l-.312-.051-.481-.08c-.108-.019-.214-.039-.322-.059-.15-.027-.3-.055-.449-.084l-.323-.065c-.143-.03-.285-.058-.424-.089-.108-.023-.213-.047-.319-.071l-.4-.093-.313-.076-.388-.1-.3-.08c-.126-.034-.251-.07-.375-.106-.1-.027-.193-.055-.287-.084-.123-.037-.243-.075-.363-.112-.09-.029-.181-.057-.269-.086-.122-.04-.241-.081-.359-.122l-.245-.085c-.123-.045-.243-.09-.363-.136l-.211-.08c-.14-.056-.274-.112-.407-.169-.045-.019-.092-.037-.136-.057q-.264-.114-.511-.234c-.039-.018-.075-.038-.113-.057-.124-.061-.246-.122-.364-.185-.057-.03-.109-.061-.164-.092-.094-.052-.189-.1-.278-.157l-.17-.105c-.08-.05-.162-.1-.238-.152-.056-.037-.109-.075-.163-.112-.071-.05-.142-.1-.209-.151-.052-.039-.1-.078-.15-.117s-.126-.1-.186-.153-.091-.08-.135-.121-.11-.1-.162-.155-.08-.082-.119-.124-.094-.105-.138-.158-.07-.084-.1-.126-.079-.108-.116-.163-.057-.085-.083-.126-.063-.113-.093-.17c-.021-.041-.044-.083-.063-.125-.027-.059-.048-.12-.071-.18-.014-.039-.031-.079-.043-.119-.021-.066-.034-.134-.048-.2-.007-.034-.016-.067-.021-.1a2.009,2.009,0,0,1-.024-.306h0V327.4a2.028,2.028,0,0,0,.024.307c0,.034.015.067.021.1.014.067.027.135.048.2.012.039.029.079.043.118.022.061.044.121.071.18.019.042.042.084.063.126s.059.113.093.169.054.085.083.126.075.109.116.163.066.084.1.126.089.106.138.159.078.083.119.124.106.1.162.155.089.081.135.121.122.1.186.153l.15.117c.067.051.138.1.209.151l.163.112c.076.051.158.1.239.152.056.034.111.07.169.1.089.053.184.105.278.158.055.03.108.062.164.092.117.062.24.123.364.184.039.019.074.039.113.057q.248.118.511.234l.136.057c.133.057.268.113.407.168l.211.08c.12.046.239.092.363.136l.244.085c.119.041.239.083.361.123l.267.085.365.113.287.084.375.106.3.08.388.1q.155.039.313.076.2.048.4.094l.319.071c.14.03.282.06.424.089l.323.066c.149.029.3.056.449.084l.322.058c.158.028.319.054.481.08l.312.051c.181.028.367.054.553.081.086.012.171.025.259.037.274.038.551.074.832.107l.051.006q.4.047.8.089l.29.027c.192.019.384.037.579.053l.348.027c.179.014.357.029.538.041l.376.023c.174.011.348.021.525.03.131.007.263.013.394.019.111,0,.22.011.331.016l.156,0q.36.012.722.021l.343.009q.536.01,1.078.011.5,0,.989-.009l.327-.007c.217,0,.434-.01.649-.017.129,0,.256-.011.385-.016.193-.007.386-.015.577-.025.136-.007.27-.016.406-.024.181-.01.361-.02.54-.032.139-.009.275-.021.412-.03.173-.013.346-.025.518-.04.137-.011.273-.025.41-.038.167-.016.336-.03.5-.048.137-.014.272-.03.407-.045.163-.018.325-.035.485-.055l.4-.052c.156-.02.313-.039.467-.062l.085-.011.387-.058.34-.052c.167-.026.331-.054.5-.082.1-.017.2-.033.3-.051.2-.034.389-.071.582-.108l.19-.036c.253-.05.5-.1.748-.156l.186-.043c.181-.041.361-.082.538-.125.09-.021.177-.045.267-.067.144-.036.29-.072.432-.11l.277-.077c.132-.037.265-.074.395-.112.094-.027.186-.056.277-.084s.187-.056.277-.085l.068-.023c.261-.084.516-.169.762-.258l.11-.042c.209-.076.411-.154.608-.234l.207-.086c.174-.072.342-.147.506-.222.053-.025.109-.049.162-.075.208-.1.407-.2.6-.3l.028-.014c.028-.016.052-.032.08-.047.158-.088.31-.177.454-.267l.151-.1c.147-.1.287-.192.419-.291l.069-.049c.149-.114.286-.23.414-.347.034-.031.066-.062.1-.094.1-.092.185-.185.268-.278.018-.021.041-.041.059-.062s.023-.032.036-.048c.039-.048.074-.1.11-.144s.075-.1.108-.153.06-.1.089-.146.044-.068.062-.1.019-.043.03-.063.028-.059.041-.089c.03-.069.057-.138.08-.207.009-.026.019-.052.027-.079a2.133,2.133,0,0,0,.066-.282c0-.014,0-.028,0-.042.009-.063.017-.126.021-.19,0-.031,0-.062,0-.093V285.208A2.037,2.037,0,0,1,179.05,285.491Z" transform="translate(-141.102 -279.029)" fill="url(#linear-gradient-5)"/>
            <g id="Grupo_148227" data-name="Grupo 148227">
              <path id="Trazado_199339" data-name="Trazado 199339" d="M160.089,290.039c-10.486,0-18.986-2.767-18.986-6.179s8.5-6.179,18.986-6.179,18.983,2.767,18.983,6.179S170.571,290.039,160.089,290.039Z" transform="translate(-141.102 -277.681)" fill="#f40b74"/>
            </g>
          </g>
          <path id="Trazado_199343" data-name="Trazado 199343" d="M160.372,290.969c-10.292,0-18.666-2.666-18.973-5.991-.006.062-.015.126-.015.189,0,3.412,8.5,6.179,18.987,6.179s18.983-2.767,18.983-6.179c0-.063-.009-.126-.015-.189C179.034,288.3,170.661,290.969,160.372,290.969Z" transform="translate(-137.382 -278.987)" fill="url(#linear-gradient-3)" style="mix-blend-mode: overlay;isolation: isolate"/>
          <g id="Grupo_148232" data-name="Grupo 148232" transform="translate(4.003 6.179)">
            <g id="Grupo_148231" data-name="Grupo 148231" clip-path="url(#clip-path-2)">
              <line id="Línea_1111" data-name="Línea 1111" y2="42.144" transform="translate(33.201 -2.215)" fill="none" stroke="#fff" stroke-linecap="round" stroke-linejoin="round" stroke-width="2.757" style="mix-blend-mode: soft-light;isolation: isolate"/>
            </g>
          </g>
          <g id="Grupo_148230" data-name="Grupo 148230" transform="translate(12.039 35.552)">
            <g id="Grupo_148229" data-name="Grupo 148229" style="mix-blend-mode: overlay;isolation: isolate">
              <path id="Trazado_199340" data-name="Trazado 199340" d="M156.617,321.556l-.056.668a69.054,69.054,0,0,1-4.216,6.422c-.469-.063-.7-.1-1.171-.167a67.864,67.864,0,0,0,4.293-6.157l0-.023c-1.49-.149-2.233-.244-3.715-.479l.132-.834C153.772,321.285,154.719,321.4,156.617,321.556Z" transform="translate(-151.174 -320.986)" fill="#fff"/>
              <path id="Trazado_199341" data-name="Trazado 199341" d="M158.481,329.268l.042-.622c.374-.286.56-.43.927-.721,2.205-1.711,3.1-2.706,3.112-3.832a1.374,1.374,0,0,0-1.5-1.5,2.737,2.737,0,0,0-1.654.562c-.116-.294-.173-.441-.286-.736a3.514,3.514,0,0,1,2.176-.662,2.176,2.176,0,0,1,2.318,2.212c.009,1.387-1.028,2.529-2.82,3.994-.272.213-.409.319-.685.529v.023c1.495.066,2.244.078,3.74.065l.007.843C161.707,329.441,160.63,329.41,158.481,329.268Z" transform="translate(-152.482 -321.124)" fill="#fff"/>
              <path id="Trazado_199342" data-name="Trazado 199342" d="M169.869,323.7c.126,1.579-.7,2.436-1.744,2.49-1,.053-1.9-.686-1.941-2.193s.764-2.364,1.759-2.416C169,321.528,169.754,322.274,169.869,323.7Zm-2.846.236c.024.947.419,1.676,1.1,1.64.713-.037.984-.777.917-1.768-.062-.911-.381-1.651-1.094-1.613C167.3,322.231,167,323,167.023,323.939Zm1.189,5.409a63.325,63.325,0,0,0,4.016-8.135c.258-.031.387-.048.644-.081a63.486,63.486,0,0,1-3.934,8.176C168.648,329.324,168.5,329.332,168.212,329.347Zm7.186-3.175c.248,1.564-.555,2.489-1.626,2.628a1.967,1.967,0,0,1-2.19-2.015,2.091,2.091,0,0,1,1.658-2.566C174.338,324.076,175.173,324.757,175.4,326.173Zm-2.958.473c.1.948.589,1.634,1.279,1.543.742-.1.97-.856.827-1.84-.131-.9-.52-1.615-1.263-1.518C172.613,324.918,172.339,325.71,172.44,326.645Z" transform="translate(-153.861 -321.012)" fill="#fff"/>
            </g>
          </g>
        </g>
        <g id="Grupo_148256" data-name="Grupo 148256" transform="translate(174.647 286.285)">
          <path id="Trazado_199360" data-name="Trazado 199360" d="M225.627,310.414c-2.15-1.841-7.175-3.134-13.031-3.134s-10.881,1.292-13.032,3.134l-1.117-.377v2.382c0,2.837,6.335,5.138,14.149,5.138s14.149-2.3,14.149-5.138v-2.382Z" transform="translate(-198.447 -293.309)" fill="url(#linear-gradient)"/>
          <ellipse id="Elipse_6159" data-name="Elipse 6159" cx="14.149" cy="5.138" rx="14.149" ry="5.138" transform="translate(0 11.59)" fill="#1a1a1a"/>
          <g id="Grupo_148251" data-name="Grupo 148251" transform="translate(2.718)">
            <path id="Trazado_199361" data-name="Trazado 199361" d="M224.159,294.792a1.239,1.239,0,0,1-.036.218c0,.015-.006.03-.01.044a1.521,1.521,0,0,1-.1.243c-.014.027-.03.055-.045.082s-.034.058-.053.087-.042.06-.064.089-.041.057-.064.085l-.057.065c-.048.055-.1.109-.157.163l-.059.057c-.076.069-.156.137-.244.2l-.041.029c-.077.058-.159.115-.246.172l-.09.057c-.085.053-.174.105-.267.157-.022.012-.042.025-.064.036q-.169.091-.352.178l-.094.044c-.1.044-.2.089-.3.131l-.121.051c-.116.047-.235.093-.357.137l-.067.025c-.145.053-.3.1-.45.153l-.094.029c-.219.069-.446.135-.682.2l-.065.016c-.247.065-.5.127-.765.185l-.016,0c-.265.058-.539.112-.82.163l-.053.01q-.41.073-.841.135l-.094.014q-.474.066-.97.118l-.076.008q-.507.053-1.035.089l-.055,0q-.541.037-1.1.056l-.033,0c-.383.012-.772.02-1.166.02-.442,0-.878-.01-1.307-.025l-.245-.011-.233-.011-.306-.018-.227-.014-.311-.024c-.07,0-.14-.01-.21-.016-.112-.009-.223-.02-.335-.03l-.177-.017c-.16-.016-.318-.034-.475-.052l-.027,0q-.248-.03-.49-.063l-.159-.023-.321-.047-.183-.03-.283-.047-.192-.035c-.088-.016-.177-.032-.263-.049l-.192-.039-.249-.052-.19-.042-.237-.055-.186-.045-.227-.058-.18-.048-.22-.062-.17-.049-.213-.066-.161-.051-.21-.072-.145-.051c-.073-.026-.144-.053-.214-.08l-.125-.047-.237-.1-.084-.035c-.1-.045-.2-.091-.3-.137l-.066-.034c-.073-.036-.146-.072-.215-.109l-.1-.053c-.056-.031-.112-.062-.165-.094l-.1-.062c-.048-.03-.1-.06-.141-.09s-.064-.044-.1-.066-.084-.059-.123-.089-.06-.046-.089-.07-.073-.059-.108-.09l-.08-.071c-.033-.03-.064-.061-.094-.092s-.048-.048-.071-.073-.056-.062-.081-.094-.041-.049-.06-.075-.047-.063-.068-.1-.034-.05-.049-.076-.038-.066-.055-.1-.026-.049-.037-.074-.029-.071-.042-.107-.018-.046-.025-.07c-.012-.039-.02-.079-.028-.119,0-.02-.01-.039-.012-.06a1.208,1.208,0,0,1-.014-.181h0v12.116a1.208,1.208,0,0,0,.014.181c0,.02.008.039.012.059.008.04.016.081.028.12.007.023.017.046.025.07s.025.071.042.107.025.048.037.073.034.067.055.1.032.05.049.075.044.064.068.1.039.05.06.075.053.062.081.094l.071.073c.03.03.062.062.1.092s.052.048.08.071.071.06.109.089.057.047.088.07l.124.09c.032.022.063.044.1.066s.094.06.141.09.065.041.1.061c.053.032.108.062.164.094l.1.054c.069.037.142.073.215.108l.066.034c.1.047.2.093.3.138l.08.034c.079.034.158.066.24.1l.128.048.212.08.144.05c.071.025.14.049.213.073l.158.05q.106.034.214.066l.17.05.221.062.177.047.231.059.182.044.241.056.187.042.25.052.192.039.264.049.19.034.286.048.181.03c.108.017.219.033.329.048l.15.022q.243.033.491.063l.025,0q.236.028.477.053l.166.016.347.032.2.016.319.025.221.014.313.018.227.011.2.009h.051q.643.025,1.306.025.591,0,1.165-.02h.036q.557-.02,1.1-.056l.057,0c.351-.024.7-.054,1.034-.089l.076-.008q.5-.053.97-.119l.032,0,.062-.01c.286-.042.568-.086.841-.135l.053-.01c.281-.051.555-.105.82-.163l.016,0q.4-.087.766-.185l.064-.016c.236-.063.462-.129.681-.2l.055-.016.039-.013c.154-.049.3-.1.449-.152l.071-.026c.121-.044.239-.09.354-.136l.123-.051c.1-.044.2-.087.3-.131l.1-.044q.184-.087.351-.178l.017-.008c.017-.009.031-.019.048-.028.093-.052.182-.1.267-.157l.09-.057c.087-.057.17-.114.248-.172l.039-.029c.088-.066.168-.135.244-.2.021-.018.039-.037.058-.056.057-.054.109-.109.158-.164.011-.012.025-.025.035-.037l.021-.028c.023-.028.044-.056.064-.085s.044-.06.064-.09.035-.057.053-.086.025-.04.036-.061,0-.015.009-.022a1.514,1.514,0,0,0,.1-.242c0-.015.007-.03.01-.044a1.238,1.238,0,0,0,.036-.218c0-.012,0-.023.006-.035s0-.036,0-.054V294.7C224.165,294.733,224.16,294.763,224.159,294.792Z" transform="translate(-201.757 -291.057)" fill="url(#linear-gradient-8)"/>
            <g id="Grupo_148250" data-name="Grupo 148250">
              <path id="Trazado_199362" data-name="Trazado 199362" d="M212.959,297.554c-6.188,0-11.2-1.633-11.2-3.646s5.014-3.646,11.2-3.646,11.206,1.633,11.206,3.646S219.148,297.554,212.959,297.554Z" transform="translate(-201.757 -290.262)" fill="url(#linear-gradient-9)"/>
            </g>
          </g>
          <g id="Grupo_148253" data-name="Grupo 148253" transform="translate(7.484 11.164)" opacity="0.8">
            <g id="Grupo_148252" data-name="Grupo 148252" style="mix-blend-mode: overlay;isolation: isolate">
              <path id="Trazado_199363" data-name="Trazado 199363" d="M207.563,308.041l.056-.352c.228-.143.342-.215.566-.362,1.349-.859,1.908-1.378,1.976-2.02a.786.786,0,0,0-.777-.933,1.576,1.576,0,0,0-.975.232c-.051-.173-.076-.259-.125-.433a2.017,2.017,0,0,1,1.278-.264,1.246,1.246,0,0,1,1.208,1.381c-.067.791-.718,1.387-1.818,2.127-.167.108-.25.16-.419.265l0,.013c.851.116,1.277.162,2.131.232l-.039.481C209.4,308.308,208.783,308.235,207.563,308.041Z" transform="translate(-207.563 -303.866)" fill="#fff"/>
              <path id="Trazado_199364" data-name="Trazado 199364" d="M212.365,307.863a2.215,2.215,0,0,0,1.04.321c.83.029,1.089-.453,1.087-.809,0-.6-.578-.864-1.176-.887l-.345-.015.021-.436.342.015c.445.017,1.011-.192,1.018-.7,0-.344-.213-.647-.757-.665a1.7,1.7,0,0,0-.889.245c-.053-.172-.078-.259-.13-.431a2.176,2.176,0,0,1,1.147-.279c.848.025,1.235.519,1.236,1.041a1.054,1.054,0,0,1-.836,1v.013a1.169,1.169,0,0,1,1.024,1.109c.006.687-.591,1.305-1.75,1.265a2.529,2.529,0,0,1-1.236-.353C212.244,308.126,212.284,308.039,212.365,307.863Z" transform="translate(-208.386 -303.924)" fill="#fff"/>
              <path id="Trazado_199365" data-name="Trazado 199365" d="M218.682,305.331c.073.9-.4,1.393-1,1.424-.575.03-1.087-.391-1.112-1.253s.437-1.352,1.006-1.383C218.182,304.087,218.615,304.514,218.682,305.331Zm-1.629.136c.013.542.241.958.627.938.408-.021.562-.445.524-1.012-.035-.52-.218-.943-.626-.922C217.21,304.49,217.04,304.932,217.053,305.467Zm.681,3.092a36.322,36.322,0,0,0,2.3-4.653c.148-.017.222-.027.369-.046a36.662,36.662,0,0,1-2.25,4.676C217.984,308.546,217.9,308.551,217.734,308.559Zm4.111-1.817a1.164,1.164,0,0,1-.929,1.5,1.127,1.127,0,0,1-1.254-1.153,1.2,1.2,0,0,1,.949-1.468C221.24,305.543,221.718,305.933,221.846,306.742Zm-1.693.271c.059.542.337.934.732.883.424-.055.556-.49.474-1.052-.076-.517-.3-.923-.723-.868C220.252,306.026,220.1,306.478,220.153,307.013Z" transform="translate(-209.176 -303.86)" fill="#fff"/>
            </g>
          </g>
          <path id="Trazado_199366" data-name="Trazado 199366" d="M213.237,297.93c-5.994,0-10.886-1.531-11.188-3.457a1.211,1.211,0,0,0-.015.189c0,2.013,5.014,3.646,11.2,3.646s11.206-1.633,11.206-3.646a1.208,1.208,0,0,0-.015-.189C224.126,296.4,219.231,297.93,213.237,297.93Z" transform="translate(-199.089 -291.016)" fill="url(#linear-gradient-3)" style="mix-blend-mode: overlay;isolation: isolate"/>
          <g id="Grupo_148255" data-name="Grupo 148255" transform="translate(2.945 3.646)">
            <g id="Grupo_148254" data-name="Grupo 148254" clip-path="url(#clip-path-3)">
              <line id="Línea_1114" data-name="Línea 1114" y2="15.105" transform="translate(19.556 -3.646)" fill="none" stroke="#fff" stroke-linecap="round" stroke-linejoin="round" stroke-width="2.757" style="mix-blend-mode: soft-light;isolation: isolate"/>
            </g>
          </g>
        </g>
      </g>
    </g>
  </g>
</svg>
