<svg xmlns="http://www.w3.org/2000/svg" width="129.991" height="129.991" viewBox="0 0 129.991 129.991">
  <g id="Grupo_149138" data-name="Grupo 149138" transform="translate(-734.758 -3503.063)">
    <path id="Trazado_188361" data-name="Trazado 188361" d="M10294-3120.29q3.045,0,6.076.3t6.018.892q2.988.6,5.9,1.479t5.728,2.05q2.814,1.166,5.5,2.6t5.219,3.127q2.533,1.693,4.887,3.625t4.508,4.085q2.153,2.156,4.086,4.508t3.624,4.887q1.692,2.532,3.128,5.218t2.6,5.5q1.165,2.814,2.05,5.729t1.478,5.9q.595,2.988.894,6.019t.3,6.076q0,3.045-.3,6.076t-.894,6.019q-.593,2.986-1.478,5.9t-2.05,5.729q-1.166,2.814-2.6,5.5t-3.128,5.218q-1.692,2.532-3.624,4.887t-4.086,4.508q-2.153,2.154-4.508,4.085t-4.887,3.625q-2.533,1.692-5.219,3.127t-5.5,2.6q-2.814,1.167-5.728,2.05t-5.9,1.479q-2.987.593-6.018.892t-6.076.3q-3.047,0-6.077-.3t-6.018-.892q-2.988-.6-5.9-1.479t-5.728-2.05q-2.815-1.165-5.5-2.6t-5.219-3.127q-2.533-1.693-4.887-3.625t-4.508-4.085q-2.155-2.156-4.086-4.508t-3.624-4.887q-1.692-2.532-3.128-5.218t-2.6-5.5q-1.165-2.814-2.05-5.729t-1.478-5.9q-.595-2.986-.893-6.019t-.3-6.076q0-3.045.3-6.076t.893-6.019q.593-2.987,1.478-5.9t2.05-5.729q1.166-2.814,2.6-5.5t3.128-5.218q1.692-2.532,3.624-4.887t4.086-4.508q2.153-2.153,4.508-4.085t4.887-3.625q2.533-1.692,5.219-3.127t5.5-2.6q2.814-1.167,5.728-2.05t5.9-1.479q2.985-.593,6.018-.892T10294-3120.29Z" transform="translate(-9494.242 6626.354)" fill="#fff" stroke="#f40b74" stroke-width="6"/>
    <g id="Grupo_148625" data-name="Grupo 148625" transform="translate(759 3520.064)">
      <g id="Grupo_148617" data-name="Grupo 148617" transform="translate(19.613 14.452)">
        <g id="Grupo_148615" data-name="Grupo 148615">
          <path id="Trazado_200184" data-name="Trazado 200184" d="M122.632,86.968a12.173,12.173,0,0,1-.826-1.987l-3.1-.852V78.968l3.1-.852a12.173,12.173,0,0,1,.826-1.987l-1.587-2.787,2.839-2.826-.013-.013V48H92.9V60.9H80V86.71H95.484a2.588,2.588,0,0,1,2.581,2.581v2.581a2.588,2.588,0,0,1-2.581,2.581v5.161a2.588,2.588,0,0,1,2.581,2.581v2.581a2.588,2.588,0,0,1-2.581,2.581v5.161a2.588,2.588,0,0,1,2.581,2.581v2.581h25.806V92.594l-2.826-2.839Z" transform="translate(-80 -48)" fill="#fff"/>
        </g>
        <g id="Grupo_148616" data-name="Grupo 148616">
          <path id="Trazado_200185" data-name="Trazado 200185" d="M92.9,48V60.9H80Z" transform="translate(-80 -48)" fill="#206897"/>
        </g>
      </g>
      <g id="Grupo_148618" data-name="Grupo 148618" transform="translate(8 8)">
        <path id="Trazado_200186" data-name="Trazado 200186" d="M367.742,208a7.742,7.742,0,1,0,7.742,7.742A7.75,7.75,0,0,0,367.742,208Zm0,12.9a5.161,5.161,0,1,1,5.161-5.161A5.167,5.167,0,0,1,367.742,220.9Z" transform="translate(-303.226 -175.742)" fill="#206897"/>
        <path id="Trazado_200187" data-name="Trazado 200187" d="M42.581,14.452a3.876,3.876,0,0,1,3.871-3.871H94.194a3.876,3.876,0,0,1,3.871,3.871v9.932l-2.8-4.2L93.12,21.618l6.235,9.354,6.235-9.352-2.147-1.431-2.8,4.195V14.452A6.459,6.459,0,0,0,94.194,8H46.452A6.459,6.459,0,0,0,40,14.452V20.9h2.581Z" transform="translate(-34.839 -8)" fill="#206897"/>
        <path id="Trazado_200188" data-name="Trazado 200188" d="M40,104h2.581v2.581H40Z" transform="translate(-34.839 -88.516)" fill="#206897"/>
        <path id="Trazado_200189" data-name="Trazado 200189" d="M40,136h2.581v2.581H40Z" transform="translate(-34.839 -115.355)" fill="#206897"/>
        <path id="Trazado_200190" data-name="Trazado 200190" d="M207.226,72H184V82.323h23.226Zm-2.581,7.742H186.581V74.581h18.065Z" transform="translate(-155.613 -61.677)" fill="#206897"/>
        <path id="Trazado_200191" data-name="Trazado 200191" d="M88,78.405V71.274l-3.387-.926c-.111-.3-.234-.591-.369-.884l1.742-3.053-5.043-5.043L77.89,63.11c-.293-.134-.587-.258-.884-.369l-.925-3.386h-7.13l-.926,3.387c-.3.111-.591.234-.884.369L64.774,61.76V40H31.982L18.323,53.659V78.71H11.871A3.876,3.876,0,0,0,8,82.581v2.581a3.866,3.866,0,0,0,2.581,3.634v3.057A3.863,3.863,0,0,0,8,95.484v2.581a3.866,3.866,0,0,0,2.581,3.634v3.057A3.863,3.863,0,0,0,8,108.387v2.581a3.876,3.876,0,0,0,3.871,3.871H35.1a3.866,3.866,0,0,0,3.634-2.581H64.774V87.917l2.366-1.351c.292.134.587.258.884.369l.926,3.387h7.13l.926-3.387c.3-.111.592-.235.884-.369l3.052,1.743,5.043-5.041-1.742-3.054c.134-.293.258-.587.369-.883ZM11.871,86.452a1.292,1.292,0,0,1-1.29-1.29V82.581a1.292,1.292,0,0,1,1.29-1.29H35.1a1.292,1.292,0,0,1,1.29,1.29v2.581a1.292,1.292,0,0,1-1.29,1.29m-1.29,2.581v2.581H13.161V89.032ZM10.581,95.484a1.292,1.292,0,0,1,1.29-1.29H35.1a1.292,1.292,0,0,1,1.29,1.29v2.581a1.292,1.292,0,0,1-1.29,1.29H11.871a1.292,1.292,0,0,1-1.29-1.29Zm23.226,6.452v2.581H13.161v-2.581Zm2.581,9.032a1.292,1.292,0,0,1-1.29,1.29H11.871a1.292,1.292,0,0,1-1.29-1.29v-2.581a1.292,1.292,0,0,1,1.29-1.29H35.1a1.292,1.292,0,0,1,1.29,1.29ZM20.9,55.484h12.9v-12.9H62.194V63.265l-3.147,3.147,1.742,3.053c-.134.293-.258.587-.369.884l-3.387.925v7.132l3.387.926q.166.443.369.883l-1.742,3.054,3.147,3.146v23.263H38.968v-1.29a3.866,3.866,0,0,0-2.581-3.634V101.7a3.866,3.866,0,0,0,2.581-3.634V95.483a3.866,3.866,0,0,0-2.581-3.634V88.792a3.866,3.866,0,0,0,2.581-3.634V82.578A3.876,3.876,0,0,0,35.1,78.707H20.9m61.866,4.126L80.511,85.09l-2.554-1.458-.627.333a10.23,10.23,0,0,1-1.766.738l-.677.208-.774,2.831H70.92l-.774-2.83-.677-.208a10.332,10.332,0,0,1-1.766-.738l-.627-.333-2.554,1.458-2.258-2.257,1.457-2.554-.33-.626a10.33,10.33,0,0,1-.738-1.769l-.209-.676-2.83-.777V73.243l2.83-.774.209-.677a10.245,10.245,0,0,1,.738-1.769l.33-.627-1.457-2.554,2.258-2.258,2.554,1.457.627-.33a10.3,10.3,0,0,1,1.769-.738l.677-.209.774-2.83h3.192l.774,2.83.677.209a10.245,10.245,0,0,1,1.769.738l.627.33,2.554-1.457,2.258,2.258-1.457,2.554.33.627a10.3,10.3,0,0,1,.738,1.769l.209.677,2.83.774v3.191l-2.83.775-.209.676a10.33,10.33,0,0,1-.738,1.769l-.33.626Z" transform="translate(-8 -34.839)" fill="#206897"/>
        <path id="Trazado_200192" data-name="Trazado 200192" d="M104,152h2.581v2.581H104Z" transform="translate(-88.516 -128.774)" fill="#206897"/>
        <path id="Trazado_200193" data-name="Trazado 200193" d="M136,152h30.968v2.581H136Z" transform="translate(-115.355 -128.774)" fill="#206897"/>
        <path id="Trazado_200194" data-name="Trazado 200194" d="M104,184h33.548v2.581H104Z" transform="translate(-88.516 -155.613)" fill="#206897"/>
        <path id="Trazado_200195" data-name="Trazado 200195" d="M104,216h33.548v2.581H104Z" transform="translate(-88.516 -182.452)" fill="#206897"/>
        <path id="Trazado_200196" data-name="Trazado 200196" d="M104,248h20.645v2.581H104Z" transform="translate(-88.516 -209.29)" fill="#206897"/>
        <path id="Trazado_200197" data-name="Trazado 200197" d="M248,248h2.581v2.581H248Z" transform="translate(-209.29 -209.29)" fill="#206897"/>
        <path id="Trazado_200198" data-name="Trazado 200198" d="M280,248h2.581v2.581H280Z" transform="translate(-236.129 -209.29)" fill="#206897"/>
        <path id="Trazado_200199" data-name="Trazado 200199" d="M216,362.065h18.065V344H216Zm2.581-15.484h12.9v12.9h-12.9Z" transform="translate(-182.452 -289.806)" fill="#206897"/>
        <path id="Trazado_200200" data-name="Trazado 200200" d="M216,312h15.484v2.581H216Z" transform="translate(-182.452 -262.968)" fill="#206897"/>
      </g>
    </g>
  </g>
</svg>
