<svg xmlns="http://www.w3.org/2000/svg" width="129.991" height="129.991" viewBox="0 0 129.991 129.991">
  <g id="Grupo_149137" data-name="Grupo 149137" transform="translate(-1085.758 -3503.063)">
    <path id="Trazado_188362" data-name="Trazado 188362" d="M10645-3120.29q3.045,0,6.076.3t6.018.892q2.988.6,5.9,1.479t5.728,2.05q2.814,1.166,5.5,2.6t5.219,3.127q2.533,1.693,4.887,3.625t4.508,4.085q2.153,2.156,4.086,4.508t3.624,4.887q1.692,2.532,3.128,5.218t2.6,5.5q1.165,2.814,2.05,5.729t1.478,5.9q.595,2.988.894,6.019t.3,6.076q0,3.045-.3,6.076t-.894,6.019q-.593,2.986-1.478,5.9t-2.05,5.729q-1.166,2.814-2.6,5.5t-3.128,5.218q-1.692,2.532-3.624,4.887t-4.086,4.508q-2.153,2.154-4.508,4.085t-4.887,3.625q-2.533,1.692-5.219,3.127t-5.5,2.6q-2.814,1.167-5.728,2.05t-5.9,1.479q-2.987.593-6.018.892t-6.076.3q-3.047,0-6.077-.3t-6.018-.892q-2.988-.6-5.9-1.479t-5.728-2.05q-2.815-1.165-5.5-2.6t-5.219-3.127q-2.533-1.693-4.887-3.625t-4.508-4.085q-2.155-2.156-4.086-4.508t-3.624-4.887q-1.692-2.532-3.128-5.218t-2.6-5.5q-1.165-2.814-2.05-5.729t-1.478-5.9q-.595-2.986-.894-6.019t-.3-6.076q0-3.045.3-6.076t.894-6.019q.593-2.987,1.478-5.9t2.05-5.729q1.166-2.814,2.6-5.5t3.128-5.218q1.692-2.532,3.624-4.887t4.086-4.508q2.153-2.153,4.508-4.085t4.887-3.625q2.533-1.692,5.219-3.127t5.5-2.6q2.814-1.167,5.728-2.05t5.9-1.479q2.985-.593,6.018-.892T10645-3120.29Z" transform="translate(-9494.242 6626.354)" fill="#fff" stroke="#f40b74" stroke-width="6"/>
    <g id="Grupo_148624" data-name="Grupo 148624" transform="translate(1103.762 3515.066)">
      <path id="Trazado_200165" data-name="Trazado 200165" d="M151.531,437.177,146.354,432h-5.177L136,437.177" transform="translate(-107.37 -355.65)" fill="#206897"/>
      <g id="Grupo_148606" data-name="Grupo 148606" transform="translate(35.094 59.606)">
        <path id="Trazado_200166" data-name="Trazado 200166" d="M176,328h2.589v2.589H176Z" transform="translate(-176 -328)" fill="#206897"/>
      </g>
      <g id="Grupo_148607" data-name="Grupo 148607" transform="translate(62.162 18.353)">
        <path id="Trazado_200167" data-name="Trazado 200167" d="M356.943,83.649h-2.589V78.471a3.883,3.883,0,0,0-7.766,0v5.177H344V78.471a6.471,6.471,0,0,1,12.943,0Z" transform="translate(-344 -72)" fill="#206897"/>
      </g>
      <g id="Grupo_148608" data-name="Grupo 148608" transform="translate(67.349 33.802)">
        <path id="Trazado_200168" data-name="Trazado 200168" d="M376,168h2.589v2.589H376Z" transform="translate(-376 -168)" fill="#206897"/>
      </g>
      <g id="Grupo_148609" data-name="Grupo 148609" transform="translate(35.094 28.641)">
        <path id="Trazado_200169" data-name="Trazado 200169" d="M176,136h2.589v2.589H176Z" transform="translate(-176 -136)" fill="#206897"/>
      </g>
      <g id="Grupo_148610" data-name="Grupo 148610" transform="translate(35.094 23.481)">
        <path id="Trazado_200170" data-name="Trazado 200170" d="M176,104h2.589v2.589H176Z" transform="translate(-176 -104)" fill="#206897"/>
      </g>
      <g id="Grupo_148611" data-name="Grupo 148611" transform="translate(40.255 23.481)">
        <path id="Trazado_200171" data-name="Trazado 200171" d="M208,104h2.589v2.589H208Z" transform="translate(-208 -104)" fill="#206897"/>
      </g>
      <g id="Grupo_148612" data-name="Grupo 148612" transform="translate(45.416 23.481)">
        <path id="Trazado_200172" data-name="Trazado 200172" d="M240,104h2.589v2.589H240Z" transform="translate(-240 -104)" fill="#206897"/>
      </g>
      <g id="Grupo_148613" data-name="Grupo 148613" transform="translate(54.447 23.481)">
        <path id="Trazado_200173" data-name="Trazado 200173" d="M296,104h2.589v2.589H296Z" transform="translate(-296 -104)" fill="#206897"/>
      </g>
      <path id="Trazado_200174" data-name="Trazado 200174" d="M357.177,80A5.177,5.177,0,0,0,352,85.177v2.589h1.294V85.177a3.883,3.883,0,1,1,7.766,0v2.589h1.294V85.177A5.177,5.177,0,0,0,357.177,80Z" transform="translate(-288.541 -60.353)" fill="#206897"/>
      <path id="Trazado_200175" data-name="Trazado 200175" d="M176,328h2.589v2.589H176Z" transform="translate(-140.906 -268.394)" fill="#206897"/>
      <path id="Trazado_200176" data-name="Trazado 200176" d="M330.589,78.471v3.883h-1.294A1.3,1.3,0,0,0,328,83.649V94a1.3,1.3,0,0,0,1.294,1.294h15.531A1.3,1.3,0,0,0,346.12,94V83.649a1.3,1.3,0,0,0-1.294-1.294h-1.294V78.471a6.471,6.471,0,0,0-12.943,0Zm12.943,14.237H330.589V84.943h12.943Zm-2.589-14.237v3.883h-7.766V78.471a3.883,3.883,0,1,1,7.766,0Z" transform="translate(-268.474 -53.647)" fill="#206897"/>
      <path id="Trazado_200177" data-name="Trazado 200177" d="M376,168h2.589v2.589H376Z" transform="translate(-308.651 -134.198)" fill="#206897"/>
      <path id="Trazado_200178" data-name="Trazado 200178" d="M176,136h2.589v2.589H176Z" transform="translate(-140.906 -107.359)" fill="#206897"/>
      <path id="Trazado_200179" data-name="Trazado 200179" d="M176,104h2.589v2.589H176Z" transform="translate(-140.906 -80.519)" fill="#206897"/>
      <path id="Trazado_200180" data-name="Trazado 200180" d="M208,104h2.589v2.589H208Z" transform="translate(-167.745 -80.519)" fill="#206897"/>
      <path id="Trazado_200181" data-name="Trazado 200181" d="M240,104h2.589v2.589H240Z" transform="translate(-194.584 -80.519)" fill="#206897"/>
      <path id="Trazado_200182" data-name="Trazado 200182" d="M296,104h2.589v2.589H296Z" transform="translate(-241.553 -80.519)" fill="#206897"/>
      <path id="Trazado_200183" data-name="Trazado 200183" d="M86.71,15.74h-.7A21.792,21.792,0,0,1,70.5,9.316l-.939-.939a1.289,1.289,0,0,0-1.825,0l-.939.939A21.791,21.791,0,0,1,51.283,15.74h-.7a1.291,1.291,0,0,0-1.29,1.29v12.6a21.948,21.948,0,0,0,3.534,11.915H40.258V37.676a1.287,1.287,0,0,0-.378-.912L37.3,34.183a1.289,1.289,0,0,0-1.825,0l-2.581,2.581a1.287,1.287,0,0,0-.378.912v3.871H11.871A3.876,3.876,0,0,0,8,45.418V73.8a3.876,3.876,0,0,0,3.871,3.871H30.692l-2.581,2.581H23.484a3.876,3.876,0,0,0-3.871,3.871v2.581A1.29,1.29,0,0,0,20.9,88H51.871a1.29,1.29,0,0,0,1.29-1.29V84.127a3.876,3.876,0,0,0-3.871-3.871H44.663l-2.581-2.581H60.9A3.876,3.876,0,0,0,64.774,73.8V51.98L67.9,54.21a1.288,1.288,0,0,0,1.5,0l9.419-6.728A21.976,21.976,0,0,0,88,29.632v-12.6A1.291,1.291,0,0,0,86.71,15.74ZM54.773,44.127c.392.446.808.875,1.237,1.29H40.258v-1.29ZM40.258,48H58.323V71.224H14.452V48H32.516v2.169a9.032,9.032,0,1,0,7.742,0ZM35.1,51.029V38.21l1.29-1.29,1.29,1.29V51.029a1.287,1.287,0,0,0,.861,1.215,6.452,6.452,0,1,1-4.3,0A1.289,1.289,0,0,0,35.1,51.029Zm15.484,33.1v1.29H22.194v-1.29a1.292,1.292,0,0,1,1.29-1.29H49.29A1.292,1.292,0,0,1,50.581,84.127ZM11.871,72.514a1.29,1.29,0,0,0,1.29,1.29H59.613a1.29,1.29,0,0,0,1.29-1.29v-23.3l1.29.921V73.8A1.292,1.292,0,0,1,60.9,75.1H11.871a1.292,1.292,0,0,1-1.29-1.29V45.418a1.292,1.292,0,0,1,1.29-1.29H32.516v1.29H13.161a1.291,1.291,0,0,0-1.29,1.29M85.419,29.632a19.4,19.4,0,0,1-8.1,15.75l-8.67,6.192-8.67-6.194a19.389,19.389,0,0,1-8.1-15.748V18.314A24.349,24.349,0,0,0,68.618,11.14l.027-.027.027.027a24.349,24.349,0,0,0,16.747,7.174Z" transform="translate(0 0)" fill="#206897"/>
    </g>
  </g>
</svg>
