<svg xmlns="http://www.w3.org/2000/svg" width="129.991" height="129.991" viewBox="0 0 129.991 129.991">
  <g id="Grupo_149141" data-name="Grupo 149141" transform="translate(-1248.258 -2551.06)">
    <path id="Trazado_199581" data-name="Trazado 199581" d="M10645-3120.29q3.045,0,6.076.3t6.018.892q2.988.6,5.9,1.479t5.728,2.05q2.814,1.166,5.5,2.6t5.219,3.127q2.533,1.693,4.887,3.625t4.508,4.085q2.153,2.156,4.086,4.508t3.624,4.887q1.692,2.532,3.128,5.218t2.6,5.5q1.165,2.814,2.05,5.729t1.478,5.9q.595,2.988.894,6.019t.3,6.076q0,3.045-.3,6.076t-.894,6.019q-.593,2.986-1.478,5.9t-2.05,5.729q-1.166,2.814-2.6,5.5t-3.128,5.218q-1.692,2.532-3.624,4.887t-4.086,4.508q-2.153,2.154-4.508,4.085t-4.887,3.625q-2.533,1.692-5.219,3.127t-5.5,2.6q-2.814,1.167-5.728,2.05t-5.9,1.479q-2.987.593-6.018.892t-6.076.3q-3.047,0-6.077-.3t-6.018-.892q-2.988-.6-5.9-1.479t-5.728-2.05q-2.815-1.165-5.5-2.6t-5.219-3.127q-2.533-1.693-4.887-3.625t-4.508-4.085q-2.155-2.156-4.086-4.508t-3.624-4.887q-1.692-2.532-3.128-5.218t-2.6-5.5q-1.165-2.814-2.05-5.729t-1.478-5.9q-.595-2.986-.894-6.019t-.3-6.076q0-3.045.3-6.076t.894-6.019q.593-2.987,1.478-5.9t2.05-5.729q1.166-2.814,2.6-5.5t3.128-5.218q1.692-2.532,3.624-4.887t4.086-4.508q2.153-2.153,4.508-4.085t4.887-3.625q2.533-1.692,5.219-3.127t5.5-2.6q2.814-1.167,5.728-2.05t5.9-1.479q2.985-.593,6.018-.892T10645-3120.29Z" transform="translate(-9331.742 5674.35)" fill="#fff" stroke="#f40b74" stroke-width="6"/>
    <g id="Grupo_148623" data-name="Grupo 148623" transform="translate(1257.183 2559.983)">
      <path id="Trazado_200235" data-name="Trazado 200235" d="M360,240h6.679v18.7H360Z" transform="translate(-286.676 -186.687)" fill="#206897"/>
      <path id="Trazado_200236" data-name="Trazado 200236" d="M334.722,28.022h-2.386a1.09,1.09,0,0,1-.771-1.862l1.687-1.687a1.336,1.336,0,0,0,0-1.889l-3.778-3.778a1.336,1.336,0,0,0-1.889,0L325.9,20.493a1.091,1.091,0,0,1-1.861-.771V17.336A1.336,1.336,0,0,0,322.7,16h-5.343a1.336,1.336,0,0,0-1.336,1.336v2.386a1.09,1.09,0,0,1-1.862.771l-1.687-1.687a1.336,1.336,0,0,0-1.889,0l-3.778,3.778a1.336,1.336,0,0,0,0,1.889l1.687,1.687h0a1.091,1.091,0,0,1-.771,1.862h-2.386A1.336,1.336,0,0,0,304,29.357V34.7a1.336,1.336,0,0,0,1.336,1.336h2.386a1.09,1.09,0,0,1,.771,1.862l-1.687,1.687a1.336,1.336,0,0,0,0,1.889l3.778,3.778a1.336,1.336,0,0,0,1.889,0l1.688-1.687a1.091,1.091,0,0,1,1.861.771v2.386a1.336,1.336,0,0,0,1.336,1.336H322.7a1.336,1.336,0,0,0,1.336-1.336V44.336a1.09,1.09,0,0,1,1.862-.771l1.687,1.687a1.336,1.336,0,0,0,1.889,0l3.778-3.778a1.336,1.336,0,0,0,0-1.889L331.565,37.9a1.091,1.091,0,0,1,.771-1.861h2.386a1.336,1.336,0,0,0,1.336-1.336V29.357a1.336,1.336,0,0,0-1.336-1.336Zm-1.336,5.343h-1.05a3.762,3.762,0,0,0-2.66,6.422l.743.743-1.889,1.889-.743-.743a3.762,3.762,0,0,0-6.422,2.66v1.05h-2.671v-1.05a3.762,3.762,0,0,0-6.422-2.66l-.743.743-1.889-1.889.743-.743a3.762,3.762,0,0,0-2.66-6.422h-1.05V30.693h1.05a3.762,3.762,0,0,0,2.66-6.422l-.743-.743,1.889-1.889.743.743a3.762,3.762,0,0,0,6.422-2.66v-1.05h2.671v1.05a3.762,3.762,0,0,0,6.422,2.66l.743-.743,1.889,1.889-.743.743a3.762,3.762,0,0,0,2.66,6.422h1.05Z" transform="translate(-240.057)" fill="#206897"/>
      <path id="Trazado_200237" data-name="Trazado 200237" d="M373.343,80a5.343,5.343,0,1,0,5.343,5.343A5.343,5.343,0,0,0,373.343,80Zm0,8.014a2.671,2.671,0,1,1,2.671-2.671A2.671,2.671,0,0,1,373.343,88.014Z" transform="translate(-293.372 -53.314)" fill="#206897"/>
      <path id="Trazado_200238" data-name="Trazado 200238" d="M232.072,238.722a4.012,4.012,0,0,0,4.007-4.007V208h-2.671v26.715a1.337,1.337,0,0,1-1.336,1.336H192v2.671h6.679v9.35h-5.343A1.336,1.336,0,0,0,192,249.408v5.343a1.336,1.336,0,0,0,1.336,1.336H220.05a1.336,1.336,0,0,0,1.336-1.336v-5.343a1.336,1.336,0,0,0-1.336-1.336h-5.343v-9.35Zm-13.357,14.693H194.671v-2.671h24.043Zm-6.679-5.343H201.35v-9.35h4.007v4.007a1.336,1.336,0,1,0,2.671,0v-4.007h4.007Z" transform="translate(-146.758 -160.086)" fill="#206897"/>
      <path id="Trazado_200239" data-name="Trazado 200239" d="M136.057,136h-28.05A4.012,4.012,0,0,0,104,140.007v26.715h2.671V146.686h33.393v-2.671H106.671v-4.007a1.337,1.337,0,0,1,1.336-1.336h28.05Z" transform="translate(-73.355 -100.022)" fill="#206897"/>
      <path id="Trazado_200240" data-name="Trazado 200240" d="M17.336,362.715H41.379a1.336,1.336,0,0,0,1.336-1.336V337.336A1.336,1.336,0,0,0,41.379,336H17.336A1.336,1.336,0,0,0,16,337.336v24.043A1.336,1.336,0,0,0,17.336,362.715Zm1.336-2.671V354.7H40.043v5.343Zm0-8.014v-5.343H40.043v5.343Zm21.372-13.357v5.343H18.671v-5.343Z" transform="translate(0 -266.715)" fill="#206897"/>
      <ellipse id="Elipse_12653" data-name="Elipse 12653" cx="1.167" cy="1.458" rx="1.167" ry="1.458" transform="translate(20.083 73.288)" fill="#206897"/>
      <circle id="Elipse_12654" data-name="Elipse 12654" cx="1.167" cy="1.167" r="1.167" transform="translate(20.083 81.418)" fill="#206897"/>
      <circle id="Elipse_12655" data-name="Elipse 12655" cx="1.167" cy="1.167" r="1.167" transform="translate(20.083 89.584)" fill="#206897"/>
      <path id="Trazado_200241" data-name="Trazado 200241" d="M112,360h2.671v2.671H112Z" transform="translate(-80.001 -286.67)" fill="#206897"/>
      <path id="Trazado_200242" data-name="Trazado 200242" d="M136,360h2.671v2.671H136Z" transform="translate(-100.001 -286.67)" fill="#206897"/>
      <path id="Trazado_200243" data-name="Trazado 200243" d="M112,408h2.671v2.671H112Z" transform="translate(-80.001 -326.693)" fill="#206897"/>
      <path id="Trazado_200244" data-name="Trazado 200244" d="M136,408h2.671v2.671H136Z" transform="translate(-100.001 -326.693)" fill="#206897"/>
      <path id="Trazado_200245" data-name="Trazado 200245" d="M112,456h2.671v2.671H112Z" transform="translate(-80.001 -366.679)" fill="#206897"/>
      <path id="Trazado_200246" data-name="Trazado 200246" d="M136,456h2.671v2.671H136Z" transform="translate(-100.001 -366.679)" fill="#206897"/>
      <path id="Trazado_200247" data-name="Trazado 200247" d="M226.729,232H220.05a1.336,1.336,0,0,0-1.336,1.336v1.336h-5.343a1.336,1.336,0,0,0-1.336,1.336v1.336h-5.343a1.336,1.336,0,0,0-1.336,1.336v1.336h-5.343a1.336,1.336,0,0,0-1.336,1.336v1.336h-5.343A1.336,1.336,0,0,0,192,244.022v9.35h38.736V250.7h-2.671V233.336A1.336,1.336,0,0,0,226.729,232Zm-32.057,13.357h4.007V250.7h-4.007Zm6.679-2.671h4.007V250.7H201.35Zm6.679-2.671h4.007V250.7h-4.007Zm6.679-2.671h4.007V250.7h-4.007Zm6.679,13.357V234.671h4.007V250.7Z" transform="translate(-146.716 -180.023)" fill="#206897"/>
      <ellipse id="Elipse_12656" data-name="Elipse 12656" cx="1.458" cy="1.167" rx="1.458" ry="1.167" transform="translate(34.631 40.103)" fill="#206897"/>
      <ellipse id="Elipse_12657" data-name="Elipse 12657" cx="1.458" cy="1.167" rx="1.458" ry="1.167" transform="translate(38.706 40.103)" fill="#206897"/>
      <circle id="Elipse_12658" data-name="Elipse 12658" cx="1.167" cy="1.167" r="1.167" transform="translate(42.782 40.103)" fill="#206897"/>
    </g>
  </g>
</svg>
