<svg xmlns="http://www.w3.org/2000/svg" width="129.991" height="129.991" viewBox="0 0 129.991 129.991">
  <g id="Grupo_149140" data-name="Grupo 149140" transform="translate(-897.258 -2551.06)">
    <path id="Trazado_199580" data-name="Trazado 199580" d="M10294-3120.29q3.045,0,6.076.3t6.018.892q2.988.6,5.9,1.479t5.728,2.05q2.814,1.166,5.5,2.6t5.219,3.127q2.533,1.693,4.887,3.625t4.508,4.085q2.153,2.156,4.086,4.508t3.624,4.887q1.692,2.532,3.128,5.218t2.6,5.5q1.165,2.814,2.05,5.729t1.478,5.9q.595,2.988.894,6.019t.3,6.076q0,3.045-.3,6.076t-.894,6.019q-.593,2.986-1.478,5.9t-2.05,5.729q-1.166,2.814-2.6,5.5t-3.128,5.218q-1.692,2.532-3.624,4.887t-4.086,4.508q-2.153,2.154-4.508,4.085t-4.887,3.625q-2.533,1.692-5.219,3.127t-5.5,2.6q-2.814,1.167-5.728,2.05t-5.9,1.479q-2.987.593-6.018.892t-6.076.3q-3.047,0-6.077-.3t-6.018-.892q-2.988-.6-5.9-1.479t-5.728-2.05q-2.815-1.165-5.5-2.6t-5.219-3.127q-2.533-1.693-4.887-3.625t-4.508-4.085q-2.155-2.156-4.086-4.508t-3.624-4.887q-1.692-2.532-3.128-5.218t-2.6-5.5q-1.165-2.814-2.05-5.729t-1.478-5.9q-.595-2.986-.893-6.019t-.3-6.076q0-3.045.3-6.076t.893-6.019q.593-2.987,1.478-5.9t2.05-5.729q1.166-2.814,2.6-5.5t3.128-5.218q1.692-2.532,3.624-4.887t4.086-4.508q2.153-2.153,4.508-4.085t4.887-3.625q2.533-1.692,5.219-3.127t5.5-2.6q2.814-1.167,5.728-2.05t5.9-1.479q2.985-.593,6.018-.892T10294-3120.29Z" transform="translate(-9331.742 5674.35)" fill="#fff" stroke="#f40b74" stroke-width="6"/>
    <g id="Grupo_148622" data-name="Grupo 148622" transform="translate(922.373 2582.226)">
      <path id="Trazado_200212" data-name="Trazado 200212" d="M101.819,35.6h-.064a12.812,12.812,0,0,0-21.735-7.922A12.716,12.716,0,0,0,71.061,24,12.86,12.86,0,0,0,58.309,35.6,10.312,10.312,0,0,0,54.4,55.461V75.539h2.563V56.123a10.352,10.352,0,0,0,1.283.089H68.5V48.481h8.971V39.462H95.411V62.654H68.5a3.86,3.86,0,0,0-3.845,3.865v2.646l1.28,24.458v3.82A2.573,2.573,0,0,0,68.5,100.02H91.567a2.573,2.573,0,0,0,2.563-2.577V93.622l1.351-25.813h-25.7v2.577h23l-1.148,21.9H87.8L89,73.042l-2.558-.161L85.237,92.289H81.314V72.962H78.751V92.289H74.828L73.622,72.882l-2.558.161,1.2,19.246H68.433L67.216,69.1V66.52A1.286,1.286,0,0,1,68.5,65.231H97.975V56.212h3.845a10.134,10.134,0,0,0,3.845-.759V75.539h2.563v-21.6A10.31,10.31,0,0,0,101.819,35.6ZM68.5,97.443V94.866H91.567v2.577ZM70.31,45.9l4.6-4.62V45.9Zm31.509,7.731H97.975V36.885H75.657l-9.722,9.774v6.976h-7.69a7.607,7.607,0,0,1-5.483-2.312,7.679,7.679,0,0,1,.182-10.954,7.566,7.566,0,0,1,9.263-1.093l1.322-2.207a10.123,10.123,0,0,0-2.673-1.121,10.284,10.284,0,0,1,10.205-9.371,10.174,10.174,0,0,1,7.314,3.095,12.98,12.98,0,0,0-1.871,4.35l2.5.571a10.25,10.25,0,0,1,20.253,2.249l-.006,1.634,1.465-.213a7.575,7.575,0,0,1,1.1-.09,7.731,7.731,0,0,1,0,15.462Z" transform="translate(-40.032 -20.02)" fill="#206897"/>
      <path id="Trazado_200213" data-name="Trazado 200213" d="M148,60.776l2.43,1.062a5.311,5.311,0,0,1,4.866-3.185V56A7.961,7.961,0,0,0,148,60.776Z" transform="translate(-124.195 -46.713)" fill="#206897"/>
      <path id="Trazado_200214" data-name="Trazado 200214" d="M248,136h13.267v2.653H248Z" transform="translate(-208.217 -114.085)" fill="#206897"/>
      <path id="Trazado_200215" data-name="Trazado 200215" d="M248,168h13.267v2.653H248Z" transform="translate(-208.217 -140.929)" fill="#206897"/>
      <path id="Trazado_200216" data-name="Trazado 200216" d="M192,200h22.554v2.653H192Z" transform="translate(-161.362 -167.772)" fill="#206897"/>
      <path id="Trazado_200217" data-name="Trazado 200217" d="M312,232h2.653v2.653H312Z" transform="translate(-261.725 -194.616)" fill="#206897"/>
      <path id="Trazado_200218" data-name="Trazado 200218" d="M192,232h17.247v2.653H192Z" transform="translate(-161.264 -194.616)" fill="#206897"/>
      <path id="Trazado_200219" data-name="Trazado 200219" d="M88,360h2.653v2.653H88Z" transform="translate(-73.82 -301.99)" fill="#206897"/>
      <path id="Trazado_200220" data-name="Trazado 200220" d="M120,416h2.653v2.653H120Z" transform="translate(-100.663 -349.267)" fill="#206897"/>
      <path id="Trazado_200221" data-name="Trazado 200221" d="M120,264h2.653v22.554H120Z" transform="translate(-100.663 -221.873)" fill="#206897"/>
      <path id="Trazado_200222" data-name="Trazado 200222" d="M408,360h2.653v2.653H408Z" transform="translate(-342.594 -301.99)" fill="#206897"/>
      <path id="Trazado_200223" data-name="Trazado 200223" d="M376,416h2.653v2.653H376Z" transform="translate(-315.412 -349.267)" fill="#206897"/>
      <path id="Trazado_200224" data-name="Trazado 200224" d="M376,264h2.653v22.554H376Z" transform="translate(-315.412 -221.873)" fill="#206897"/>
      <path id="Trazado_200225" data-name="Trazado 200225" d="M0,0H2.653V2.653H0Z" fill="#206897"/>
      <path id="Trazado_200226" data-name="Trazado 200226" d="M0,32H2.653V51.9H0Z" transform="translate(0 -26.693)" fill="#206897"/>
      <path id="Trazado_200227" data-name="Trazado 200227" d="M32,0h2.653V13.267H32Z" transform="translate(-26.693)" fill="#206897"/>
      <path id="Trazado_200228" data-name="Trazado 200228" d="M64,0h2.653V7.96H64Z" transform="translate(-53.387)" fill="#206897"/>
      <path id="Trazado_200229" data-name="Trazado 200229" d="M64,64h2.653v2.653H64Z" transform="translate(-53.387 -53.387)" fill="#206897"/>
      <path id="Trazado_200230" data-name="Trazado 200230" d="M480,0h2.653V2.653H480Z" transform="translate(-402.653)" fill="#206897"/>
      <path id="Trazado_200231" data-name="Trazado 200231" d="M480,32h2.653V51.9H480Z" transform="translate(-402.653 -26.693)" fill="#206897"/>
      <path id="Trazado_200232" data-name="Trazado 200232" d="M448,0h2.653V13.267H448Z" transform="translate(-375.96)" fill="#206897"/>
      <path id="Trazado_200233" data-name="Trazado 200233" d="M416,0h2.653V7.96H416Z" transform="translate(-349.267)" fill="#206897"/>
      <path id="Trazado_200234" data-name="Trazado 200234" d="M416,64h2.653v2.653H416Z" transform="translate(-349.267 -53.387)" fill="#206897"/>
    </g>
  </g>
</svg>
