<svg xmlns="http://www.w3.org/2000/svg" width="1030" height="717.968" viewBox="0 0 1030 717.968">
  <g id="Grupo_148455" data-name="Grupo 148455" transform="translate(9438 4203.968)">
    <g id="Grupo_148466" data-name="Grupo 148466" transform="translate(-9723 -6489.969)">
      <g id="Grupo_129081" data-name="Grupo 129081" transform="translate(471 -959)">
        <circle id="Elipse_4800" data-name="Elipse 4800" cx="27" cy="27" r="27" transform="translate(55 3538)" fill="#f40b74" opacity="0.5"/>
        <circle id="Elipse_4801" data-name="Elipse 4801" cx="15" cy="15" r="15" transform="translate(67 3550)" fill="#f40b74"/>
      </g>
      <g id="Grupo_129082" data-name="Grupo 129082" transform="translate(806 -959)">
        <circle id="Elipse_4800-2" data-name="Elipse 4800" cx="27" cy="27" r="27" transform="translate(55 3538)" fill="#f40b74" opacity="0.5"/>
        <circle id="Elipse_4801-2" data-name="Elipse 4801" cx="15" cy="15" r="15" transform="translate(67 3550)" fill="#f40b74"/>
      </g>
      <g id="Grupo_111842" data-name="Grupo 111842" transform="translate(87.943 1441.537)">
        <ellipse id="Elipse_5763" data-name="Elipse 5763" cx="374.045" cy="272.532" rx="374.045" ry="272.532" transform="translate(344.807 910.249)" fill="#e6eef3"/>
        <rect id="Rectángulo_293073" data-name="Rectángulo 293073" width="240.887" height="57.848" transform="translate(269.751 1108.598)" fill="#fcbc77"/>
        <rect id="Rectángulo_293074" data-name="Rectángulo 293074" width="245.168" height="57.848" transform="translate(589.698 1108.598)" fill="#fcbc77"/>
        <rect id="Rectángulo_293075" data-name="Rectángulo 293075" width="240.887" height="57.848" transform="translate(918.209 1108.598)" fill="#fcbc77"/>
        <path id="Trazado_117863" data-name="Trazado 117863" d="M478.5,1064.087l-12.1-6.988v6.988H453.648v13.975H466.4v6.987l12.1-6.987,12.1-6.988Z" transform="translate(80.184 66.448)" fill="#83abc5"/>
        <path id="Trazado_117864" data-name="Trazado 117864" d="M725.532,1064.087l-12.1-6.988v6.988H700.681v13.975h12.748v6.987l12.1-6.987,12.1-6.988Z" transform="translate(157.38 66.448)" fill="#83abc5"/>
        <circle id="Elipse_5764" data-name="Elipse 5764" cx="40.148" cy="40.148" r="40.148" transform="translate(556.759 1210.61)" fill="#83abc5"/>
        <circle id="Elipse_5765" data-name="Elipse 5765" cx="40.148" cy="40.148" r="40.148" transform="translate(674.275 1317.312)" fill="#83abc5"/>
        <circle id="Elipse_5766" data-name="Elipse 5766" cx="40.148" cy="40.148" r="40.148" transform="translate(794.719 1210.61)" fill="#83abc5"/>
        <circle id="Elipse_5767" data-name="Elipse 5767" cx="40.148" cy="40.148" r="40.148" transform="translate(556.759 984.138)" fill="#83abc5"/>
        <circle id="Elipse_5768" data-name="Elipse 5768" cx="40.148" cy="40.148" r="40.148" transform="translate(674.275 984.138)" fill="#83abc5"/>
        <rect id="Rectángulo_293076" data-name="Rectángulo 293076" width="53.009" height="53.009" transform="translate(808.362 1042.708)" fill="#f977b2"/>
        <rect id="Rectángulo_293077" data-name="Rectángulo 293077" width="53.009" height="53.009" transform="translate(808.362 948.196)" fill="#f977b2"/>
        <rect id="Rectángulo_293078" data-name="Rectángulo 293078" width="29.678" height="29.678" transform="translate(953.583 1036.363)" fill="#fcbc77"/>
        <rect id="Rectángulo_293079" data-name="Rectángulo 293079" width="29.678" height="29.678" transform="translate(915.834 1007.82)" fill="#fcbc77"/>
        <rect id="Rectángulo_293080" data-name="Rectángulo 293080" width="29.678" height="29.678" transform="translate(915.834 1066.04)" fill="#fcbc77"/>
        <line id="Línea_698" data-name="Línea 698" y1="44.164" transform="translate(596.907 1064.434)" fill="#f977b2" stroke="#1a2e35" stroke-miterlimit="10" stroke-width="0.604"/>
        <line id="Línea_699" data-name="Línea 699" x2="36.459" transform="translate(637.054 1024.286)" fill="#f977b2" stroke="#1a2e35" stroke-miterlimit="10" stroke-width="0.604"/>
        <line id="Línea_700" data-name="Línea 700" y1="44.164" transform="translate(714.423 1064.434)" fill="#f977b2" stroke="#1a2e35" stroke-miterlimit="10" stroke-width="0.604"/>
        <path id="Trazado_117865" data-name="Trazado 117865" d="M621.831,993.278h23.551V943.692h30.239" transform="translate(132.74 31.009)" fill="none" stroke="#1a2e35" stroke-miterlimit="10" stroke-width="0.604"/>
        <path id="Trazado_117866" data-name="Trazado 117866" d="M639.775,981.472V1026.4h30.239" transform="translate(138.347 42.815)" fill="none" stroke="#1a2e35" stroke-miterlimit="10" stroke-width="0.604"/>
        <path id="Trazado_117867" data-name="Trazado 117867" d="M703.2,1015.7h23.278v11.666h31.185" transform="translate(158.168 53.511)" fill="none" stroke="#1a2e35" stroke-miterlimit="10" stroke-width="0.604"/>
        <path id="Trazado_117868" data-name="Trazado 117868" d="M752.124,980.231H720.938v46.554" transform="translate(163.711 42.427)" fill="none" stroke="#1a2e35" stroke-miterlimit="10" stroke-width="0.604"/>
        <line id="Línea_701" data-name="Línea 701" x2="68.934" transform="translate(884.649 1051.201)" fill="none" stroke="#1a2e35" stroke-miterlimit="10" stroke-width="0.604"/>
        <line id="Línea_702" data-name="Línea 702" y2="44.164" transform="translate(596.907 1166.446)" fill="#f977b2" stroke="#1a2e35" stroke-miterlimit="10" stroke-width="0.604"/>
        <path id="Trazado_117869" data-name="Trazado 117869" d="M501.705,1184.611v66.554h77.369" transform="translate(95.201 106.295)" fill="none" stroke="#1a2e35" stroke-miterlimit="10" stroke-width="0.604"/>
        <path id="Trazado_117870" data-name="Trazado 117870" d="M621.831,1251.165h80.3v-66.554" transform="translate(132.74 106.295)" fill="none" stroke="#1a2e35" stroke-miterlimit="10" stroke-width="0.604"/>
        <line id="Línea_703" data-name="Línea 703" x1="157.664" transform="translate(637.054 1250.758)" fill="none" stroke="#1a2e35" stroke-miterlimit="10" stroke-width="0.604"/>
        <rect id="Rectángulo_293081" data-name="Rectángulo 293081" width="240.887" height="57.848" transform="translate(322.53 1364.323)" fill="#fef2e4"/>
        <rect id="Rectángulo_293082" data-name="Rectángulo 293082" width="240.887" height="57.848" transform="translate(589.698 1422.172)" fill="#fef2e4"/>
        <path id="Trazado_117871" data-name="Trazado 117871" d="M842.5,1260.71l-95.3,60.31,95.3,60.31,95.3-60.31Z" transform="translate(171.917 130.075)" fill="#fef2e4"/>
        <rect id="Rectángulo_293083" data-name="Rectángulo 293083" width="221.034" height="57.848" transform="translate(1006.022 1249.692)" fill="#fef2e4"/>
        <path id="Trazado_117872" data-name="Trazado 117872" d="M892.419,1340.84h28V1197.285" transform="translate(217.298 110.255)" fill="none" stroke="#1a2e35" stroke-miterlimit="10" stroke-width="0.604"/>
        <line id="Línea_704" data-name="Línea 704" x2="88.531" transform="translate(830.585 1451.095)" fill="none" stroke="#1a2e35" stroke-miterlimit="10" stroke-width="0.604"/>
        <rect id="Rectángulo_293084" data-name="Rectángulo 293084" width="240.887" height="57.848" transform="translate(202.087 1249.692)" fill="#fef2e4"/>
        <path id="Trazado_117873" data-name="Trazado 117873" d="M250.981,1197.285v85.708h54.7" transform="translate(16.851 110.255)" fill="none" stroke="#1a2e35" stroke-miterlimit="10" stroke-width="0.604"/>
        <path id="Trazado_117874" data-name="Trazado 117874" d="M220.684,1197.285v143.555h361.63" transform="translate(7.384 110.255)" fill="none" stroke="#1a2e35" stroke-miterlimit="10" stroke-width="0.604"/>
        <rect id="Rectángulo_293085" data-name="Rectángulo 293085" width="411.386" height="57.848" transform="translate(504.449 1504.583)" fill="#fcbc77"/>
        <path id="Trazado_117875" data-name="Trazado 117875" d="M445.433,1456.845H385.91V1089.784" transform="translate(59.016 76.662)" fill="none" stroke="#1a2e35" stroke-miterlimit="10" stroke-width="0.604"/>
        <path id="Trazado_117876" data-name="Trazado 117876" d="M746.508,1456.845H811.56V1089.784" transform="translate(171.701 76.662)" fill="none" stroke="#1a2e35" stroke-miterlimit="10" stroke-width="0.604"/>
        <path id="Trazado_117877" data-name="Trazado 117877" d="M319.189,888.538,197.057,955.563l122.132,67.026,122.132-67.026Z" transform="translate(0 13.773)" fill="#fef2e4"/>
        <line id="Línea_705" data-name="Línea 705" y1="256.943" transform="translate(244.287 992.749)" fill="none" stroke="#1a2e35" stroke-miterlimit="10" stroke-width="0.604"/>
        <line id="Línea_706" data-name="Línea 706" y1="51.351" transform="translate(395.315 994.585)" fill="none" stroke="#1a2e35" stroke-miterlimit="10" stroke-width="0.604"/>
        <rect id="Rectángulo_293086" data-name="Rectángulo 293086" width="239.242" height="57.848" transform="translate(470.077 844.463)" fill="#528aae"/>
        <path id="Trazado_117878" data-name="Trazado 117878" d="M348.111,937.2V866.5h74.762" transform="translate(47.204 6.887)" fill="none" stroke="#1a2e35" stroke-miterlimit="10" stroke-width="0.604"/>
        <path id="Trazado_117879" data-name="Trazado 117879" d="M429.906,905.538l-6.988,12.1h6.988v12.748h13.975V917.641h6.988l-6.988-12.1-6.988-12.1Z" transform="translate(70.581 15.303)" fill="#83abc5"/>
        <path id="Trazado_202234" data-name="Trazado 202234" d="M1.292,0H2.771V-4.59a5.091,5.091,0,0,0,1.19.1,4.747,4.747,0,0,0,3.5-1.258,3.373,3.373,0,0,0,.884-2.448,3.08,3.08,0,0,0-1-2.4,4.707,4.707,0,0,0-3.213-.952,17.142,17.142,0,0,0-2.839.221ZM2.771-10.251a6.207,6.207,0,0,1,1.394-.119c1.632,0,2.7.731,2.7,2.244C6.868-6.545,5.78-5.678,4-5.678A4.96,4.96,0,0,1,2.771-5.8ZM10.013,0h1.479V-4.386a4.211,4.211,0,0,1,.068-.7A2.1,2.1,0,0,1,13.566-7a2.247,2.247,0,0,1,.51.051V-8.364a1.618,1.618,0,0,0-.425-.051,2.469,2.469,0,0,0-2.278,1.8h-.068l-.051-1.615H9.945c.051.765.068,1.6.068,2.567Zm8.874-8.415a4.018,4.018,0,0,0-4.08,4.369A3.912,3.912,0,0,0,18.751.187a4.021,4.021,0,0,0,4.1-4.369A3.9,3.9,0,0,0,18.887-8.415Zm-.034,1.122c1.768,0,2.465,1.768,2.465,3.162,0,1.853-1.071,3.2-2.5,3.2-1.462,0-2.5-1.36-2.5-3.162C16.32-5.661,17.085-7.293,18.853-7.293ZM23.6-8.228,26.724,0h1.428l3.23-8.228H29.818L28.22-3.6c-.272.748-.51,1.428-.7,2.108h-.051A21.16,21.16,0,0,0,26.809-3.6L25.194-8.228Zm15.64,4.386a5.642,5.642,0,0,0,.051-.7c0-1.513-.714-3.876-3.4-3.876-2.4,0-3.859,1.955-3.859,4.437A3.821,3.821,0,0,0,36.074.17a6.664,6.664,0,0,0,2.737-.51l-.255-1.071a5.41,5.41,0,0,1-2.278.425,2.636,2.636,0,0,1-2.822-2.856ZM33.473-4.913a2.479,2.479,0,0,1,2.295-2.431,2.13,2.13,0,0,1,2.074,2.431Zm14.28,1.071a5.642,5.642,0,0,0,.051-.7c0-1.513-.714-3.876-3.4-3.876-2.4,0-3.859,1.955-3.859,4.437A3.821,3.821,0,0,0,44.591.17a6.664,6.664,0,0,0,2.737-.51l-.255-1.071A5.41,5.41,0,0,1,44.8-.986a2.636,2.636,0,0,1-2.822-2.856ZM41.99-4.913a2.479,2.479,0,0,1,2.3-2.431,2.13,2.13,0,0,1,2.074,2.431ZM55.267-12.07v4.913h-.034a2.751,2.751,0,0,0-2.482-1.258c-2.006,0-3.706,1.683-3.689,4.42,0,2.5,1.53,4.182,3.519,4.182a3.044,3.044,0,0,0,2.805-1.615h.034L55.488,0h1.343c-.051-.561-.068-1.394-.068-2.125V-12.07Zm0,8.619a2.6,2.6,0,0,1-.068.646A2.249,2.249,0,0,1,53.006-1.02c-1.615,0-2.431-1.377-2.431-3.043,0-1.819.918-3.179,2.465-3.179A2.2,2.2,0,0,1,55.2-5.508a2.641,2.641,0,0,1,.068.629ZM62.73-8.415a4.018,4.018,0,0,0-4.08,4.369A3.912,3.912,0,0,0,62.594.187a4.021,4.021,0,0,0,4.1-4.369A3.9,3.9,0,0,0,62.73-8.415ZM62.7-7.293c1.768,0,2.465,1.768,2.465,3.162,0,1.853-1.071,3.2-2.5,3.2-1.462,0-2.5-1.36-2.5-3.162C60.163-5.661,60.928-7.293,62.7-7.293ZM68.578,0h1.479V-4.386a4.21,4.21,0,0,1,.068-.7A2.1,2.1,0,0,1,72.131-7a2.247,2.247,0,0,1,.51.051V-8.364a1.618,1.618,0,0,0-.425-.051,2.469,2.469,0,0,0-2.278,1.8H69.87l-.051-1.615H68.51c.051.765.068,1.6.068,2.567Zm12-3.842a5.641,5.641,0,0,0,.051-.7c0-1.513-.714-3.876-3.4-3.876-2.4,0-3.859,1.955-3.859,4.437A3.821,3.821,0,0,0,77.418.17a6.664,6.664,0,0,0,2.737-.51L79.9-1.411a5.41,5.41,0,0,1-2.278.425A2.636,2.636,0,0,1,74.8-3.842ZM74.817-4.913a2.479,2.479,0,0,1,2.295-2.431,2.13,2.13,0,0,1,2.074,2.431ZM81.906-.391A4.692,4.692,0,0,0,84.218.17C86.173.17,87.3-.85,87.3-2.3c0-1.224-.731-1.938-2.159-2.482-1.071-.408-1.564-.714-1.564-1.394,0-.612.493-1.122,1.377-1.122a3.2,3.2,0,0,1,1.683.476l.374-1.088a4.107,4.107,0,0,0-2.023-.51A2.538,2.538,0,0,0,82.144-6c0,.986.7,1.8,2.176,2.329,1.1.408,1.53.8,1.53,1.513,0,.68-.51,1.224-1.6,1.224a3.921,3.921,0,0,1-1.972-.6Z" transform="translate(269.751 973.263)"/>
        <path id="Trazado_202235" data-name="Trazado 202235" d="M7.225-6.6H2.771v-3.621H7.48v-1.241H1.292V0H7.735V-1.241H2.771V-5.372H7.225ZM9.605,0h1.5V-4.947a2.151,2.151,0,0,1,.1-.7,2.125,2.125,0,0,1,2.006-1.53c1.411,0,1.9,1.105,1.9,2.431V0h1.5V-4.913c0-2.822-1.768-3.5-2.907-3.5a3.026,3.026,0,0,0-2.72,1.547h-.034l-.085-1.36H9.537c.051.68.068,1.377.068,2.227Zm9.707-10.2v1.972H18.037v1.139h1.275V-2.6A3.048,3.048,0,0,0,19.89-.459,2.073,2.073,0,0,0,21.505.17a3.662,3.662,0,0,0,1.326-.2l-.068-1.122a3.328,3.328,0,0,1-.867.1c-.833,0-1.122-.578-1.122-1.6V-7.089h2.142V-8.228H20.774v-2.363Zm8.67,1.785A4.018,4.018,0,0,0,23.9-4.046,3.912,3.912,0,0,0,27.846.187a4.021,4.021,0,0,0,4.1-4.369A3.9,3.9,0,0,0,27.982-8.415Zm-.034,1.122c1.768,0,2.465,1.768,2.465,3.162,0,1.853-1.071,3.2-2.5,3.2-1.462,0-2.5-1.36-2.5-3.162C25.415-5.661,26.18-7.293,27.948-7.293ZM33.83,0h1.479V-4.386a4.211,4.211,0,0,1,.068-.7A2.1,2.1,0,0,1,37.383-7a2.247,2.247,0,0,1,.51.051V-8.364a1.618,1.618,0,0,0-.425-.051,2.469,2.469,0,0,0-2.278,1.8h-.068l-.051-1.615H33.762c.051.765.068,1.6.068,2.567Zm5.627,0h1.5V-4.947a2.151,2.151,0,0,1,.1-.7,2.125,2.125,0,0,1,2.006-1.53c1.411,0,1.9,1.105,1.9,2.431V0h1.5V-4.913c0-2.822-1.768-3.5-2.907-3.5a3.026,3.026,0,0,0-2.72,1.547H40.8l-.085-1.36H39.389c.051.68.068,1.377.068,2.227Zm12.92-8.415A4.018,4.018,0,0,0,48.3-4.046,3.912,3.912,0,0,0,52.241.187a4.021,4.021,0,0,0,4.1-4.369A3.9,3.9,0,0,0,52.377-8.415Zm-.034,1.122c1.768,0,2.465,1.768,2.465,3.162,0,1.853-1.071,3.2-2.5,3.2-1.462,0-2.5-1.36-2.5-3.162C49.81-5.661,50.575-7.293,52.343-7.293Z" transform="translate(556.086 878.569)"/>
        <path id="Trazado_202224" data-name="Trazado 202224" d="M7.225-6.6H2.771v-3.621H7.48v-1.241H1.292V0H7.735V-1.241H2.771V-5.372H7.225ZM9.605,0h1.5V-4.947a2.151,2.151,0,0,1,.1-.7,2.125,2.125,0,0,1,2.006-1.53c1.411,0,1.9,1.105,1.9,2.431V0h1.5V-4.913c0-2.822-1.768-3.5-2.907-3.5a3.026,3.026,0,0,0-2.72,1.547h-.034l-.085-1.36H9.537c.051.68.068,1.377.068,2.227Zm9.707-10.2v1.972H18.037v1.139h1.275V-2.6A3.048,3.048,0,0,0,19.89-.459,2.073,2.073,0,0,0,21.505.17a3.662,3.662,0,0,0,1.326-.2l-.068-1.122a3.328,3.328,0,0,1-.867.1c-.833,0-1.122-.578-1.122-1.6V-7.089h2.142V-8.228H20.774v-2.363ZM24.6,0h1.479V-4.386a4.211,4.211,0,0,1,.068-.7A2.1,2.1,0,0,1,28.152-7a2.247,2.247,0,0,1,.51.051V-8.364a1.618,1.618,0,0,0-.425-.051,2.469,2.469,0,0,0-2.278,1.8h-.068L25.84-8.228H24.531c.051.765.068,1.6.068,2.567Zm11.39,0a11.585,11.585,0,0,1-.136-1.972V-5.049c0-1.649-.612-3.366-3.128-3.366a5.106,5.106,0,0,0-2.7.731l.34.986A4.1,4.1,0,0,1,32.5-7.31a1.7,1.7,0,0,1,1.87,1.9v.17c-3.179-.017-4.947,1.071-4.947,3.06A2.344,2.344,0,0,0,31.943.187a3.065,3.065,0,0,0,2.516-1.224h.051L34.629,0ZM34.408-2.771a1.561,1.561,0,0,1-.085.476A2.047,2.047,0,0,1,32.334-.918a1.324,1.324,0,0,1-1.411-1.428c0-1.6,1.853-1.887,3.485-1.853Zm9.469-9.3v4.913h-.034a2.751,2.751,0,0,0-2.482-1.258c-2.006,0-3.706,1.683-3.689,4.42,0,2.5,1.53,4.182,3.519,4.182A3.044,3.044,0,0,0,44-1.428h.034L44.1,0h1.343c-.051-.561-.068-1.394-.068-2.125V-12.07Zm0,8.619a2.6,2.6,0,0,1-.068.646A2.249,2.249,0,0,1,41.616-1.02C40-1.02,39.185-2.4,39.185-4.063c0-1.819.918-3.179,2.465-3.179a2.2,2.2,0,0,1,2.159,1.734,2.641,2.641,0,0,1,.068.629ZM53.771,0a11.585,11.585,0,0,1-.136-1.972V-5.049c0-1.649-.612-3.366-3.128-3.366a5.107,5.107,0,0,0-2.7.731l.34.986a4.1,4.1,0,0,1,2.142-.612,1.7,1.7,0,0,1,1.87,1.9v.17c-3.179-.017-4.947,1.071-4.947,3.06A2.344,2.344,0,0,0,49.725.187a3.065,3.065,0,0,0,2.516-1.224h.051L52.411,0ZM52.19-2.771a1.561,1.561,0,0,1-.085.476A2.047,2.047,0,0,1,50.116-.918a1.324,1.324,0,0,1-1.411-1.428c0-1.6,1.853-1.887,3.485-1.853Zm3.281,2.38A4.692,4.692,0,0,0,57.783.17C59.738.17,60.86-.85,60.86-2.3c0-1.224-.731-1.938-2.159-2.482-1.071-.408-1.564-.714-1.564-1.394,0-.612.493-1.122,1.377-1.122a3.2,3.2,0,0,1,1.683.476l.374-1.088a4.107,4.107,0,0,0-2.023-.51A2.538,2.538,0,0,0,55.709-6c0,.986.7,1.8,2.176,2.329,1.1.408,1.53.8,1.53,1.513,0,.68-.51,1.224-1.6,1.224a3.921,3.921,0,0,1-1.972-.6Z" transform="translate(344.961 1142.924)"/>
        <path id="Trazado_202225" data-name="Trazado 202225" d="M1.292,0H2.771V-4.59a5.091,5.091,0,0,0,1.19.1,4.747,4.747,0,0,0,3.5-1.258,3.373,3.373,0,0,0,.884-2.448,3.08,3.08,0,0,0-1-2.4,4.707,4.707,0,0,0-3.213-.952,17.142,17.142,0,0,0-2.839.221ZM2.771-10.251a6.207,6.207,0,0,1,1.394-.119c1.632,0,2.7.731,2.7,2.244C6.868-6.545,5.78-5.678,4-5.678A4.96,4.96,0,0,1,2.771-5.8ZM10.013,0h1.479V-4.386a4.211,4.211,0,0,1,.068-.7A2.1,2.1,0,0,1,13.566-7a2.247,2.247,0,0,1,.51.051V-8.364a1.618,1.618,0,0,0-.425-.051,2.469,2.469,0,0,0-2.278,1.8h-.068l-.051-1.615H9.945c.051.765.068,1.6.068,2.567Zm8.874-8.415a4.018,4.018,0,0,0-4.08,4.369A3.912,3.912,0,0,0,18.751.187a4.021,4.021,0,0,0,4.1-4.369A3.9,3.9,0,0,0,18.887-8.415Zm-.034,1.122c1.768,0,2.465,1.768,2.465,3.162,0,1.853-1.071,3.2-2.5,3.2-1.462,0-2.5-1.36-2.5-3.162C16.32-5.661,17.085-7.293,18.853-7.293ZM30.345-1.428a4.25,4.25,0,0,1-1.836.408A2.821,2.821,0,0,1,25.653-4.1,2.847,2.847,0,0,1,28.56-7.208a3.469,3.469,0,0,1,1.734.391l.34-1.156A5,5,0,0,0,28.56-8.4a4.181,4.181,0,0,0-4.42,4.369,3.909,3.909,0,0,0,4.1,4.2A5.51,5.51,0,0,0,30.6-.306Zm8.517-2.414a5.642,5.642,0,0,0,.051-.7c0-1.513-.714-3.876-3.4-3.876-2.4,0-3.859,1.955-3.859,4.437A3.821,3.821,0,0,0,35.7.17a6.664,6.664,0,0,0,2.737-.51l-.255-1.071A5.41,5.41,0,0,1,35.9-.986a2.636,2.636,0,0,1-2.822-2.856ZM33.1-4.913a2.479,2.479,0,0,1,2.295-2.431,2.13,2.13,0,0,1,2.074,2.431ZM40.188-.391A4.692,4.692,0,0,0,42.5.17c1.955,0,3.077-1.02,3.077-2.465,0-1.224-.731-1.938-2.159-2.482-1.071-.408-1.564-.714-1.564-1.394,0-.612.493-1.122,1.377-1.122a3.2,3.2,0,0,1,1.683.476l.374-1.088a4.107,4.107,0,0,0-2.023-.51A2.538,2.538,0,0,0,40.426-6c0,.986.7,1.8,2.176,2.329,1.1.408,1.53.8,1.53,1.513,0,.68-.51,1.224-1.6,1.224a3.921,3.921,0,0,1-1.972-.6Zm10.8-8.024A4.018,4.018,0,0,0,46.9-4.046,3.912,3.912,0,0,0,50.847.187a4.021,4.021,0,0,0,4.1-4.369A3.9,3.9,0,0,0,50.983-8.415Zm-.034,1.122c1.768,0,2.465,1.768,2.465,3.162,0,1.853-1.071,3.2-2.5,3.2-1.462,0-2.5-1.36-2.5-3.162C48.416-5.661,49.181-7.293,50.949-7.293Z" transform="translate(685.633 1142.924)"/>
        <path id="Trazado_202226" data-name="Trazado 202226" d="M.714-.561A5.921,5.921,0,0,0,3.638.17c2.7,0,4.012-1.53,4.012-3.3,0-1.683-.986-2.618-2.924-3.366C3.145-7.106,2.448-7.633,2.448-8.7c0-.782.595-1.717,2.159-1.717a4.563,4.563,0,0,1,2.176.544l.408-1.207a5.206,5.206,0,0,0-2.533-.561c-2.227,0-3.706,1.326-3.706,3.111,0,1.615,1.156,2.584,3.026,3.247,1.547.595,2.159,1.207,2.159,2.278,0,1.156-.884,1.955-2.4,1.955A5.241,5.241,0,0,1,1.088-1.8ZM15.589,0a11.585,11.585,0,0,1-.136-1.972V-5.049c0-1.649-.612-3.366-3.128-3.366a5.107,5.107,0,0,0-2.7.731l.34.986A4.1,4.1,0,0,1,12.1-7.31a1.7,1.7,0,0,1,1.87,1.9v.17C10.8-5.253,9.027-4.165,9.027-2.176A2.344,2.344,0,0,0,11.543.187a3.065,3.065,0,0,0,2.516-1.224h.051L14.229,0ZM14.008-2.771a1.561,1.561,0,0,1-.085.476A2.047,2.047,0,0,1,11.934-.918a1.324,1.324,0,0,1-1.411-1.428c0-1.6,1.853-1.887,3.485-1.853ZM17.867,0h1.5V-12.07h-1.5Zm5.508,0V-8.228h-1.5V0Zm-.748-11.475a.912.912,0,0,0-.935.935.89.89,0,0,0,.9.918.883.883,0,0,0,.952-.918A.888.888,0,0,0,22.627-11.475Zm8.84-.6v4.913h-.034a2.751,2.751,0,0,0-2.482-1.258c-2.006,0-3.706,1.683-3.689,4.42,0,2.5,1.53,4.182,3.519,4.182a3.044,3.044,0,0,0,2.805-1.615h.034L31.688,0h1.343c-.051-.561-.068-1.394-.068-2.125V-12.07Zm0,8.619a2.6,2.6,0,0,1-.068.646A2.249,2.249,0,0,1,29.206-1.02c-1.615,0-2.431-1.377-2.431-3.043,0-1.819.918-3.179,2.465-3.179A2.2,2.2,0,0,1,31.4-5.508a2.641,2.641,0,0,1,.068.629ZM41.361,0a11.585,11.585,0,0,1-.136-1.972V-5.049c0-1.649-.612-3.366-3.128-3.366a5.107,5.107,0,0,0-2.7.731l.34.986a4.1,4.1,0,0,1,2.142-.612,1.7,1.7,0,0,1,1.87,1.9v.17C36.567-5.253,34.8-4.165,34.8-2.176A2.344,2.344,0,0,0,37.315.187a3.065,3.065,0,0,0,2.516-1.224h.051L40,0ZM39.78-2.771A1.561,1.561,0,0,1,39.7-2.3,2.047,2.047,0,0,1,37.706-.918,1.324,1.324,0,0,1,36.3-2.346c0-1.6,1.853-1.887,3.485-1.853Zm3.281,2.38A4.692,4.692,0,0,0,45.373.17C47.328.17,48.45-.85,48.45-2.3c0-1.224-.731-1.938-2.159-2.482-1.071-.408-1.564-.714-1.564-1.394,0-.612.493-1.122,1.377-1.122a3.2,3.2,0,0,1,1.683.476l.374-1.088a4.107,4.107,0,0,0-2.023-.51A2.538,2.538,0,0,0,43.3-6c0,.986.7,1.8,2.176,2.329,1.1.408,1.53.8,1.53,1.513,0,.68-.51,1.224-1.6,1.224a3.921,3.921,0,0,1-1.972-.6Z" transform="translate(1009.661 1142.924)"/>
        <path id="Trazado_202223" data-name="Trazado 202223" d="M8.993-1.547a5.92,5.92,0,0,1-2.414.476c-2.788,0-4.4-1.8-4.4-4.607,0-3.009,1.785-4.726,4.471-4.726a5.387,5.387,0,0,1,2.312.476l.357-1.207a6.142,6.142,0,0,0-2.72-.51A5.7,5.7,0,0,0,.612-5.627C.612-1.87,3.043.17,6.273.17A7.342,7.342,0,0,0,9.3-.374ZM14.4-8.415a4.018,4.018,0,0,0-4.08,4.369A3.912,3.912,0,0,0,14.263.187a4.021,4.021,0,0,0,4.1-4.369A3.9,3.9,0,0,0,14.4-8.415Zm-.034,1.122c1.768,0,2.465,1.768,2.465,3.162,0,1.853-1.071,3.2-2.5,3.2-1.462,0-2.5-1.36-2.5-3.162C11.832-5.661,12.6-7.293,14.365-7.293ZM20.247,0h1.462V-4.964a2.062,2.062,0,0,1,.119-.731,2.044,2.044,0,0,1,1.853-1.5c1.139,0,1.717.952,1.717,2.261V0H26.86V-5.083a2.464,2.464,0,0,1,.119-.748,1.937,1.937,0,0,1,1.768-1.36c1.207,0,1.785.952,1.785,2.533V0h1.462V-4.845c0-2.856-1.615-3.57-2.7-3.57a2.808,2.808,0,0,0-1.819.578,3.389,3.389,0,0,0-.918,1.071H26.52a2.432,2.432,0,0,0-2.329-1.649A2.836,2.836,0,0,0,21.607-6.9h-.051l-.068-1.326H20.179c.051.68.068,1.377.068,2.227ZM34.425,3.366H35.9V-1.105h.034A2.885,2.885,0,0,0,38.471.187c1.938,0,3.74-1.462,3.74-4.42,0-2.5-1.5-4.182-3.485-4.182a3.235,3.235,0,0,0-2.924,1.6h-.034L35.7-8.228H34.357c.034.782.068,1.632.068,2.686ZM35.9-4.76a2.426,2.426,0,0,1,.1-.612,2.387,2.387,0,0,1,2.261-1.853c1.581,0,2.448,1.411,2.448,3.06,0,1.887-.918,3.179-2.5,3.179a2.308,2.308,0,0,1-2.244-1.751,3.369,3.369,0,0,1-.068-.612ZM44.1,0h1.479V-4.386a4.211,4.211,0,0,1,.068-.7A2.1,2.1,0,0,1,47.651-7a2.247,2.247,0,0,1,.51.051V-8.364a1.618,1.618,0,0,0-.425-.051,2.469,2.469,0,0,0-2.278,1.8H45.39l-.051-1.615H44.03c.051.765.068,1.6.068,2.567Zm11.39,0a11.585,11.585,0,0,1-.136-1.972V-5.049c0-1.649-.612-3.366-3.128-3.366a5.107,5.107,0,0,0-2.7.731l.34.986A4.1,4.1,0,0,1,52-7.31a1.7,1.7,0,0,1,1.87,1.9v.17c-3.179-.017-4.947,1.071-4.947,3.06A2.344,2.344,0,0,0,51.442.187a3.065,3.065,0,0,0,2.516-1.224h.051L54.128,0ZM53.907-2.771a1.561,1.561,0,0,1-.085.476A2.047,2.047,0,0,1,51.833-.918a1.324,1.324,0,0,1-1.411-1.428c0-1.6,1.853-1.887,3.485-1.853Zm3.281,2.38A4.692,4.692,0,0,0,59.5.17c1.955,0,3.077-1.02,3.077-2.465,0-1.224-.731-1.938-2.159-2.482-1.071-.408-1.564-.714-1.564-1.394,0-.612.493-1.122,1.377-1.122a3.2,3.2,0,0,1,1.683.476l.374-1.088a4.107,4.107,0,0,0-2.023-.51A2.538,2.538,0,0,0,57.426-6c0,.986.7,1.8,2.176,2.329,1.1.408,1.53.8,1.53,1.513,0,.68-.51,1.224-1.6,1.224a3.921,3.921,0,0,1-1.972-.6Z" transform="translate(276.092 1284.995)"/>
        <path id="Trazado_202222" data-name="Trazado 202222" d="M7.208-3.6,8.432,0h1.581L6.1-11.458H4.318L.425,0h1.53l1.19-3.6ZM3.451-4.76,4.573-8.075c.221-.7.408-1.394.578-2.074h.034c.17.663.34,1.343.6,2.091L6.9-4.76Zm13.6-7.31v4.913h-.034a2.751,2.751,0,0,0-2.482-1.258c-2.006,0-3.706,1.683-3.689,4.42,0,2.5,1.53,4.182,3.519,4.182A3.044,3.044,0,0,0,17.17-1.428H17.2L17.272,0h1.343c-.051-.561-.068-1.394-.068-2.125V-12.07Zm0,8.619a2.6,2.6,0,0,1-.068.646A2.249,2.249,0,0,1,14.79-1.02c-1.615,0-2.431-1.377-2.431-3.043,0-1.819.918-3.179,2.465-3.179a2.2,2.2,0,0,1,2.159,1.734,2.641,2.641,0,0,1,.068.629ZM21.029,0h1.462V-4.964A2.062,2.062,0,0,1,22.61-5.7a2.044,2.044,0,0,1,1.853-1.5c1.139,0,1.717.952,1.717,2.261V0h1.462V-5.083a2.464,2.464,0,0,1,.119-.748,1.937,1.937,0,0,1,1.768-1.36c1.207,0,1.785.952,1.785,2.533V0h1.462V-4.845c0-2.856-1.615-3.57-2.7-3.57a2.808,2.808,0,0,0-1.819.578,3.389,3.389,0,0,0-.918,1.071H27.3a2.432,2.432,0,0,0-2.329-1.649A2.836,2.836,0,0,0,22.389-6.9h-.051L22.27-8.228H20.961c.051.68.068,1.377.068,2.227ZM36.7,0V-8.228h-1.5V0Zm-.748-11.475a.912.912,0,0,0-.935.935.89.89,0,0,0,.9.918.883.883,0,0,0,.952-.918A.888.888,0,0,0,35.955-11.475ZM39.185,0h1.5V-4.947a2.151,2.151,0,0,1,.1-.7,2.125,2.125,0,0,1,2.006-1.53c1.411,0,1.9,1.105,1.9,2.431V0h1.5V-4.913c0-2.822-1.768-3.5-2.907-3.5a3.026,3.026,0,0,0-2.72,1.547h-.034l-.085-1.36H39.117c.051.68.068,1.377.068,2.227ZM50.116,0V-8.228h-1.5V0Zm-.748-11.475a.912.912,0,0,0-.935.935.89.89,0,0,0,.9.918.883.883,0,0,0,.952-.918A.888.888,0,0,0,49.368-11.475ZM52.02-.391A4.692,4.692,0,0,0,54.332.17c1.955,0,3.077-1.02,3.077-2.465,0-1.224-.731-1.938-2.159-2.482-1.071-.408-1.564-.714-1.564-1.394,0-.612.493-1.122,1.377-1.122a3.2,3.2,0,0,1,1.683.476l.374-1.088a4.107,4.107,0,0,0-2.023-.51A2.538,2.538,0,0,0,52.258-6c0,.986.7,1.8,2.176,2.329,1.1.408,1.53.8,1.53,1.513,0,.68-.51,1.224-1.6,1.224a3.921,3.921,0,0,1-1.972-.6ZM59.67-10.2v1.972H58.4v1.139H59.67V-2.6a3.048,3.048,0,0,0,.578,2.142A2.073,2.073,0,0,0,61.863.17a3.662,3.662,0,0,0,1.326-.2l-.068-1.122a3.328,3.328,0,0,1-.867.1c-.833,0-1.122-.578-1.122-1.6V-7.089h2.142V-8.228H61.132v-2.363ZM64.957,0h1.479V-4.386a4.21,4.21,0,0,1,.068-.7A2.1,2.1,0,0,1,68.51-7a2.247,2.247,0,0,1,.51.051V-8.364a1.618,1.618,0,0,0-.425-.051,2.469,2.469,0,0,0-2.278,1.8h-.068L66.2-8.228H64.889c.051.765.068,1.6.068,2.567Zm11.39,0a11.585,11.585,0,0,1-.136-1.972V-5.049c0-1.649-.612-3.366-3.128-3.366a5.106,5.106,0,0,0-2.7.731l.34.986a4.1,4.1,0,0,1,2.142-.612,1.7,1.7,0,0,1,1.87,1.9v.17c-3.179-.017-4.947,1.071-4.947,3.06A2.344,2.344,0,0,0,72.3.187a3.065,3.065,0,0,0,2.516-1.224h.051L74.987,0ZM74.766-2.771a1.561,1.561,0,0,1-.085.476A2.047,2.047,0,0,1,72.692-.918a1.324,1.324,0,0,1-1.411-1.428c0-1.6,1.853-1.887,3.485-1.853Zm9.469,1.343A4.25,4.25,0,0,1,82.4-1.02,2.821,2.821,0,0,1,79.543-4.1,2.847,2.847,0,0,1,82.45-7.208a3.469,3.469,0,0,1,1.734.391l.34-1.156A5,5,0,0,0,82.45-8.4a4.181,4.181,0,0,0-4.42,4.369,3.909,3.909,0,0,0,4.1,4.2A5.51,5.51,0,0,0,84.49-.306ZM87.737,0V-8.228h-1.5V0Zm-.748-11.475a.912.912,0,0,0-.935.935.89.89,0,0,0,.9.918.883.883,0,0,0,.952-.918A.888.888,0,0,0,86.989-11.475ZM93.7-8.415a4.018,4.018,0,0,0-4.08,4.369A3.912,3.912,0,0,0,93.568.187a4.021,4.021,0,0,0,4.1-4.369A3.9,3.9,0,0,0,93.7-8.415ZM93.67-7.293c1.768,0,2.465,1.768,2.465,3.162,0,1.853-1.071,3.2-2.5,3.2-1.462,0-2.5-1.36-2.5-3.162C91.137-5.661,91.9-7.293,93.67-7.293Zm.561-4.488-1.5,2.431h1.071l2.074-2.431ZM99.552,0h1.5V-4.947a2.151,2.151,0,0,1,.1-.7,2.125,2.125,0,0,1,2.006-1.53c1.411,0,1.9,1.105,1.9,2.431V0h1.5V-4.913c0-2.822-1.768-3.5-2.907-3.5a3.026,3.026,0,0,0-2.72,1.547h-.034l-.085-1.36H99.484c.051.68.068,1.377.068,2.227Z" transform="translate(385.439 1396.17)"/>
        <path id="Trazado_202216" data-name="Trazado 202216" d="M10.576,0h1.36l-.672-10.784H9.488L7.568-5.568c-.48,1.36-.864,2.544-1.136,3.632H6.384c-.272-1.12-.64-2.3-1.088-3.632l-1.84-5.216H1.68L.928,0H2.256l.288-4.624c.1-1.616.176-3.424.208-4.768h.032c.3,1.28.736,2.672,1.248,4.192L5.776-.064H6.832L8.736-5.3c.544-1.488.992-2.832,1.36-4.1h.048c-.016,1.344.08,3.152.16,4.656Zm9.776-3.616a5.31,5.31,0,0,0,.048-.656c0-1.424-.672-3.648-3.2-3.648-2.256,0-3.632,1.84-3.632,4.176A3.6,3.6,0,0,0,17.376.16a6.272,6.272,0,0,0,2.576-.48l-.24-1.008a5.092,5.092,0,0,1-2.144.4,2.481,2.481,0,0,1-2.656-2.688ZM14.928-4.624a2.333,2.333,0,0,1,2.16-2.288A2,2,0,0,1,19.04-4.624ZM22.144,0h1.392V-4.128a3.963,3.963,0,0,1,.064-.656,1.975,1.975,0,0,1,1.888-1.808,2.115,2.115,0,0,1,.48.048V-7.872a1.523,1.523,0,0,0-.4-.048,2.323,2.323,0,0,0-2.144,1.7H23.36l-.048-1.52H22.08c.048.72.064,1.5.064,2.416ZM32.5-1.344a4,4,0,0,1-1.728.384,2.655,2.655,0,0,1-2.688-2.9,2.68,2.68,0,0,1,2.736-2.928,3.265,3.265,0,0,1,1.632.368l.32-1.088a4.707,4.707,0,0,0-1.952-.4,3.935,3.935,0,0,0-4.16,4.112A3.679,3.679,0,0,0,30.512.16a5.186,5.186,0,0,0,2.224-.448ZM39.952,0a10.9,10.9,0,0,1-.128-1.856v-2.9c0-1.552-.576-3.168-2.944-3.168a4.806,4.806,0,0,0-2.544.688l.32.928a3.858,3.858,0,0,1,2.016-.576,1.6,1.6,0,0,1,1.76,1.792v.16c-2.992-.016-4.656,1.008-4.656,2.88A2.206,2.206,0,0,0,36.144.176,2.884,2.884,0,0,0,38.512-.976h.048L38.672,0ZM38.464-2.608a1.47,1.47,0,0,1-.08.448,1.927,1.927,0,0,1-1.872,1.3,1.246,1.246,0,0,1-1.328-1.344c0-1.5,1.744-1.776,3.28-1.744Zm8.912-8.752v4.624h-.032A2.589,2.589,0,0,0,45.008-7.92c-1.888,0-3.488,1.584-3.472,4.16,0,2.352,1.44,3.936,3.312,3.936a2.864,2.864,0,0,0,2.64-1.52h.032L47.584,0h1.264c-.048-.528-.064-1.312-.064-2v-9.36Zm0,8.112a2.446,2.446,0,0,1-.064.608A2.117,2.117,0,0,1,45.248-.96c-1.52,0-2.288-1.3-2.288-2.864,0-1.712.864-2.992,2.32-2.992a2.071,2.071,0,0,1,2.032,1.632,2.485,2.485,0,0,1,.064.592Zm9.968-.368a5.31,5.31,0,0,0,.048-.656c0-1.424-.672-3.648-3.2-3.648-2.256,0-3.632,1.84-3.632,4.176A3.6,3.6,0,0,0,54.368.16a6.272,6.272,0,0,0,2.576-.48L56.7-1.328a5.092,5.092,0,0,1-2.144.4A2.481,2.481,0,0,1,51.9-3.616ZM51.92-4.624a2.333,2.333,0,0,1,2.16-2.288,2,2,0,0,1,1.952,2.288Zm10.5-3.3a3.781,3.781,0,0,0-3.84,4.112A3.682,3.682,0,0,0,62.288.176a3.785,3.785,0,0,0,3.856-4.112A3.667,3.667,0,0,0,62.416-7.92Zm-.032,1.056c1.664,0,2.32,1.664,2.32,2.976C64.7-2.144,63.7-.88,62.352-.88,60.976-.88,60-2.16,60-3.856,60-5.328,60.72-6.864,62.384-6.864Z" transform="translate(666.38 1454.462)"/>
        <path id="Trazado_202218" data-name="Trazado 202218" d="M1.292-11.458V0H2.771V-11.458ZM5.474,0h1.5V-4.947a2.151,2.151,0,0,1,.1-.7,2.125,2.125,0,0,1,2.006-1.53c1.411,0,1.9,1.105,1.9,2.431V0h1.5V-4.913c0-2.822-1.768-3.5-2.907-3.5a3.026,3.026,0,0,0-2.72,1.547H6.817l-.085-1.36H5.406c.051.68.068,1.377.068,2.227Zm8.194-8.228L16.8,0h1.428l3.23-8.228H19.89L18.292-3.6c-.272.748-.51,1.428-.7,2.108h-.051A21.16,21.16,0,0,0,16.881-3.6L15.266-8.228ZM22.848.187a1,1,0,0,0,1.02-1.071.992.992,0,0,0-1-1.071,1,1,0,0,0-1.02,1.071A1,1,0,0,0,22.848.187Zm8.993-8.415L34.884-.646a1.3,1.3,0,0,1,.1.391A1.074,1.074,0,0,1,34.867.1a4.536,4.536,0,0,1-1.258,1.666A3.957,3.957,0,0,1,32.3,2.5l.374,1.258a4.054,4.054,0,0,0,1.836-.969C35.53,1.9,36.261.459,37.332-2.363l2.244-5.865H38L36.363-3.4c-.2.6-.374,1.224-.527,1.717H35.8c-.136-.493-.34-1.139-.527-1.683l-1.8-4.862ZM44.591-.034A23.872,23.872,0,0,0,47.277.1a7.058,7.058,0,0,0,5.066-1.649A6.06,6.06,0,0,0,53.992-6a5.277,5.277,0,0,0-1.615-4.114,6.562,6.562,0,0,0-4.641-1.428,21.185,21.185,0,0,0-3.145.238ZM46.07-10.217A8.4,8.4,0,0,1,47.8-10.37c3.128,0,4.658,1.717,4.641,4.42,0,3.094-1.717,4.862-4.879,4.862a9.339,9.339,0,0,1-1.5-.085ZM62.543-3.842a5.643,5.643,0,0,0,.051-.7c0-1.513-.714-3.876-3.4-3.876-2.4,0-3.859,1.955-3.859,4.437A3.821,3.821,0,0,0,59.381.17a6.664,6.664,0,0,0,2.737-.51l-.255-1.071a5.41,5.41,0,0,1-2.278.425,2.636,2.636,0,0,1-2.822-2.856ZM56.78-4.913a2.479,2.479,0,0,1,2.3-2.431,2.13,2.13,0,0,1,2.074,2.431ZM63.869-.391A4.692,4.692,0,0,0,66.181.17c1.955,0,3.077-1.02,3.077-2.465,0-1.224-.731-1.938-2.159-2.482-1.071-.408-1.564-.714-1.564-1.394,0-.612.493-1.122,1.377-1.122a3.2,3.2,0,0,1,1.683.476l.374-1.088a4.107,4.107,0,0,0-2.023-.51A2.538,2.538,0,0,0,64.107-6c0,.986.7,1.8,2.176,2.329,1.1.408,1.53.8,1.53,1.513,0,.68-.51,1.224-1.6,1.224a3.921,3.921,0,0,1-1.972-.6ZM77.1,0a11.585,11.585,0,0,1-.136-1.972V-5.049c0-1.649-.612-3.366-3.128-3.366a5.106,5.106,0,0,0-2.7.731l.34.986A4.1,4.1,0,0,1,73.61-7.31a1.7,1.7,0,0,1,1.87,1.9v.17c-3.179-.017-4.947,1.071-4.947,3.06A2.344,2.344,0,0,0,73.049.187a3.065,3.065,0,0,0,2.516-1.224h.051L75.735,0ZM75.514-2.771a1.561,1.561,0,0,1-.085.476A2.047,2.047,0,0,1,73.44-.918a1.324,1.324,0,0,1-1.411-1.428c0-1.6,1.853-1.887,3.485-1.853ZM79.373,0h1.479V-4.386a4.21,4.21,0,0,1,.068-.7A2.1,2.1,0,0,1,82.926-7a2.247,2.247,0,0,1,.51.051V-8.364a1.618,1.618,0,0,0-.425-.051,2.469,2.469,0,0,0-2.278,1.8h-.068l-.051-1.615H79.305c.051.765.068,1.6.068,2.567ZM85,0h1.479V-4.386a4.21,4.21,0,0,1,.068-.7A2.1,2.1,0,0,1,88.553-7a2.247,2.247,0,0,1,.51.051V-8.364a1.618,1.618,0,0,0-.425-.051,2.469,2.469,0,0,0-2.278,1.8h-.068l-.051-1.615H84.932c.051.765.068,1.6.068,2.567Zm8.874-8.415a4.018,4.018,0,0,0-4.08,4.369A3.912,3.912,0,0,0,93.738.187a4.021,4.021,0,0,0,4.1-4.369A3.9,3.9,0,0,0,93.874-8.415ZM93.84-7.293c1.768,0,2.465,1.768,2.465,3.162,0,1.853-1.071,3.2-2.5,3.2-1.462,0-2.5-1.36-2.5-3.162C91.307-5.661,92.072-7.293,93.84-7.293ZM99.722,0h1.5V-12.07h-1.5Zm4.012,0h1.5V-12.07h-1.5Zm7.5-8.415a4.018,4.018,0,0,0-4.08,4.369A3.912,3.912,0,0,0,111.1.187a4.021,4.021,0,0,0,4.1-4.369A3.9,3.9,0,0,0,111.231-8.415ZM111.2-7.293c1.768,0,2.465,1.768,2.465,3.162,0,1.853-1.071,3.2-2.5,3.2-1.462,0-2.5-1.36-2.5-3.162C108.664-5.661,109.429-7.293,111.2-7.293Z" transform="translate(1052.111 1282.021)"/>
        <path id="Trazado_202217" data-name="Trazado 202217" d="M8.993-1.547a5.92,5.92,0,0,1-2.414.476c-2.788,0-4.4-1.8-4.4-4.607,0-3.009,1.785-4.726,4.471-4.726a5.387,5.387,0,0,1,2.312.476l.357-1.207a6.142,6.142,0,0,0-2.72-.51A5.7,5.7,0,0,0,.612-5.627C.612-1.87,3.043.17,6.273.17A7.342,7.342,0,0,0,9.3-.374ZM11.1,0h1.5V-12.07H11.1Zm5.508,0V-8.228h-1.5V0Zm-.748-11.475a.912.912,0,0,0-.935.935.89.89,0,0,0,.9.918.883.883,0,0,0,.952-.918A.888.888,0,0,0,15.861-11.475ZM25.7-3.842a5.642,5.642,0,0,0,.051-.7c0-1.513-.714-3.876-3.4-3.876-2.4,0-3.859,1.955-3.859,4.437A3.821,3.821,0,0,0,22.542.17a6.664,6.664,0,0,0,2.737-.51l-.255-1.071a5.41,5.41,0,0,1-2.278.425,2.636,2.636,0,0,1-2.822-2.856ZM19.941-4.913a2.479,2.479,0,0,1,2.3-2.431A2.13,2.13,0,0,1,24.31-4.913ZM27.608,0h1.5V-4.947a2.151,2.151,0,0,1,.1-.7,2.125,2.125,0,0,1,2.006-1.53c1.411,0,1.9,1.105,1.9,2.431V0h1.5V-4.913c0-2.822-1.768-3.5-2.907-3.5a3.026,3.026,0,0,0-2.72,1.547h-.034l-.085-1.36H27.54c.051.68.068,1.377.068,2.227Zm9.707-10.2v1.972H36.04v1.139h1.275V-2.6a3.048,3.048,0,0,0,.578,2.142A2.073,2.073,0,0,0,39.508.17a3.662,3.662,0,0,0,1.326-.2l-.068-1.122a3.328,3.328,0,0,1-.867.1c-.833,0-1.122-.578-1.122-1.6V-7.089h2.142V-8.228H38.777v-2.363Zm11.8,6.358a5.642,5.642,0,0,0,.051-.7c0-1.513-.714-3.876-3.4-3.876-2.4,0-3.859,1.955-3.859,4.437A3.821,3.821,0,0,0,45.951.17a6.664,6.664,0,0,0,2.737-.51l-.255-1.071a5.41,5.41,0,0,1-2.278.425,2.636,2.636,0,0,1-2.822-2.856ZM43.35-4.913a2.479,2.479,0,0,1,2.3-2.431,2.13,2.13,0,0,1,2.074,2.431ZM50.439-.391A4.692,4.692,0,0,0,52.751.17c1.955,0,3.077-1.02,3.077-2.465,0-1.224-.731-1.938-2.159-2.482C52.6-5.185,52.1-5.491,52.1-6.171c0-.612.493-1.122,1.377-1.122a3.2,3.2,0,0,1,1.683.476l.374-1.088a4.107,4.107,0,0,0-2.023-.51A2.538,2.538,0,0,0,50.677-6c0,.986.7,1.8,2.176,2.329,1.1.408,1.53.8,1.53,1.513,0,.68-.51,1.224-1.6,1.224a3.921,3.921,0,0,1-1.972-.6Z" transform="translate(981.105 1455.671)"/>
        <path id="Trazado_202215" data-name="Trazado 202215" d="M1.292,0H2.771V-4.964H4.165c1.343.051,1.955.646,2.3,2.227A14.844,14.844,0,0,0,7.225,0h1.53a18.236,18.236,0,0,1-.884-3.145A2.856,2.856,0,0,0,6.188-5.457v-.051A3.008,3.008,0,0,0,8.347-8.432a2.854,2.854,0,0,0-.9-2.176,4.686,4.686,0,0,0-3.315-.935,15.405,15.405,0,0,0-2.839.238ZM2.771-10.268A6.085,6.085,0,0,1,4.233-10.4c1.564.017,2.635.663,2.635,2.142,0,1.309-1,2.176-2.584,2.176H2.771Zm14.3,6.426a5.642,5.642,0,0,0,.051-.7c0-1.513-.714-3.876-3.4-3.876-2.4,0-3.859,1.955-3.859,4.437A3.821,3.821,0,0,0,13.906.17a6.664,6.664,0,0,0,2.737-.51l-.255-1.071a5.41,5.41,0,0,1-2.278.425,2.636,2.636,0,0,1-2.822-2.856ZM11.305-4.913a2.479,2.479,0,0,1,2.3-2.431,2.13,2.13,0,0,1,2.074,2.431ZM19.312-10.2v1.972H18.037v1.139h1.275V-2.6A3.048,3.048,0,0,0,19.89-.459,2.073,2.073,0,0,0,21.505.17a3.662,3.662,0,0,0,1.326-.2l-.068-1.122a3.328,3.328,0,0,1-.867.1c-.833,0-1.122-.578-1.122-1.6V-7.089h2.142V-8.228H20.774v-2.363ZM24.6,0h1.479V-4.386a4.211,4.211,0,0,1,.068-.7A2.1,2.1,0,0,1,28.152-7a2.247,2.247,0,0,1,.51.051V-8.364a1.618,1.618,0,0,0-.425-.051,2.469,2.469,0,0,0-2.278,1.8h-.068L25.84-8.228H24.531c.051.765.068,1.6.068,2.567Zm8.874-8.415a4.018,4.018,0,0,0-4.08,4.369A3.912,3.912,0,0,0,33.337.187a4.021,4.021,0,0,0,4.1-4.369A3.9,3.9,0,0,0,33.473-8.415Zm-.034,1.122c1.768,0,2.465,1.768,2.465,3.162,0,1.853-1.071,3.2-2.5,3.2-1.462,0-2.5-1.36-2.5-3.162C30.906-5.661,31.671-7.293,33.439-7.293ZM45.237,0A11.585,11.585,0,0,1,45.1-1.972V-5.049c0-1.649-.612-3.366-3.128-3.366a5.107,5.107,0,0,0-2.7.731l.34.986a4.1,4.1,0,0,1,2.142-.612,1.7,1.7,0,0,1,1.87,1.9v.17c-3.179-.017-4.947,1.071-4.947,3.06A2.344,2.344,0,0,0,41.191.187a3.065,3.065,0,0,0,2.516-1.224h.051L43.877,0ZM43.656-2.771a1.561,1.561,0,0,1-.085.476A2.047,2.047,0,0,1,41.582-.918a1.324,1.324,0,0,1-1.411-1.428c0-1.6,1.853-1.887,3.485-1.853ZM47.515,0h1.5V-12.07h-1.5Zm5.508,0V-8.228h-1.5V0Zm-.748-11.475a.912.912,0,0,0-.935.935.89.89,0,0,0,.9.918.883.883,0,0,0,.952-.918A.888.888,0,0,0,52.275-11.475ZM55.505,0h1.462V-4.964a2.062,2.062,0,0,1,.119-.731,2.044,2.044,0,0,1,1.853-1.5c1.139,0,1.717.952,1.717,2.261V0h1.462V-5.083a2.464,2.464,0,0,1,.119-.748,1.937,1.937,0,0,1,1.768-1.36c1.207,0,1.785.952,1.785,2.533V0h1.462V-4.845c0-2.856-1.615-3.57-2.7-3.57a2.808,2.808,0,0,0-1.819.578,3.389,3.389,0,0,0-.918,1.071h-.034a2.432,2.432,0,0,0-2.329-1.649A2.836,2.836,0,0,0,56.865-6.9h-.051l-.068-1.326H55.437c.051.68.068,1.377.068,2.227ZM76.3-3.842a5.643,5.643,0,0,0,.051-.7c0-1.513-.714-3.876-3.4-3.876-2.4,0-3.859,1.955-3.859,4.437A3.821,3.821,0,0,0,73.134.17a6.664,6.664,0,0,0,2.737-.51l-.255-1.071a5.41,5.41,0,0,1-2.278.425,2.636,2.636,0,0,1-2.822-2.856ZM70.533-4.913a2.479,2.479,0,0,1,2.295-2.431A2.13,2.13,0,0,1,74.9-4.913ZM78.2,0h1.5V-4.947a2.151,2.151,0,0,1,.1-.7A2.125,2.125,0,0,1,81.8-7.174c1.411,0,1.9,1.105,1.9,2.431V0h1.5V-4.913c0-2.822-1.768-3.5-2.907-3.5a3.026,3.026,0,0,0-2.72,1.547h-.034l-.085-1.36H78.132c.051.68.068,1.377.068,2.227Zm9.707-10.2v1.972H86.632v1.139h1.275V-2.6a3.048,3.048,0,0,0,.578,2.142A2.073,2.073,0,0,0,90.1.17a3.662,3.662,0,0,0,1.326-.2l-.068-1.122a3.328,3.328,0,0,1-.867.1c-.833,0-1.122-.578-1.122-1.6V-7.089h2.142V-8.228H89.369v-2.363ZM99.11,0a11.585,11.585,0,0,1-.136-1.972V-5.049c0-1.649-.612-3.366-3.128-3.366a5.106,5.106,0,0,0-2.7.731l.34.986a4.1,4.1,0,0,1,2.142-.612,1.7,1.7,0,0,1,1.87,1.9v.17c-3.179-.017-4.947,1.071-4.947,3.06A2.344,2.344,0,0,0,95.064.187,3.065,3.065,0,0,0,97.58-1.037h.051L97.75,0ZM97.529-2.771a1.561,1.561,0,0,1-.085.476A2.047,2.047,0,0,1,95.455-.918a1.324,1.324,0,0,1-1.411-1.428c0-1.6,1.853-1.887,3.485-1.853ZM107-1.428a4.25,4.25,0,0,1-1.836.408A2.821,2.821,0,0,1,102.306-4.1a2.847,2.847,0,0,1,2.907-3.111,3.469,3.469,0,0,1,1.734.391l.34-1.156a5,5,0,0,0-2.074-.425,4.181,4.181,0,0,0-4.42,4.369,3.909,3.909,0,0,0,4.1,4.2,5.51,5.51,0,0,0,2.363-.476ZM110.5,0V-8.228H109V0Zm-.748-11.475a.912.912,0,0,0-.935.935.89.89,0,0,0,.9.918.883.883,0,0,0,.952-.918A.888.888,0,0,0,109.752-11.475Zm6.715,3.06a4.018,4.018,0,0,0-4.08,4.369A3.912,3.912,0,0,0,116.331.187a4.021,4.021,0,0,0,4.1-4.369A3.9,3.9,0,0,0,116.467-8.415Zm-.034,1.122c1.768,0,2.465,1.768,2.465,3.162,0,1.853-1.071,3.2-2.5,3.2-1.462,0-2.5-1.36-2.5-3.162C113.9-5.661,114.665-7.293,116.433-7.293Zm.561-4.488L115.5-9.35h1.071l2.074-2.431ZM122.315,0h1.5V-4.947a2.151,2.151,0,0,1,.1-.7,2.125,2.125,0,0,1,2.006-1.53c1.411,0,1.9,1.105,1.9,2.431V0h1.5V-4.913c0-2.822-1.768-3.5-2.907-3.5a3.026,3.026,0,0,0-2.72,1.547h-.034l-.085-1.36h-1.326c.051.68.068,1.377.068,2.227Z" transform="translate(636.261 1538.377)"/>
        <path id="Trazado_202233" data-name="Trazado 202233" d="M.714-.561A5.921,5.921,0,0,0,3.638.17c2.7,0,4.012-1.53,4.012-3.3,0-1.683-.986-2.618-2.924-3.366C3.145-7.106,2.448-7.633,2.448-8.7c0-.782.595-1.717,2.159-1.717a4.563,4.563,0,0,1,2.176.544l.408-1.207a5.206,5.206,0,0,0-2.533-.561c-2.227,0-3.706,1.326-3.706,3.111,0,1.615,1.156,2.584,3.026,3.247,1.547.595,2.159,1.207,2.159,2.278,0,1.156-.884,1.955-2.4,1.955A5.241,5.241,0,0,1,1.088-1.8ZM12.393,0h1.445V-11.05H12.563L10.149-9.758l.289,1.139,1.921-1.037h.034Z" transform="translate(587.446 1028.878)"/>
        <path id="Trazado_202232" data-name="Trazado 202232" d="M.714-.561A5.921,5.921,0,0,0,3.638.17c2.7,0,4.012-1.53,4.012-3.3,0-1.683-.986-2.618-2.924-3.366C3.145-7.106,2.448-7.633,2.448-8.7c0-.782.595-1.717,2.159-1.717a4.563,4.563,0,0,1,2.176.544l.408-1.207a5.206,5.206,0,0,0-2.533-.561c-2.227,0-3.706,1.326-3.706,3.111,0,1.615,1.156,2.584,3.026,3.247,1.547.595,2.159,1.207,2.159,2.278,0,1.156-.884,1.955-2.4,1.955A5.241,5.241,0,0,1,1.088-1.8ZM16.2,0V-1.241H11.237v-.034l.884-.816c2.329-2.244,3.808-3.893,3.808-5.933a3.109,3.109,0,0,0-3.383-3.213,4.849,4.849,0,0,0-3.128,1.122l.476,1.054A3.763,3.763,0,0,1,12.24-10a1.971,1.971,0,0,1,2.193,2.159c-.017,1.666-1.292,3.094-4.114,5.78L9.146-.918V0Z" transform="translate(703.996 1027.483)"/>
        <path id="Trazado_202221" data-name="Trazado 202221" d="M.714-.561A5.921,5.921,0,0,0,3.638.17c2.7,0,4.012-1.53,4.012-3.3,0-1.683-.986-2.618-2.924-3.366C3.145-7.106,2.448-7.633,2.448-8.7c0-.782.595-1.717,2.159-1.717a4.563,4.563,0,0,1,2.176.544l.408-1.207a5.206,5.206,0,0,0-2.533-.561c-2.227,0-3.706,1.326-3.706,3.111,0,1.615,1.156,2.584,3.026,3.247,1.547.595,2.159,1.207,2.159,2.278,0,1.156-.884,1.955-2.4,1.955A5.241,5.241,0,0,1,1.088-1.8Zm8.381,0a5.617,5.617,0,0,0,2.873.748C14.62.187,16-1.36,16-3.128a2.878,2.878,0,0,0-2.465-2.839V-6a2.744,2.744,0,0,0,2.04-2.6c0-1.343-.986-2.635-3.162-2.635a5.253,5.253,0,0,0-2.89.85L9.911-9.3a4.059,4.059,0,0,1,2.21-.731c1.377,0,1.938.782,1.938,1.666,0,1.309-1.377,1.87-2.465,1.87h-.833v1.122h.833c1.445,0,2.839.663,2.856,2.21.017.918-.578,2.142-2.5,2.142a5,5,0,0,1-2.448-.7Z" transform="translate(586.659 1257.347)"/>
        <path id="Trazado_202219" data-name="Trazado 202219" d="M.714-.561A5.921,5.921,0,0,0,3.638.17c2.7,0,4.012-1.53,4.012-3.3,0-1.683-.986-2.618-2.924-3.366C3.145-7.106,2.448-7.633,2.448-8.7c0-.782.595-1.717,2.159-1.717a4.563,4.563,0,0,1,2.176.544l.408-1.207a5.206,5.206,0,0,0-2.533-.561c-2.227,0-3.706,1.326-3.706,3.111,0,1.615,1.156,2.584,3.026,3.247,1.547.595,2.159,1.207,2.159,2.278,0,1.156-.884,1.955-2.4,1.955A5.241,5.241,0,0,1,1.088-1.8ZM15.181,0V-3.009h1.547V-4.182H15.181V-11.05H13.566L8.636-4v.986H13.77V0ZM10.149-4.182v-.034l2.7-3.757c.306-.51.578-.986.918-1.632h.051q-.051.867-.051,1.734v3.689Z" transform="translate(704.931 1364.472)"/>
        <path id="Trazado_202220" data-name="Trazado 202220" d="M.714-.561A5.921,5.921,0,0,0,3.638.17c2.7,0,4.012-1.53,4.012-3.3,0-1.683-.986-2.618-2.924-3.366C3.145-7.106,2.448-7.633,2.448-8.7c0-.782.595-1.717,2.159-1.717a4.563,4.563,0,0,1,2.176.544l.408-1.207a5.206,5.206,0,0,0-2.533-.561c-2.227,0-3.706,1.326-3.706,3.111,0,1.615,1.156,2.584,3.026,3.247,1.547.595,2.159,1.207,2.159,2.278,0,1.156-.884,1.955-2.4,1.955A5.241,5.241,0,0,1,1.088-1.8ZM15.742-11.05H10.455l-.714,5.3a11.431,11.431,0,0,1,1.53-.119c2.21,0,3.162,1.02,3.179,2.448a2.438,2.438,0,0,1-2.618,2.4,4.948,4.948,0,0,1-2.363-.612L9.1-.493a5.409,5.409,0,0,0,2.754.68,3.834,3.834,0,0,0,4.114-3.774,3.15,3.15,0,0,0-1.581-2.839A4.67,4.67,0,0,0,12-7.021a5.908,5.908,0,0,0-.9.068l.425-2.839h4.216Z" transform="translate(825.638 1255.15)"/>
        <path id="Trazado_202227" data-name="Trazado 202227" d="M7.208-3.6,8.432,0h1.581L6.1-11.458H4.318L.425,0h1.53l1.19-3.6ZM3.451-4.76,4.573-8.075c.221-.7.408-1.394.578-2.074h.034c.17.663.34,1.343.6,2.091L6.9-4.76ZM14.416,0h1.445V-11.05H14.586L12.172-9.758l.289,1.139,1.921-1.037h.034Z" transform="translate(824.052 1075.194)"/>
        <path id="Trazado_202231" data-name="Trazado 202231" d="M7.208-3.6,8.432,0h1.581L6.1-11.458H4.318L.425,0h1.53l1.19-3.6ZM3.451-4.76,4.573-8.075c.221-.7.408-1.394.578-2.074h.034c.17.663.34,1.343.6,2.091L6.9-4.76ZM18.224,0V-1.241H13.26v-.034l.884-.816c2.329-2.244,3.808-3.893,3.808-5.933a3.109,3.109,0,0,0-3.383-3.213,4.849,4.849,0,0,0-3.128,1.122l.476,1.054A3.763,3.763,0,0,1,14.263-10a1.971,1.971,0,0,1,2.193,2.159c-.017,1.666-1.292,3.094-4.114,5.78L11.169-.918V0Z" transform="translate(824.053 979.337)"/>
        <path id="Trazado_202230" data-name="Trazado 202230" d="M3.468,0h1.5V-10.2h3.5v-1.258H-.017V-10.2H3.468Zm8.993,0h1.445V-11.05H12.631L10.217-9.758l.289,1.139,1.921-1.037h.034Z" transform="translate(922.025 1027.673)"/>
        <path id="Trazado_202229" data-name="Trazado 202229" d="M3.468,0h1.5V-10.2h3.5v-1.258H-.017V-10.2H3.468Zm12.8,0V-1.241H11.305v-.034l.884-.816C14.518-4.335,16-5.984,16-8.024a3.109,3.109,0,0,0-3.383-3.213,4.849,4.849,0,0,0-3.128,1.122l.476,1.054A3.763,3.763,0,0,1,12.308-10,1.971,1.971,0,0,1,14.5-7.837c-.017,1.666-1.292,3.094-4.114,5.78L9.214-.918V0Z" transform="translate(959.318 1056.58)"/>
        <path id="Trazado_202228" data-name="Trazado 202228" d="M3.468,0h1.5V-10.2h3.5v-1.258H-.017V-10.2H3.468ZM9.163-.561a5.617,5.617,0,0,0,2.873.748c2.652,0,4.029-1.547,4.029-3.315A2.878,2.878,0,0,0,13.6-5.967V-6a2.744,2.744,0,0,0,2.04-2.6c0-1.343-.986-2.635-3.162-2.635a5.253,5.253,0,0,0-2.89.85L9.979-9.3a4.059,4.059,0,0,1,2.21-.731c1.377,0,1.938.782,1.938,1.666,0,1.309-1.377,1.87-2.465,1.87h-.833v1.122h.833c1.445,0,2.839.663,2.856,2.21.017.918-.578,2.142-2.5,2.142a5,5,0,0,1-2.448-.7Z" transform="translate(922.006 1086.431)"/>
      </g>
    </g>
  </g>
</svg>
