<svg xmlns="http://www.w3.org/2000/svg" xmlns:xlink="http://www.w3.org/1999/xlink" width="937.954" height="699.528" viewBox="0 0 937.954 699.528">
  <defs>
    <linearGradient id="linear-gradient" x1="0.855" y1="0.854" x2="-0.026" y2="0.008" gradientUnits="objectBoundingBox">
      <stop offset="0" stop-color="#206897"/>
      <stop offset="1" stop-color="#07a5b6"/>
    </linearGradient>
  </defs>
  <g id="Grupo_148690" data-name="Grupo 148690" transform="translate(-329.529 -4587.5)">
    <g id="Grupo_148689" data-name="Grupo 148689" transform="translate(0 24)">
      <g id="Grupo_148650" data-name="Grupo 148650" transform="translate(0 58.501)">
        <g id="Grupo_148649" data-name="Grupo 148649" transform="translate(-567.37 65.524)">
          <g id="Grupo_148634" data-name="Grupo 148634" transform="translate(947.37 3526.993)">
            <path id="Trazado_200248" data-name="Trazado 200248" d="M599.08,1428.03a205.355,205.355,0,0,0-172.235-288.909l-36.19-20.9v21.4A205.465,205.465,0,0,0,226.61,1433.236l.036,41.845,18.547-10.731a205.369,205.369,0,0,0,336.189-4.7l36.25-20.881Zm-187.447,18.652a103.126,103.126,0,0,1-76.6-34.315l15.726-9.1-33.832-19.487a102.773,102.773,0,0,1,73.725-140.353v18.19l33.842-19.542a102.764,102.764,0,0,1,84.727,133.964l-15.706-9.088-.034,39.058A103.154,103.154,0,0,1,411.633,1446.682Z" transform="translate(-2.373 -2.373)" fill="#b4bebe"/>
            <path id="Trazado_200249" data-name="Trazado 200249" d="M417.913,1571.97a103.125,103.125,0,0,1-76.6-34.316l15.725-9.1L232.8,1456.993l.124,143.376,18.547-10.731A205.408,205.408,0,0,0,595.8,1572.022l-88.9-51.435A103.14,103.14,0,0,1,417.913,1571.97Z" transform="translate(-12.504 -131.512)" fill="#07a5b6"/>
            <g id="Grupo_148631" data-name="Grupo 148631" transform="translate(220.298 1325.481)">
              <path id="Trazado_200250" data-name="Trazado 200250" d="M493.894,1616.282a103.139,103.139,0,0,0,88.987-51.384l82.81,47.914c.318-.538.639-1.073.951-1.614l-88.9-51.435a102.673,102.673,0,0,1-159.1,23.679A103.113,103.113,0,0,0,493.894,1616.282Z" transform="translate(-303.648 -1496.17)" fill="#206897"/>
              <path id="Trazado_200251" data-name="Trazado 200251" d="M237.937,1462.128l117.219,67.519,1.886-1.091L232.8,1456.993l.125,143.376,5.128-2.967Z" transform="translate(-232.802 -1456.993)" fill="#206897"/>
              <path id="Trazado_200252" data-name="Trazado 200252" d="M270.727,1679.652l-.889.514a206.849,206.849,0,0,0,19.512,21.719A206.644,206.644,0,0,1,270.727,1679.652Z" transform="translate(-246.92 -1541.871)" fill="#206897"/>
            </g>
            <path id="Trazado_200253" data-name="Trazado 200253" d="M737.358,1350.286a205.282,205.282,0,0,0-205.409-205.409v102.7a102.753,102.753,0,0,1,97.591,134.767l-15.706-9.088-.124,143.377,124.24-71.563L719.4,1434.339A205.694,205.694,0,0,0,737.358,1350.286Z" transform="translate(-126.54 -12.533)" fill="url(#linear-gradient)"/>
            <g id="Grupo_148632" data-name="Grupo 148632" transform="translate(405.409 1132.344)">
              <path id="Trazado_200254" data-name="Trazado 200254" d="M537.084,1150.012a204.879,204.879,0,0,1,142.654,57.62q-1.26-1.3-2.543-2.592a204.933,204.933,0,0,0-145.247-60.163v102.7q2.583,0,5.135.128Z" transform="translate(-531.949 -1144.877)" fill="#ffe989"/>
              <path id="Trazado_200255" data-name="Trazado 200255" d="M843.928,1618.171c-.252.575-.5,1.151-.759,1.724l11.543,6.679,1.874-1.08Z" transform="translate(-650.587 -1325.298)" fill="#ffe36c"/>
              <path id="Trazado_200256" data-name="Trazado 200256" d="M660.1,1456.693l-.124,143.376,5.142-2.961.118-135.28,15.706,9.088a102.686,102.686,0,0,0-27.614-107.174,102.679,102.679,0,0,1,22.479,102.038Z" transform="translate(-578.221 -1228.309)" fill="#ffe989"/>
            </g>
            <path id="Trazado_200257" data-name="Trazado 200257" d="M220.3,1325.481l90.408,52.076A102.775,102.775,0,0,1,384.431,1237.2v18.19l124.162-71.7L384.431,1112v21.4A205.289,205.289,0,0,0,200,1337.753a205.639,205.639,0,0,0,20.386,89.259Z" fill="#f40b74"/>
            <g id="Grupo_148633" data-name="Grupo 148633" transform="translate(200 1112)">
              <path id="Trazado_200258" data-name="Trazado 200258" d="M205.135,1342.889a205.307,205.307,0,0,1,184.431-204.354v-21.4l117.149,67.646,1.879-1.085L384.431,1112v21.4A205.289,205.289,0,0,0,200,1337.753a205.639,205.639,0,0,0,20.386,89.259l-.006-6.436A205.724,205.724,0,0,1,205.135,1342.889Z" transform="translate(-200 -1112)" fill="#ff736b"/>
            </g>
            <path id="Trazado_202169" data-name="Trazado 202169" d="M23.453,11.535H18.119V26H13.834V11.535H8.6V8.227H23.453Zm8.008,14.709a6.79,6.79,0,0,1-4.919-1.813,6.26,6.26,0,0,1-1.88-4.718v-.342a8.111,8.111,0,0,1,.751-3.577A5.493,5.493,0,0,1,27.6,13.4a6.615,6.615,0,0,1,3.418-.848,5.717,5.717,0,0,1,4.395,1.727,6.788,6.788,0,0,1,1.611,4.816v1.6H28.849a2.965,2.965,0,0,0,.964,1.746,2.869,2.869,0,0,0,1.929.635A3.7,3.7,0,0,0,34.794,21.7l1.88,2.222a5.255,5.255,0,0,1-2.179,1.691A7.363,7.363,0,0,1,31.461,26.244ZM31,15.722q-1.807,0-2.148,2.393H33V17.8a2.038,2.038,0,0,0-.5-1.532A1.992,1.992,0,0,0,31,15.722ZM44.266,23.07a1.83,1.83,0,0,0,1.343-.47,1.723,1.723,0,0,0,.464-1.312H49.93a4.566,4.566,0,0,1-1.556,3.564,5.789,5.789,0,0,1-4.01,1.392,5.862,5.862,0,0,1-4.541-1.807,7.118,7.118,0,0,1-1.66-5v-.171a8.045,8.045,0,0,1,.739-3.534,5.377,5.377,0,0,1,2.13-2.356,6.351,6.351,0,0,1,3.3-.824,5.716,5.716,0,0,1,4.089,1.428,5.066,5.066,0,0,1,1.514,3.87H46.073a2.258,2.258,0,0,0-.5-1.575,1.728,1.728,0,0,0-1.343-.549q-1.6,0-1.868,2.039a14.385,14.385,0,0,0-.085,1.782,5.65,5.65,0,0,0,.476,2.759A1.648,1.648,0,0,0,44.266,23.07ZM55.448,12.792l.134,1.55a4.479,4.479,0,0,1,3.772-1.794,3.768,3.768,0,0,1,3.082,1.233,5.87,5.87,0,0,1,1.056,3.711V26H59.366V17.663a2.229,2.229,0,0,0-.4-1.471,1.864,1.864,0,0,0-1.465-.47,1.962,1.962,0,0,0-1.794.952V26H51.591V12.792Zm9.8,6.482a7.8,7.8,0,0,1,.769-3.522,5.5,5.5,0,0,1,2.209-2.374,6.654,6.654,0,0,1,3.381-.83,6.073,6.073,0,0,1,4.675,1.837,7.05,7.05,0,0,1,1.709,5v.146a6.84,6.84,0,0,1-1.715,4.9,6.089,6.089,0,0,1-4.645,1.813,6.159,6.159,0,0,1-4.529-1.691,6.613,6.613,0,0,1-1.843-4.584Zm4.114.256a4.915,4.915,0,0,0,.574,2.686,1.911,1.911,0,0,0,1.7.854q2.2,0,2.246-3.381v-.415q0-3.552-2.271-3.552-2.063,0-2.234,3.064ZM84.147,26H80.021V7.25h4.126Zm2.014-6.726a7.8,7.8,0,0,1,.769-3.522,5.5,5.5,0,0,1,2.209-2.374,6.654,6.654,0,0,1,3.381-.83A6.073,6.073,0,0,1,97.2,14.385a7.05,7.05,0,0,1,1.709,5v.146a6.84,6.84,0,0,1-1.715,4.9,6.089,6.089,0,0,1-4.645,1.813,6.159,6.159,0,0,1-4.529-1.691,6.613,6.613,0,0,1-1.843-4.584Zm4.114.256a4.915,4.915,0,0,0,.574,2.686,1.911,1.911,0,0,0,1.7.854q2.2,0,2.246-3.381v-.415q0-3.552-2.271-3.552-2.063,0-2.234,3.064Zm9.961-.232a8.918,8.918,0,0,1,.659-3.54,5.307,5.307,0,0,1,1.892-2.374,4.988,4.988,0,0,1,2.869-.836,3.966,3.966,0,0,1,3.223,1.392l.146-1.147h3.735V25.5a5.569,5.569,0,0,1-.812,3.033,5.209,5.209,0,0,1-2.35,1.978,8.637,8.637,0,0,1-3.564.69,7.451,7.451,0,0,1-2.814-.549,5.079,5.079,0,0,1-2.081-1.428l1.721-2.417a3.772,3.772,0,0,0,3.027,1.355q2.734,0,2.734-2.808v-.415a3.863,3.863,0,0,1-2.991,1.306,4.774,4.774,0,0,1-3.906-1.849,7.662,7.662,0,0,1-1.489-4.95Zm4.126.256a4.7,4.7,0,0,0,.61,2.57,1.926,1.926,0,0,0,1.709.946,2.185,2.185,0,0,0,1.941-.891V16.625a2.13,2.13,0,0,0-1.917-.9,1.938,1.938,0,0,0-1.721.983A5.358,5.358,0,0,0,104.362,19.555ZM119.584,26h-4.138V12.792h4.138ZM118.046,7.494h4.346L119,11.327l-3.357-.006ZM129.667,26a4.645,4.645,0,0,1-.391-1.184,3.825,3.825,0,0,1-3.174,1.428,4.686,4.686,0,0,1-3.174-1.129,3.594,3.594,0,0,1-1.306-2.838,3.694,3.694,0,0,1,1.587-3.247,8.085,8.085,0,0,1,4.614-1.1h1.27v-.7q0-1.828-1.575-1.828a1.287,1.287,0,0,0-1.465,1.447H121.94a3.688,3.688,0,0,1,1.63-3.109,6.849,6.849,0,0,1,4.156-1.195,6,6,0,0,1,3.992,1.233,4.287,4.287,0,0,1,1.5,3.381v5.847a5.988,5.988,0,0,0,.562,2.783V26Zm-2.576-2.686a2.3,2.3,0,0,0,1.276-.33,2.066,2.066,0,0,0,.726-.745V20.128h-1.2q-2.148,0-2.148,1.929a1.178,1.178,0,0,0,.378.909A1.369,1.369,0,0,0,127.091,23.314Z" transform="translate(234.404 1288.255) rotate(-45)" fill="#fff"/>
            <path id="Trazado_202172" data-name="Trazado 202172" d="M24.082,19.97V26H19.8V8.227H26.89a8.261,8.261,0,0,1,3.607.751,5.658,5.658,0,0,1,2.429,2.136,5.834,5.834,0,0,1,.861,3.143,5.143,5.143,0,0,1-1.862,4.156,7.724,7.724,0,0,1-5.109,1.556Zm0-3.308H26.89a2.648,2.648,0,0,0,1.9-.623,2.313,2.313,0,0,0,.653-1.758,2.859,2.859,0,0,0-.671-1.99,2.377,2.377,0,0,0-1.831-.757H24.082Zm19.788-.146-1.355-.1a2.434,2.434,0,0,0-2.49,1.221V26H35.911V12.792h3.857l.134,1.7A3.185,3.185,0,0,1,42.8,12.548a4.012,4.012,0,0,1,1.147.146Zm.525,2.759a7.8,7.8,0,0,1,.769-3.522,5.5,5.5,0,0,1,2.209-2.374,6.654,6.654,0,0,1,3.381-.83,6.073,6.073,0,0,1,4.675,1.837,7.05,7.05,0,0,1,1.709,5v.146a6.84,6.84,0,0,1-1.715,4.9,6.089,6.089,0,0,1-4.645,1.813,6.159,6.159,0,0,1-4.529-1.691,6.613,6.613,0,0,1-1.843-4.584Zm4.114.256a4.914,4.914,0,0,0,.574,2.686,1.911,1.911,0,0,0,1.7.854q2.2,0,2.246-3.381v-.415q0-3.552-2.271-3.552-2.063,0-2.234,3.064Zm16.028,3.54a1.83,1.83,0,0,0,1.343-.47,1.723,1.723,0,0,0,.464-1.312H70.2a4.566,4.566,0,0,1-1.556,3.564,5.789,5.789,0,0,1-4.01,1.392,5.862,5.862,0,0,1-4.541-1.807,7.118,7.118,0,0,1-1.66-5v-.171a8.045,8.045,0,0,1,.739-3.534,5.377,5.377,0,0,1,2.13-2.356,6.351,6.351,0,0,1,3.3-.824,5.716,5.716,0,0,1,4.089,1.428,5.066,5.066,0,0,1,1.514,3.87H66.343a2.258,2.258,0,0,0-.5-1.575,1.728,1.728,0,0,0-1.343-.549q-1.6,0-1.868,2.039a14.385,14.385,0,0,0-.085,1.782,5.65,5.65,0,0,0,.476,2.759A1.648,1.648,0,0,0,64.536,23.07ZM78.33,26.244a6.79,6.79,0,0,1-4.919-1.813,6.26,6.26,0,0,1-1.88-4.718v-.342a8.111,8.111,0,0,1,.751-3.577,5.493,5.493,0,0,1,2.191-2.4,6.615,6.615,0,0,1,3.418-.848,5.717,5.717,0,0,1,4.395,1.727A6.788,6.788,0,0,1,83.9,19.091v1.6H75.718a2.965,2.965,0,0,0,.964,1.746,2.869,2.869,0,0,0,1.929.635A3.7,3.7,0,0,0,81.663,21.7l1.88,2.222a5.255,5.255,0,0,1-2.179,1.691A7.363,7.363,0,0,1,78.33,26.244Zm-.464-10.522q-1.807,0-2.148,2.393h4.15V17.8a2.038,2.038,0,0,0-.5-1.532A1.992,1.992,0,0,0,77.866,15.722Zm14.6,6.567a.95.95,0,0,0-.549-.842,8.356,8.356,0,0,0-2.087-.659,9.519,9.519,0,0,1-2.539-.9,4.253,4.253,0,0,1-1.526-1.349,3.221,3.221,0,0,1-.525-1.819,3.651,3.651,0,0,1,1.5-3,6.185,6.185,0,0,1,3.931-1.178,6.853,6.853,0,0,1,4.2,1.184,3.7,3.7,0,0,1,1.587,3.113H92.332q0-1.587-1.672-1.587a1.658,1.658,0,0,0-1.086.36,1.115,1.115,0,0,0-.439.9,1.023,1.023,0,0,0,.537.891,5.075,5.075,0,0,0,1.715.562,14.821,14.821,0,0,1,2.069.525q2.979,1.025,2.979,3.674a3.459,3.459,0,0,1-1.605,2.942,7.039,7.039,0,0,1-4.156,1.135,7.184,7.184,0,0,1-3.027-.61,5.062,5.062,0,0,1-2.075-1.66,3.759,3.759,0,0,1-.745-2.209h3.845a1.59,1.59,0,0,0,.61,1.337,2.511,2.511,0,0,0,1.5.421,1.975,1.975,0,0,0,1.263-.342A1.093,1.093,0,0,0,92.466,22.289Zm5.371-3.015a7.8,7.8,0,0,1,.769-3.522,5.5,5.5,0,0,1,2.209-2.374,6.654,6.654,0,0,1,3.381-.83,6.073,6.073,0,0,1,4.675,1.837,7.05,7.05,0,0,1,1.709,5v.146a6.84,6.84,0,0,1-1.715,4.9,6.089,6.089,0,0,1-4.645,1.813,6.159,6.159,0,0,1-4.529-1.691,6.613,6.613,0,0,1-1.843-4.584Zm4.114.256a4.915,4.915,0,0,0,.574,2.686,1.911,1.911,0,0,0,1.7.854q2.2,0,2.246-3.381v-.415q0-3.552-2.271-3.552-2.063,0-2.234,3.064Zm17.358,2.759a.95.95,0,0,0-.549-.842,8.356,8.356,0,0,0-2.087-.659,9.519,9.519,0,0,1-2.539-.9,4.253,4.253,0,0,1-1.526-1.349,3.221,3.221,0,0,1-.525-1.819,3.651,3.651,0,0,1,1.5-3,6.185,6.185,0,0,1,3.931-1.178,6.853,6.853,0,0,1,4.2,1.184,3.7,3.7,0,0,1,1.587,3.113h-4.126q0-1.587-1.672-1.587a1.658,1.658,0,0,0-1.086.36,1.115,1.115,0,0,0-.439.9,1.023,1.023,0,0,0,.537.891,5.075,5.075,0,0,0,1.715.562,14.821,14.821,0,0,1,2.069.525q2.979,1.025,2.979,3.674a3.459,3.459,0,0,1-1.605,2.942,7.039,7.039,0,0,1-4.156,1.135,7.184,7.184,0,0,1-3.027-.61,5.062,5.062,0,0,1-2.075-1.66,3.759,3.759,0,0,1-.745-2.209h3.845a1.59,1.59,0,0,0,.61,1.337,2.511,2.511,0,0,0,1.5.421,1.975,1.975,0,0,0,1.263-.342A1.093,1.093,0,0,0,119.309,22.289Z" transform="matrix(0.966, 0.259, -0.259, 0.966, 305.171, 1441.269)" fill="#fff"/>
          </g>
          <path id="Trazado_202170" data-name="Trazado 202170" d="M21.77,23.8a6.889,6.889,0,0,1-2.893,1.77,12.478,12.478,0,0,1-4.175.671,7.444,7.444,0,0,1-5.579-2.136A8.647,8.647,0,0,1,6.89,18.163l-.012-1.538a10.607,10.607,0,0,1,.928-4.584A6.889,6.889,0,0,1,10.46,9.026a7.51,7.51,0,0,1,4-1.056,7.874,7.874,0,0,1,5.157,1.52,6.44,6.44,0,0,1,2.142,4.535H17.632A3.37,3.37,0,0,0,16.68,11.9a3.072,3.072,0,0,0-2.075-.635,2.8,2.8,0,0,0-2.49,1.367,7.3,7.3,0,0,0-.891,3.906v1.074a7.146,7.146,0,0,0,.909,4A3.217,3.217,0,0,0,15,22.948a3.6,3.6,0,0,0,2.49-.745V19.445H14.507V16.5H21.77Zm1.782-4.529a7.8,7.8,0,0,1,.769-3.522,5.5,5.5,0,0,1,2.209-2.374,6.654,6.654,0,0,1,3.381-.83,6.073,6.073,0,0,1,4.675,1.837,7.05,7.05,0,0,1,1.709,5v.146a6.84,6.84,0,0,1-1.715,4.9,6.089,6.089,0,0,1-4.645,1.813,6.159,6.159,0,0,1-4.529-1.691,6.613,6.613,0,0,1-1.843-4.584Zm4.114.256a4.914,4.914,0,0,0,.574,2.686,1.911,1.911,0,0,0,1.7.854q2.2,0,2.246-3.381v-.415q0-3.552-2.271-3.552-2.063,0-2.234,3.064Zm22.705-.024A8.05,8.05,0,0,1,49.028,24.5a4.5,4.5,0,0,1-3.784,1.746A3.9,3.9,0,0,1,42,24.645L41.826,26H38.14V7.25h4.114v6.6a3.766,3.766,0,0,1,2.966-1.306,4.5,4.5,0,0,1,3.809,1.77,8.092,8.092,0,0,1,1.343,4.98Zm-4.126-.262a5.37,5.37,0,0,0-.507-2.711,1.708,1.708,0,0,0-1.556-.81,1.97,1.97,0,0,0-1.929,1.06v5.24a1.981,1.981,0,0,0,1.953,1.048,1.747,1.747,0,0,0,1.843-1.414A10.152,10.152,0,0,0,46.245,19.244ZM56.523,26H52.4V12.792h4.126ZM52.153,9.386a1.836,1.836,0,0,1,.635-1.44,2.7,2.7,0,0,1,3.3,0,1.836,1.836,0,0,1,.635,1.44,1.836,1.836,0,0,1-.635,1.44,2.7,2.7,0,0,1-3.3,0A1.836,1.836,0,0,1,52.153,9.386ZM65.447,26.244a6.79,6.79,0,0,1-4.919-1.813,6.26,6.26,0,0,1-1.88-4.718v-.342a8.111,8.111,0,0,1,.751-3.577,5.493,5.493,0,0,1,2.191-2.4,6.615,6.615,0,0,1,3.418-.848A5.717,5.717,0,0,1,69.4,14.275a6.788,6.788,0,0,1,1.611,4.816v1.6H62.834a2.965,2.965,0,0,0,.964,1.746,2.869,2.869,0,0,0,1.929.635A3.7,3.7,0,0,0,68.779,21.7l1.88,2.222a5.255,5.255,0,0,1-2.179,1.691A7.363,7.363,0,0,1,65.447,26.244Zm-.464-10.522q-1.807,0-2.148,2.393h4.15V17.8a2.038,2.038,0,0,0-.5-1.532A1.992,1.992,0,0,0,64.983,15.722Zm15.674.793-1.355-.1a2.434,2.434,0,0,0-2.49,1.221V26H72.7V12.792h3.857l.134,1.7a3.186,3.186,0,0,1,2.893-1.941,4.012,4.012,0,0,1,1.147.146Zm5.261-3.723.134,1.55a4.479,4.479,0,0,1,3.772-1.794,3.768,3.768,0,0,1,3.082,1.233,5.87,5.87,0,0,1,1.056,3.711V26H89.836V17.663a2.229,2.229,0,0,0-.4-1.471,1.864,1.864,0,0,0-1.465-.47,1.962,1.962,0,0,0-1.794.952V26H82.061V12.792Zm9.8,6.482a7.8,7.8,0,0,1,.769-3.522A5.5,5.5,0,0,1,98.7,13.378a6.654,6.654,0,0,1,3.381-.83,6.073,6.073,0,0,1,4.675,1.837,7.05,7.05,0,0,1,1.709,5v.146a6.84,6.84,0,0,1-1.715,4.9,6.089,6.089,0,0,1-4.645,1.813,6.159,6.159,0,0,1-4.529-1.691,6.613,6.613,0,0,1-1.843-4.584Zm4.114.256a4.915,4.915,0,0,0,.574,2.686,1.911,1.911,0,0,0,1.7.854q2.2,0,2.246-3.381v-.415q0-3.552-2.271-3.552-2.063,0-2.234,3.064ZM9.99,47.3a8.068,8.068,0,0,1,1.355-4.944,4.46,4.46,0,0,1,3.784-1.807,3.793,3.793,0,0,1,2.979,1.392V35.25h4.126V54h-3.7l-.208-1.416a3.9,3.9,0,0,1-3.223,1.66,4.452,4.452,0,0,1-3.735-1.807A8.324,8.324,0,0,1,9.99,47.3Zm4.114.256q0,3.516,2.051,3.516a2.025,2.025,0,0,0,1.953-1.147V44.894a1.971,1.971,0,0,0-1.929-1.172q-1.9,0-2.063,3.076Zm16.858,6.689a6.79,6.79,0,0,1-4.919-1.813,6.26,6.26,0,0,1-1.88-4.718v-.342a8.111,8.111,0,0,1,.751-3.577A5.493,5.493,0,0,1,27.1,41.4a6.615,6.615,0,0,1,3.418-.848,5.717,5.717,0,0,1,4.395,1.727,6.788,6.788,0,0,1,1.611,4.816v1.6H28.35a2.965,2.965,0,0,0,.964,1.746,2.869,2.869,0,0,0,1.929.635A3.7,3.7,0,0,0,34.294,49.7l1.88,2.222A5.255,5.255,0,0,1,34,53.615,7.363,7.363,0,0,1,30.962,54.244ZM30.5,43.722q-1.807,0-2.148,2.393H32.5V45.8a2.038,2.038,0,0,0-.5-1.532A1.992,1.992,0,0,0,30.5,43.722ZM43.889,47.3a8.068,8.068,0,0,1,1.355-4.944,4.46,4.46,0,0,1,3.784-1.807,3.793,3.793,0,0,1,2.979,1.392V35.25h4.126V54h-3.7l-.208-1.416A3.9,3.9,0,0,1,49,54.244a4.452,4.452,0,0,1-3.735-1.807A8.324,8.324,0,0,1,43.889,47.3ZM48,47.555q0,3.516,2.051,3.516a2.025,2.025,0,0,0,1.953-1.147V44.894a1.971,1.971,0,0,0-1.929-1.172q-1.9,0-2.063,3.076ZM65.911,54a4.645,4.645,0,0,1-.391-1.184,3.825,3.825,0,0,1-3.174,1.428,4.686,4.686,0,0,1-3.174-1.129,3.594,3.594,0,0,1-1.306-2.838,3.694,3.694,0,0,1,1.587-3.247,8.085,8.085,0,0,1,4.614-1.1h1.27v-.7q0-1.828-1.575-1.828A1.287,1.287,0,0,0,62.3,44.852H58.184a3.688,3.688,0,0,1,1.63-3.109,6.849,6.849,0,0,1,4.156-1.195,6,6,0,0,1,3.992,1.233,4.287,4.287,0,0,1,1.5,3.381v5.847a5.988,5.988,0,0,0,.562,2.783V54Zm-2.576-2.686a2.3,2.3,0,0,0,1.276-.33,2.066,2.066,0,0,0,.726-.745V48.128h-1.2q-2.148,0-2.148,1.929a1.178,1.178,0,0,0,.378.909A1.369,1.369,0,0,0,63.335,51.314Zm13.2-13.806v3.284H78.7v2.856H76.531v6.042a1.543,1.543,0,0,0,.269,1.038,1.44,1.44,0,0,0,1.062.293,6.035,6.035,0,0,0,1.025-.073V53.89a7.592,7.592,0,0,1-2.319.354,4.309,4.309,0,0,1-3.137-1,4.1,4.1,0,0,1-1.013-3.04V43.648H70.732V40.792h1.685V37.508Zm2.905,9.766a7.8,7.8,0,0,1,.769-3.522,5.5,5.5,0,0,1,2.209-2.374,6.654,6.654,0,0,1,3.381-.83,6.073,6.073,0,0,1,4.675,1.837,7.05,7.05,0,0,1,1.709,5v.146a6.84,6.84,0,0,1-1.715,4.9,6.089,6.089,0,0,1-4.645,1.813,6.159,6.159,0,0,1-4.529-1.691,6.613,6.613,0,0,1-1.843-4.584Zm4.114.256a4.915,4.915,0,0,0,.574,2.686,1.911,1.911,0,0,0,1.7.854q2.2,0,2.246-3.381v-.415q0-3.552-2.271-3.552-2.063,0-2.234,3.064Zm17.358,2.759a.95.95,0,0,0-.549-.842,8.356,8.356,0,0,0-2.087-.659,9.518,9.518,0,0,1-2.539-.9,4.253,4.253,0,0,1-1.526-1.349,3.221,3.221,0,0,1-.525-1.819,3.651,3.651,0,0,1,1.5-3,6.185,6.185,0,0,1,3.931-1.178,6.853,6.853,0,0,1,4.2,1.184,3.7,3.7,0,0,1,1.587,3.113h-4.126q0-1.587-1.672-1.587a1.658,1.658,0,0,0-1.086.36,1.115,1.115,0,0,0-.439.9,1.023,1.023,0,0,0,.537.891,5.075,5.075,0,0,0,1.715.562,14.821,14.821,0,0,1,2.069.525q2.979,1.025,2.979,3.674a3.459,3.459,0,0,1-1.605,2.942,7.039,7.039,0,0,1-4.156,1.135,7.184,7.184,0,0,1-3.027-.61,5.062,5.062,0,0,1-2.075-1.66,3.759,3.759,0,0,1-.745-2.209h3.845a1.59,1.59,0,0,0,.61,1.337,2.511,2.511,0,0,0,1.5.421,1.975,1.975,0,0,0,1.263-.342A1.093,1.093,0,0,0,100.908,50.289Z" transform="translate(1297.5 4836.857)" fill="#12263f"/>
        </g>
        <path id="Trazado_202171" data-name="Trazado 202171" d="M23.691,19.97V26H19.407V8.227H26.5a8.261,8.261,0,0,1,3.607.751,5.658,5.658,0,0,1,2.429,2.136,5.834,5.834,0,0,1,.861,3.143,5.143,5.143,0,0,1-1.862,4.156,7.724,7.724,0,0,1-5.109,1.556Zm0-3.308H26.5a2.648,2.648,0,0,0,1.9-.623,2.313,2.313,0,0,0,.653-1.758,2.859,2.859,0,0,0-.671-1.99,2.377,2.377,0,0,0-1.831-.757H23.691ZM41.88,26.244a6.79,6.79,0,0,1-4.919-1.813,6.26,6.26,0,0,1-1.88-4.718v-.342a8.111,8.111,0,0,1,.751-3.577,5.493,5.493,0,0,1,2.191-2.4,6.615,6.615,0,0,1,3.418-.848,5.717,5.717,0,0,1,4.395,1.727,6.788,6.788,0,0,1,1.611,4.816v1.6H39.268a2.965,2.965,0,0,0,.964,1.746,2.869,2.869,0,0,0,1.929.635A3.7,3.7,0,0,0,45.212,21.7l1.88,2.222a5.255,5.255,0,0,1-2.179,1.691A7.363,7.363,0,0,1,41.88,26.244Zm-.464-10.522q-1.807,0-2.148,2.393h4.15V17.8a2.038,2.038,0,0,0-.5-1.532A1.992,1.992,0,0,0,41.416,15.722Zm15.674.793-1.355-.1a2.434,2.434,0,0,0-2.49,1.221V26H49.131V12.792h3.857l.134,1.7a3.185,3.185,0,0,1,2.893-1.941,4.012,4.012,0,0,1,1.147.146Zm8.4,5.774a.95.95,0,0,0-.549-.842,8.356,8.356,0,0,0-2.087-.659,9.519,9.519,0,0,1-2.539-.9,4.253,4.253,0,0,1-1.526-1.349,3.221,3.221,0,0,1-.525-1.819,3.651,3.651,0,0,1,1.5-3,6.185,6.185,0,0,1,3.931-1.178,6.853,6.853,0,0,1,4.2,1.184,3.7,3.7,0,0,1,1.587,3.113H65.354q0-1.587-1.672-1.587a1.658,1.658,0,0,0-1.086.36,1.115,1.115,0,0,0-.439.9,1.023,1.023,0,0,0,.537.891,5.075,5.075,0,0,0,1.715.562,14.821,14.821,0,0,1,2.069.525q2.979,1.025,2.979,3.674a3.459,3.459,0,0,1-1.605,2.942,7.039,7.039,0,0,1-4.156,1.135,7.184,7.184,0,0,1-3.027-.61,5.062,5.062,0,0,1-2.075-1.66,3.759,3.759,0,0,1-.745-2.209h3.845A1.59,1.59,0,0,0,62.3,23.1a2.511,2.511,0,0,0,1.5.421,1.975,1.975,0,0,0,1.263-.342A1.093,1.093,0,0,0,65.488,22.289Zm5.371-3.015a7.8,7.8,0,0,1,.769-3.522,5.5,5.5,0,0,1,2.209-2.374,6.654,6.654,0,0,1,3.381-.83,6.073,6.073,0,0,1,4.675,1.837,7.05,7.05,0,0,1,1.709,5v.146a6.84,6.84,0,0,1-1.715,4.9,6.089,6.089,0,0,1-4.645,1.813,6.159,6.159,0,0,1-4.529-1.691,6.613,6.613,0,0,1-1.843-4.584Zm4.114.256a4.915,4.915,0,0,0,.574,2.686,1.911,1.911,0,0,0,1.7.854q2.2,0,2.246-3.381v-.415q0-3.552-2.271-3.552-2.063,0-2.234,3.064Zm14.221-6.738.134,1.55A4.479,4.479,0,0,1,93.1,12.548a3.768,3.768,0,0,1,3.082,1.233,5.87,5.87,0,0,1,1.056,3.711V26H93.113V17.663a2.229,2.229,0,0,0-.4-1.471,1.864,1.864,0,0,0-1.465-.47,1.962,1.962,0,0,0-1.794.952V26H85.337V12.792ZM106.956,26a4.645,4.645,0,0,1-.391-1.184,3.825,3.825,0,0,1-3.174,1.428,4.686,4.686,0,0,1-3.174-1.129,3.594,3.594,0,0,1-1.306-2.838A3.694,3.694,0,0,1,100.5,19.03a8.085,8.085,0,0,1,4.614-1.1h1.27v-.7q0-1.828-1.575-1.828a1.287,1.287,0,0,0-1.465,1.447H99.229a3.688,3.688,0,0,1,1.63-3.109,6.849,6.849,0,0,1,4.156-1.195,6,6,0,0,1,3.992,1.233,4.287,4.287,0,0,1,1.5,3.381v5.847a5.988,5.988,0,0,0,.562,2.783V26Zm-2.576-2.686a2.3,2.3,0,0,0,1.276-.33,2.066,2.066,0,0,0,.726-.745V20.128h-1.2q-2.148,0-2.148,1.929a1.178,1.178,0,0,0,.378.909A1.369,1.369,0,0,0,104.38,23.314Zm15.32-1.025a.95.95,0,0,0-.549-.842,8.356,8.356,0,0,0-2.087-.659,9.519,9.519,0,0,1-2.539-.9A4.253,4.253,0,0,1,113,18.542a3.221,3.221,0,0,1-.525-1.819,3.651,3.651,0,0,1,1.5-3,6.185,6.185,0,0,1,3.931-1.178,6.853,6.853,0,0,1,4.2,1.184,3.7,3.7,0,0,1,1.587,3.113h-4.126q0-1.587-1.672-1.587a1.658,1.658,0,0,0-1.086.36,1.115,1.115,0,0,0-.439.9,1.023,1.023,0,0,0,.537.891,5.075,5.075,0,0,0,1.715.562,14.821,14.821,0,0,1,2.069.525q2.979,1.025,2.979,3.674a3.459,3.459,0,0,1-1.605,2.942,7.039,7.039,0,0,1-4.156,1.135,7.184,7.184,0,0,1-3.027-.61,5.062,5.062,0,0,1-2.075-1.66,3.759,3.759,0,0,1-.745-2.209H115.9a1.59,1.59,0,0,0,.61,1.337,2.511,2.511,0,0,0,1.5.421,1.975,1.975,0,0,0,1.263-.342A1.093,1.093,0,0,0,119.7,22.289Z" transform="translate(880.335 4812.05) rotate(45)" fill="#fff"/>
      </g>
      <g id="Grupo_148683" data-name="Grupo 148683" transform="translate(97.379 4519.461)">
        <g id="Grupo_148658" data-name="Grupo 148658" transform="translate(672.888 560.156)">
          <g id="Grupo_148654" data-name="Grupo 148654" transform="translate(29.429)">
            <g id="Grupo_148653" data-name="Grupo 148653">
              <path id="Trazado_200287" data-name="Trazado 200287" d="M1149.793,1302.2l-.331-6.673a245.425,245.425,0,0,0,215.294-153.012l6.194,2.5A251.6,251.6,0,0,1,1149.793,1302.2Z" transform="translate(-1149.462 -1142.516)" fill="#f9860b"/>
            </g>
          </g>
          <g id="Grupo_148657" data-name="Grupo 148657" transform="translate(0 146.461)">
            <g id="Grupo_148656" data-name="Grupo 148656">
              <g id="Grupo_148655" data-name="Grupo 148655">
                <path id="Trazado_200288" data-name="Trazado 200288" d="M1106.362,1556.518l-36.186-9.81,36.242-9.6Z" transform="translate(-1070.176 -1537.108)" fill="#f9860b"/>
              </g>
            </g>
          </g>
        </g>
        <g id="Grupo_148664" data-name="Grupo 148664" transform="translate(847.833 275.339)">
          <g id="Grupo_148660" data-name="Grupo 148660" transform="translate(0 0)">
            <g id="Grupo_148659" data-name="Grupo 148659">
              <path id="Trazado_200289" data-name="Trazado 200289" d="M1627.036,634.055l-6.449-1.745a245.21,245.21,0,0,0-79.077-252.026l4.294-5.118a251.891,251.891,0,0,1,81.231,258.889Z" transform="translate(-1541.51 -375.166)" fill="#f9860b"/>
            </g>
          </g>
          <g id="Grupo_148663" data-name="Grupo 148663" transform="translate(72.875 248.634)">
            <g id="Grupo_148662" data-name="Grupo 148662">
              <g id="Grupo_148661" data-name="Grupo 148661">
                <path id="Trazado_200290" data-name="Trazado 200290" d="M1758.35,1051.077l-20.5,31.39,2.058-37.435Z" transform="translate(-1737.848 -1045.031)" fill="#f9860b"/>
              </g>
            </g>
          </g>
        </g>
        <g id="Grupo_148670" data-name="Grupo 148670" transform="translate(449.072 528.413)">
          <g id="Grupo_148666" data-name="Grupo 148666" transform="translate(5.706 27.063)">
            <g id="Grupo_148665" data-name="Grupo 148665">
              <path id="Trazado_200291" data-name="Trazado 200291" d="M700.427,1293.981a251.634,251.634,0,0,1-217.88-161.7l6.247-2.369a244.858,244.858,0,0,0,212.094,157.408Z" transform="translate(-482.547 -1129.907)" fill="#f9860b"/>
            </g>
          </g>
          <g id="Grupo_148669" data-name="Grupo 148669" transform="translate(0)">
            <g id="Grupo_148668" data-name="Grupo 148668">
              <g id="Grupo_148667" data-name="Grupo 148667">
                <path id="Trazado_200292" data-name="Trazado 200292" d="M468.994,1094.443,467.175,1057l20.3,31.52Z" transform="translate(-467.175 -1056.995)" fill="#f9860b"/>
              </g>
            </g>
          </g>
        </g>
        <g id="Grupo_148676" data-name="Grupo 148676" transform="translate(556.724 216.415)">
          <g id="Grupo_148672" data-name="Grupo 148672" transform="translate(0 0)">
            <g id="Grupo_148671" data-name="Grupo 148671">
              <path id="Trazado_200293" data-name="Trazado 200293" d="M1024.885,263.032a245.442,245.442,0,0,0-264.134-2.723l-3.542-5.665a252.123,252.123,0,0,1,271.338,2.8Z" transform="translate(-757.21 -216.415)" fill="#f9860b"/>
            </g>
          </g>
          <g id="Grupo_148675" data-name="Grupo 148675" transform="translate(258.308 32.25)">
            <g id="Grupo_148674" data-name="Grupo 148674">
              <g id="Grupo_148673" data-name="Grupo 148673">
                <path id="Trazado_200294" data-name="Trazado 200294" d="M1464.612,303.3l23.475,29.233-34.948-13.576Z" transform="translate(-1453.139 -303.302)" fill="#f9860b"/>
              </g>
            </g>
          </g>
        </g>
        <g id="Grupo_148682" data-name="Grupo 148682" transform="translate(438.386 257.476)">
          <g id="Grupo_148678" data-name="Grupo 148678" transform="translate(0 14.559)">
            <g id="Grupo_148677" data-name="Grupo 148677">
              <path id="Trazado_200295" data-name="Trazado 200295" d="M445.83,623.45a254.152,254.152,0,0,1-1.506-115.668,250.736,250.736,0,0,1,52.953-107.166,253.405,253.405,0,0,1,35.01-34.349l4.192,5.2a247.089,247.089,0,0,0-66.595,83.355,243.786,243.786,0,0,0-19.038,54.4,247.441,247.441,0,0,0,1.468,112.612Z" transform="translate(-438.386 -366.267)" fill="#f9860b"/>
            </g>
          </g>
          <g id="Grupo_148681" data-name="Grupo 148681" transform="translate(85.076 0)">
            <g id="Grupo_148680" data-name="Grupo 148680">
              <g id="Grupo_148679" data-name="Grupo 148679">
                <path id="Trazado_200296" data-name="Trazado 200296" d="M667.6,340.395l35.033-13.354-23.66,29.083Z" transform="translate(-667.595 -327.041)" fill="#f9860b"/>
              </g>
            </g>
          </g>
        </g>
      </g>
      <g id="Grupo_148685" data-name="Grupo 148685" transform="translate(0 58.501)">
        <path id="Trazado_200298" data-name="Trazado 200298" d="M10294-3120.29q3.045,0,6.076.3t6.018.892q2.988.6,5.9,1.479t5.728,2.05q2.814,1.166,5.5,2.6t5.219,3.127q2.533,1.693,4.887,3.625t4.508,4.085q2.153,2.156,4.086,4.508t3.624,4.887q1.692,2.532,3.128,5.218t2.6,5.5q1.165,2.814,2.05,5.729t1.478,5.9q.595,2.988.894,6.019t.3,6.076q0,3.045-.3,6.076t-.894,6.019q-.593,2.986-1.478,5.9t-2.05,5.729q-1.166,2.814-2.6,5.5t-3.128,5.218q-1.692,2.532-3.624,4.887t-4.086,4.508q-2.153,2.154-4.508,4.085t-4.887,3.625q-2.533,1.692-5.219,3.127t-5.5,2.6q-2.814,1.167-5.728,2.05t-5.9,1.479q-2.987.593-6.018.892t-6.076.3q-3.047,0-6.077-.3t-6.018-.892q-2.988-.6-5.9-1.479t-5.728-2.05q-2.815-1.165-5.5-2.6t-5.219-3.127q-2.533-1.693-4.887-3.625t-4.508-4.085q-2.155-2.156-4.086-4.508t-3.624-4.887q-1.692-2.532-3.128-5.218t-2.6-5.5q-1.165-2.814-2.05-5.729t-1.478-5.9q-.595-2.986-.893-6.019t-.3-6.076q0-3.045.3-6.076t.893-6.019q.593-2.987,1.478-5.9t2.05-5.729q1.166-2.814,2.6-5.5t3.128-5.218q1.692-2.532,3.624-4.887t4.086-4.508q2.153-2.153,4.508-4.085t4.887-3.625q2.533-1.692,5.219-3.127t5.5-2.6q2.814-1.167,5.728-2.05t5.9-1.479q2.985-.593,6.018-.892T10294-3120.29Z" transform="translate(-9493.996 7655.789)" fill="#fff" stroke="#f9860b" stroke-width="6"/>
        <g id="Grupo_148635" data-name="Grupo 148635" transform="translate(768.59 4561.896)">
          <path id="Trazado_200259" data-name="Trazado 200259" d="M84.562,4.188V0H30.118V62.82h4.188V71.2H92.938V4.188Zm-50.256,0H80.374V58.632H34.306ZM88.75,67.008H38.494V62.82H84.562V8.376H88.75Z" transform="translate(-30.118)" fill="#206897"/>
          <path id="Trazado_200260" data-name="Trazado 200260" d="M134.728,301.176a6.292,6.292,0,0,0-5.922,4.188H105.412v8.376H109.6v-4.188h4.188v4.188h4.188v-4.188h10.83a6.282,6.282,0,1,0,5.922-8.376Zm0,8.376a2.094,2.094,0,1,1,2.094-2.094A2.1,2.1,0,0,1,134.728,309.552Z" transform="translate(-94.942 -259.296)" fill="#206897"/>
          <path id="Trazado_200261" data-name="Trazado 200261" d="M149.787,60.235H120.471V72.8h29.316ZM145.6,68.611h-20.94V64.423H145.6Z" transform="translate(-107.907 -51.859)" fill="#206897"/>
          <path id="Trazado_200262" data-name="Trazado 200262" d="M120.471,180.706h29.316v4.188H120.471Z" transform="translate(-107.907 -155.578)" fill="#206897"/>
          <path id="Trazado_200263" data-name="Trazado 200263" d="M120.471,240.941h29.316v4.188H120.471Z" transform="translate(-107.907 -207.437)" fill="#206897"/>
        </g>
      </g>
      <g id="Grupo_148686" data-name="Grupo 148686" transform="translate(66.009 151.714)">
        <path id="Trazado_200301" data-name="Trazado 200301" d="M10294-3120.29q3.045,0,6.076.3t6.018.892q2.988.6,5.9,1.479t5.728,2.05q2.814,1.166,5.5,2.6t5.219,3.127q2.533,1.693,4.887,3.625t4.508,4.085q2.153,2.156,4.086,4.508t3.624,4.887q1.692,2.532,3.128,5.218t2.6,5.5q1.165,2.814,2.05,5.729t1.478,5.9q.595,2.988.894,6.019t.3,6.076q0,3.045-.3,6.076t-.894,6.019q-.593,2.986-1.478,5.9t-2.05,5.729q-1.166,2.814-2.6,5.5t-3.128,5.218q-1.692,2.532-3.624,4.887t-4.086,4.508q-2.153,2.154-4.508,4.085t-4.887,3.625q-2.533,1.692-5.219,3.127t-5.5,2.6q-2.814,1.167-5.728,2.05t-5.9,1.479q-2.987.593-6.018.892t-6.076.3q-3.047,0-6.077-.3t-6.018-.892q-2.988-.6-5.9-1.479t-5.728-2.05q-2.815-1.165-5.5-2.6t-5.219-3.127q-2.533-1.693-4.887-3.625t-4.508-4.085q-2.155-2.156-4.086-4.508t-3.624-4.887q-1.692-2.532-3.128-5.218t-2.6-5.5q-1.165-2.814-2.05-5.729t-1.478-5.9q-.595-2.986-.893-6.019t-.3-6.076q0-3.045.3-6.076t.893-6.019q.593-2.987,1.478-5.9t2.05-5.729q1.166-2.814,2.6-5.5t3.128-5.218q1.692-2.532,3.624-4.887t4.086-4.508q2.153-2.153,4.508-4.085t4.887-3.625q2.533-1.692,5.219-3.127t5.5-2.6q2.814-1.167,5.728-2.05t5.9-1.479q2.985-.593,6.018-.892T10294-3120.29Z" transform="translate(-9842 8104.614)" fill="#fff" stroke="#f9860b" stroke-width="6"/>
        <path id="Trazado_200267" data-name="Trazado 200267" d="M4.854,43.046A1.628,1.628,0,0,1,5.3,44.694l-1.073,4A6.149,6.149,0,0,0,8.565,56.22l4.178,1.119a1.628,1.628,0,0,1,1.207,1.207l1.073,4a6.149,6.149,0,0,0,7.522,4.343l4.178-1.119a1.628,1.628,0,0,1,1.649.442L31.3,69.148a6.149,6.149,0,0,0,8.685,0l3.058-3.058a1.627,1.627,0,0,1,1.649-.442l4,1.073a6.149,6.149,0,0,0,7.522-4.343L57.34,58.2a1.628,1.628,0,0,1,1.207-1.207l4-1.073A6.149,6.149,0,0,0,66.894,48.4l-1.119-4.178a1.628,1.628,0,0,1,.442-1.649l2.931-2.931a6.149,6.149,0,0,0,0-8.685L66.09,27.9a1.628,1.628,0,0,1-.442-1.649l1.073-4a6.149,6.149,0,0,0-4.343-7.522L58.2,13.6A1.628,1.628,0,0,1,56.993,12.4l-1.073-4A6.149,6.149,0,0,0,48.4,4.049L44.221,5.168a1.627,1.627,0,0,1-1.649-.442L39.641,1.795a6.149,6.149,0,0,0-8.685,0L27.9,4.853a1.628,1.628,0,0,1-1.649.442l-4-1.073a6.148,6.148,0,0,0-7.522,4.343L13.6,12.742A1.628,1.628,0,0,1,12.4,13.95l-4,1.073a6.149,6.149,0,0,0-4.343,7.522l1.12,4.178a1.628,1.628,0,0,1-.442,1.649L1.8,31.3a6.149,6.149,0,0,0,0,8.685Zm.077-8.608,2.931-2.931a6.079,6.079,0,0,0,1.589-5.932L8.332,21.4a1.715,1.715,0,0,1,1.207-2.091l4-1.073a6.078,6.078,0,0,0,4.342-4.343l1.119-4.178A1.71,1.71,0,0,1,21.1,8.5l4,1.073a6.079,6.079,0,0,0,5.932-1.589L34.091,4.93a1.709,1.709,0,0,1,2.414,0l2.93,2.931a6.079,6.079,0,0,0,5.932,1.59l4.178-1.119a1.715,1.715,0,0,1,2.091,1.207l1.073,4a6.078,6.078,0,0,0,4.343,4.342L61.23,19A1.71,1.71,0,0,1,62.438,21.1l-1.073,4a6.079,6.079,0,0,0,1.59,5.932l3.058,3.058a1.715,1.715,0,0,1,0,2.414l-2.931,2.931a6.079,6.079,0,0,0-1.589,5.932l1.119,4.178A1.715,1.715,0,0,1,61.4,51.637l-4,1.073a6.078,6.078,0,0,0-4.343,4.343L51.938,61.23a1.715,1.715,0,0,1-2.091,1.207l-4-1.073a6.079,6.079,0,0,0-5.932,1.59l-3.058,3.058a1.71,1.71,0,0,1-2.415,0l-2.931-2.931a6.074,6.074,0,0,0-4.315-1.8,6.244,6.244,0,0,0-1.617.215L21.4,62.611A1.715,1.715,0,0,1,19.305,61.4l-1.073-4a6.078,6.078,0,0,0-4.343-4.342l-4.177-1.12a1.71,1.71,0,0,1-1.207-2.091l1.073-4A6.079,6.079,0,0,0,7.989,39.91L4.931,36.852a1.715,1.715,0,0,1,0-2.414ZM35.472,55.458A19.987,19.987,0,1,0,15.485,35.471,20.01,20.01,0,0,0,35.472,55.458Zm0-35.54A15.553,15.553,0,1,1,19.919,35.471h0A15.571,15.571,0,0,1,35.472,19.918ZM29.8,43.046,23.83,36.138a2.217,2.217,0,1,1,3.355-2.9h0l4.508,5.217L43.974,27.679a2.217,2.217,0,1,1,2.945,3.315l-.02.018L32.938,43.263a2.217,2.217,0,0,1-1.462.551c-.051,0-.1,0-.152-.005A2.217,2.217,0,0,1,29.8,43.046Z" transform="translate(416.524 5010.848)" fill="#206897"/>
      </g>
      <g id="Grupo_148684" data-name="Grupo 148684" transform="translate(105.001 147.929)">
        <path id="Trazado_200297" data-name="Trazado 200297" d="M10294-3120.29q3.045,0,6.076.3t6.018.892q2.988.6,5.9,1.479t5.728,2.05q2.814,1.166,5.5,2.6t5.219,3.127q2.533,1.693,4.887,3.625t4.508,4.085q2.153,2.156,4.086,4.508t3.624,4.887q1.692,2.532,3.128,5.218t2.6,5.5q1.165,2.814,2.05,5.729t1.478,5.9q.595,2.988.894,6.019t.3,6.076q0,3.045-.3,6.076t-.894,6.019q-.593,2.986-1.478,5.9t-2.05,5.729q-1.166,2.814-2.6,5.5t-3.128,5.218q-1.692,2.532-3.624,4.887t-4.086,4.508q-2.153,2.154-4.508,4.085t-4.887,3.625q-2.533,1.692-5.219,3.127t-5.5,2.6q-2.814,1.167-5.728,2.05t-5.9,1.479q-2.987.593-6.018.892t-6.076.3q-3.047,0-6.077-.3t-6.018-.892q-2.988-.6-5.9-1.479t-5.728-2.05q-2.815-1.165-5.5-2.6t-5.219-3.127q-2.533-1.693-4.887-3.625t-4.508-4.085q-2.155-2.156-4.086-4.508t-3.624-4.887q-1.692-2.532-3.128-5.218t-2.6-5.5q-1.165-2.814-2.05-5.729t-1.478-5.9q-.595-2.986-.893-6.019t-.3-6.076q0-3.045.3-6.076t.893-6.019q.593-2.987,1.478-5.9t2.05-5.729q1.166-2.814,2.6-5.5t3.128-5.218q1.692-2.532,3.624-4.887t4.086-4.508q2.153-2.153,4.508-4.085t4.887-3.625q2.533-1.692,5.219-3.127t5.5-2.6q2.814-1.167,5.728-2.05t5.9-1.479q2.985-.593,6.018-.892T10294-3120.29Z" transform="translate(-9880.992 7690.353)" fill="#fff" stroke="#f9860b" stroke-width="6"/>
        <g id="Grupo_148645" data-name="Grupo 148645" transform="translate(370 4594.122)">
          <g id="Grupo_148642" data-name="Grupo 148642" transform="translate(0 0)">
            <g id="Grupo_148641" data-name="Grupo 148641">
              <g id="Grupo_148640" data-name="Grupo 148640">
                <g id="Grupo_148638" data-name="Grupo 148638">
                  <path id="Trazado_200268" data-name="Trazado 200268" d="M0,0" fill="#206897" stroke="#206897" stroke-width="1"/>
                </g>
                <g id="Grupo_148639" data-name="Grupo 148639" transform="translate(28.784 40.724)">
                  <path id="Trazado_200270" data-name="Trazado 200270" d="M194.24,274.814h10.826" transform="translate(-194.24 -274.814)" fill="#206897" stroke="#206897" stroke-width="1"/>
                </g>
              </g>
            </g>
          </g>
          <g id="Grupo_148644" data-name="Grupo 148644" transform="translate(0 0)">
            <g id="Grupo_148643" data-name="Grupo 148643" transform="translate(27.706 39.613)">
              <path id="Trazado_200271" data-name="Trazado 200271" d="M381.359,267.314H370.533a1.112,1.112,0,0,0,0,2.223h10.826A1.112,1.112,0,0,0,381.359,267.314Z" transform="translate(-342.413 -267.314)" fill="#206897" stroke="#206897" stroke-width="1"/>
              <path id="Trazado_200272" data-name="Trazado 200272" d="M381.359,311.443H370.533a1.112,1.112,0,0,0,0,2.223h10.826A1.112,1.112,0,0,0,381.359,311.443Z" transform="translate(-342.413 -304.904)" fill="#206897" stroke="#206897" stroke-width="1"/>
              <path id="Trazado_200273" data-name="Trazado 200273" d="M381.359,355.573H370.533a1.112,1.112,0,0,0,0,2.223h10.826A1.112,1.112,0,0,0,381.359,355.573Z" transform="translate(-342.413 -342.494)" fill="#206897" stroke="#206897" stroke-width="1"/>
              <path id="Trazado_200274" data-name="Trazado 200274" d="M381.359,399.7H370.533a1.112,1.112,0,0,0,0,2.223h10.826A1.112,1.112,0,0,0,381.359,399.7Z" transform="translate(-342.413 -380.084)" fill="#206897" stroke="#206897" stroke-width="1"/>
              <path id="Trazado_200275" data-name="Trazado 200275" d="M198.871,399.7H188.045a1.112,1.112,0,0,0,0,2.223h10.826A1.112,1.112,0,0,0,198.871,399.7Z" transform="translate(-186.967 -380.084)" fill="#206897" stroke="#206897" stroke-width="1"/>
            </g>
            <path id="Trazado_200276" data-name="Trazado 200276" d="M71.228,29.92h-17.9a6.722,6.722,0,0,0-5.613,3.028,6.733,6.733,0,0,0-2.166-2.078v-.294a3.81,3.81,0,0,0,2.325-3.505V24.985A13.312,13.312,0,0,0,50.557,3.572,13.206,13.206,0,0,0,40.524.034a13.065,13.065,0,0,0-5.7,1.758,1.112,1.112,0,0,0,1.118,1.921A10.861,10.861,0,0,1,40.68,2.251,11,11,0,0,1,49.042,5.2a11.09,11.09,0,0,1-2.756,18.108,1.111,1.111,0,0,0-.629,1v2.761a1.583,1.583,0,0,1-1.582,1.582H42.595V17.687a6.629,6.629,0,0,0,3.61-1.863,1.112,1.112,0,0,0-1.572-1.572,4.451,4.451,0,0,1-6.3,0,1.112,1.112,0,0,0-1.572,1.572,6.629,6.629,0,0,0,3.61,1.863V28.651H38.893a1.583,1.583,0,0,1-1.582-1.582V24.308a1.112,1.112,0,0,0-.629-1A11.073,11.073,0,0,1,32.193,7.273a1.112,1.112,0,0,0-1.86-1.217,13.225,13.225,0,0,0-2.125,6.3,13.643,13.643,0,0,0-.025,1.395A5.956,5.956,0,0,0,21.3,15.9a5.963,5.963,0,0,0-10.82,3.461c0,.048,0,.1,0,.157a6.231,6.231,0,0,0-5.366,6.163v2.288A6.232,6.232,0,0,0,0,34.093v3.335a6.232,6.232,0,0,0,5.11,6.122v2.288A6.231,6.231,0,0,0,10.477,52c0,.056,0,.109,0,.157a5.963,5.963,0,0,0,9.088,5.081V71.226a4.652,4.652,0,0,0,4.646,4.646H60.907a1.112,1.112,0,0,0,0-2.223H48.97a4.509,4.509,0,0,1,4.362-3.39H73.651v.966a2.426,2.426,0,0,1-2.423,2.423h-4.5a1.112,1.112,0,0,0,0,2.223h4.5a4.652,4.652,0,0,0,4.646-4.646V34.566a4.651,4.651,0,0,0-4.646-4.646ZM20.187,52.158a3.743,3.743,0,0,1-7.486,0c0-.406-.008-3.234-.008-3.234a1.112,1.112,0,0,0-2.223,0v.818a4.005,4.005,0,0,1-3.135-3.9V41.88a3.538,3.538,0,0,1,7.075,0v2.168a1.112,1.112,0,0,0,2.223,0V41.88a5.76,5.76,0,0,0-11.489-.6,4.005,4.005,0,0,1-2.919-3.85V34.093a4,4,0,0,1,4-4c1.634,0,3.325.034,4.976.034a5.44,5.44,0,0,0,5.433-5.433,1.112,1.112,0,0,0-2.223,0,3.214,3.214,0,0,1-2.979,3.2,1.118,1.118,0,0,0-.232-.025H7.334V25.683a4,4,0,0,1,4-4c1.014,0,2.029.011,3.044.011a1.112,1.112,0,0,0,0-2.223H12.7c0-.038,0-.075,0-.109a3.743,3.743,0,1,1,7.486,0Zm19.45-21.284H43.33v2.61a1.039,1.039,0,0,1-1.038,1.038H40.674a1.039,1.039,0,0,1-1.038-1.038ZM22.409,19.364A3.743,3.743,0,0,1,28.557,16.5a13.25,13.25,0,0,0,1.12,2.977H28.224a1.112,1.112,0,0,0,0,2.223h2.791a1.137,1.137,0,0,0,.115-.006,13.306,13.306,0,0,0,3.958,3.3,14.031,14.031,0,0,0,.086,2.885H31.4a3.21,3.21,0,0,1-3.211-3.177,1.112,1.112,0,0,0-2.223,0A5.44,5.44,0,0,0,31.4,30.128a31.412,31.412,0,0,0,5.169-.052,3.81,3.81,0,0,0,.847.5v2.91a3.265,3.265,0,0,0,2.958,3.246v.7a4.005,4.005,0,0,1-2.919,3.85,5.761,5.761,0,0,0-11.49.6v2.168a1.112,1.112,0,0,0,2.223,0V41.88a3.538,3.538,0,1,1,7.075,0v3.958a4.005,4.005,0,0,1-3.144,3.906v-.8a1.111,1.111,0,0,0-2.223,0s0,2.79,0,3.217a3.743,3.743,0,1,1-7.486,0V19.364Zm1.8,54.286a2.426,2.426,0,0,1-2.423-2.423V70.26H42.107a4.509,4.509,0,0,1,4.362,3.39H24.212Zm22.4-3.879a6.7,6.7,0,0,0-4.5-1.733H21.788V56.22a5.958,5.958,0,0,0,9.653-1.306h8.17a1.112,1.112,0,0,0,0-2.223H32.093c.016-.176.025-.354.025-.533,0-.048,0-.1,0-.157a6.238,6.238,0,0,0,4.824-3.626h2.669a1.112,1.112,0,0,0,0-2.223H37.476c.005-.1.008-.208.008-.314V43.551a6.232,6.232,0,0,0,5.11-6.122v-.7a3.265,3.265,0,0,0,2.947-2.991,4.508,4.508,0,0,1,1.066,2.9Zm27.043-1.733H53.332a6.7,6.7,0,0,0-4.5,1.733V36.644a4.506,4.506,0,0,1,4.5-4.5h17.9a2.426,2.426,0,0,1,2.423,2.423V68.038Z" transform="translate(-0.001 0)" fill="#206897" stroke="#206897" stroke-width="1"/>
          </g>
        </g>
      </g>
      <g id="Grupo_148688" data-name="Grupo 148688" transform="translate(-19.5 158.491)">
        <path id="Trazado_200299" data-name="Trazado 200299" d="M10294-3120.29q3.045,0,6.076.3t6.018.892q2.988.6,5.9,1.479t5.728,2.05q2.814,1.166,5.5,2.6t5.219,3.127q2.533,1.693,4.887,3.625t4.508,4.085q2.153,2.156,4.086,4.508t3.624,4.887q1.692,2.532,3.128,5.218t2.6,5.5q1.165,2.814,2.05,5.729t1.478,5.9q.595,2.988.894,6.019t.3,6.076q0,3.045-.3,6.076t-.894,6.019q-.593,2.986-1.478,5.9t-2.05,5.729q-1.166,2.814-2.6,5.5t-3.128,5.218q-1.692,2.532-3.624,4.887t-4.086,4.508q-2.153,2.154-4.508,4.085t-4.887,3.625q-2.533,1.692-5.219,3.127t-5.5,2.6q-2.814,1.167-5.728,2.05t-5.9,1.479q-2.987.593-6.018.892t-6.076.3q-3.047,0-6.077-.3t-6.018-.892q-2.988-.6-5.9-1.479t-5.728-2.05q-2.815-1.165-5.5-2.6t-5.219-3.127q-2.533-1.693-4.887-3.625t-4.508-4.085q-2.155-2.156-4.086-4.508t-3.624-4.887q-1.692-2.532-3.128-5.218t-2.6-5.5q-1.165-2.814-2.05-5.729t-1.478-5.9q-.595-2.986-.893-6.019t-.3-6.076q0-3.045.3-6.076t.893-6.019q.593-2.987,1.478-5.9t2.05-5.729q1.166-2.814,2.6-5.5t3.128-5.218q1.692-2.532,3.624-4.887t4.086-4.508q2.153-2.153,4.508-4.085t4.887-3.625q2.533-1.692,5.219-3.127t5.5-2.6q2.814-1.167,5.728-2.05t5.9-1.479q2.985-.593,6.018-.892T10294-3120.29Z" transform="translate(-9192.5 7679.79)" fill="#fff" stroke="#f9860b" stroke-width="6"/>
        <g id="Layer_2" data-name="Layer 2" transform="translate(1070 4590)">
          <path id="Trazado_200264" data-name="Trazado 200264" d="M118.227,270.789a8.678,8.678,0,1,0,12.283,0,8.678,8.678,0,0,0-12.283,0Z" transform="translate(-102.997 -234.872)" fill="#206897"/>
          <g id="Grupo_148636" data-name="Grupo 148636" transform="translate(0 0)">
            <path id="Trazado_200265" data-name="Trazado 200265" d="M44.5,85.518a22.413,22.413,0,1,1,7.732-43.444L71.59,22.715a2.146,2.146,0,0,1,1.776-.622l9.2,1.021a2.167,2.167,0,0,1,1.915,1.918l1.024,9.2a2.173,2.173,0,0,1-.622,1.773L82.84,38.056a2.12,2.12,0,0,1-.848.524l-5.109,1.7-1.7,5.106a2.176,2.176,0,0,1-1.374,1.371l-5.112,1.7L67,53.573a2.25,2.25,0,0,1-.527.848l-.946.946a22.564,22.564,0,0,1-5.175,23.6A22.275,22.275,0,0,1,44.5,85.518Zm.043-40.467a18.066,18.066,0,1,0,12.75,30.836l0,0a18.175,18.175,0,0,0,3.711-20.148,2.167,2.167,0,0,1,.448-2.418l1.6-1.6,1.883-5.652a2.183,2.183,0,0,1,1.371-1.371l5.112-1.7,1.686-5.1a2.181,2.181,0,0,1,1.371-1.374l5.644-1.889.946-.946-.714-6.442-6.436-.717L54.285,46.155a2.178,2.178,0,0,1-2.418.448,17.994,17.994,0,0,0-7.322-1.553Z" transform="translate(-22.083 -22.079)" fill="#206897"/>
            <path id="Trazado_200266" data-name="Trazado 200266" d="M119.945,281.746A9.4,9.4,0,1,1,126.6,279,9.4,9.4,0,0,1,119.945,281.746Zm0-14.455a5.06,5.06,0,1,0,3.578,1.478A5.059,5.059,0,0,0,119.948,267.291Z" transform="translate(-98.565 -230.292)" fill="#206897"/>
          </g>
        </g>
      </g>
      <g id="Grupo_148687" data-name="Grupo 148687" transform="translate(18.5 73.537)">
        <path id="Trazado_200300" data-name="Trazado 200300" d="M10294-3120.29q3.045,0,6.076.3t6.018.892q2.988.6,5.9,1.479t5.728,2.05q2.814,1.166,5.5,2.6t5.219,3.127q2.533,1.693,4.887,3.625t4.508,4.085q2.153,2.156,4.086,4.508t3.624,4.887q1.692,2.532,3.128,5.218t2.6,5.5q1.165,2.814,2.05,5.729t1.478,5.9q.595,2.988.894,6.019t.3,6.076q0,3.045-.3,6.076t-.894,6.019q-.593,2.986-1.478,5.9t-2.05,5.729q-1.166,2.814-2.6,5.5t-3.128,5.218q-1.692,2.532-3.624,4.887t-4.086,4.508q-2.153,2.154-4.508,4.085t-4.887,3.625q-2.533,1.692-5.219,3.127t-5.5,2.6q-2.814,1.167-5.728,2.05t-5.9,1.479q-2.987.593-6.018.892t-6.076.3q-3.047,0-6.077-.3t-6.018-.892q-2.988-.6-5.9-1.479t-5.728-2.05q-2.815-1.165-5.5-2.6t-5.219-3.127q-2.533-1.693-4.887-3.625t-4.508-4.085q-2.155-2.156-4.086-4.508t-3.624-4.887q-1.692-2.532-3.128-5.218t-2.6-5.5q-1.165-2.814-2.05-5.729t-1.478-5.9q-.595-2.986-.893-6.019t-.3-6.076q0-3.045.3-6.076t.893-6.019q.593-2.987,1.478-5.9t2.05-5.729q1.166-2.814,2.6-5.5t3.128-5.218q1.692-2.532,3.624-4.887t4.086-4.508q2.153-2.153,4.508-4.085t4.887-3.625q2.533-1.692,5.219-3.127t5.5-2.6q2.814-1.167,5.728-2.05t5.9-1.479q2.985-.593,6.018-.892T10294-3120.29Z" transform="translate(-9230.5 8182.79)" fill="#fff" stroke="#f9860b" stroke-width="6"/>
        <g id="Grupo_148648" data-name="Grupo 148648" transform="translate(1018 5091)">
          <g id="Grupo_148646" data-name="Grupo 148646" transform="translate(82.94 1.235)">
            <path id="Trazado_200277" data-name="Trazado 200277" d="M473.088,74.676a3.088,3.088,0,1,1,3.088-3.088A3.092,3.092,0,0,1,473.088,74.676Z" transform="translate(-470 -68.5)" fill="#206897"/>
          </g>
          <path id="Trazado_200279" data-name="Trazado 200279" d="M35.088,238.676a3.088,3.088,0,1,1,3.088-3.088A3.092,3.092,0,0,1,35.088,238.676Z" transform="translate(-26.353 -202.324)" fill="#206897"/>
          <g id="Grupo_148647" data-name="Grupo 148647" transform="translate(75.675 26.088)">
            <path id="Trazado_200280" data-name="Trazado 200280" d="M430.714,213.1a1.883,1.883,0,1,1,1.883-1.883A1.885,1.885,0,0,1,430.714,213.1Z" transform="translate(-428.831 -209.331)" fill="#206897"/>
            <path id="Trazado_200281" data-name="Trazado 200281" d="M439.714,279.1a1.883,1.883,0,1,1,1.883-1.883A1.885,1.885,0,0,1,439.714,279.1Z" transform="translate(-436.243 -263.684)" fill="#206897"/>
          </g>
          <path id="Trazado_200282" data-name="Trazado 200282" d="M29.323,225.5a4.323,4.323,0,1,0,4.323,4.323A4.328,4.328,0,0,0,29.323,225.5Zm0,6A1.676,1.676,0,1,1,31,229.823,1.678,1.678,0,0,1,29.323,231.5Z" transform="translate(-20.588 -196.559)" fill="#206897"/>
          <path id="Trazado_200283" data-name="Trazado 200283" d="M81.617,67.1a1.336,1.336,0,0,0,.271-.028,4.324,4.324,0,1,0,.03-2.583,1.328,1.328,0,0,0-.3-.036H58.271a1.324,1.324,0,0,0-.936.388L46.421,75.75a21.957,21.957,0,0,0-29.285,7.5,12.441,12.441,0,1,0-.176,23.106,21.983,21.983,0,0,0,24.3,9.855l10.515,10.515a1.324,1.324,0,0,0,.936.388H80.489a4.325,4.325,0,1,0,.025-2.647H53.261l-9.194-9.194a22.1,22.1,0,0,0,10.162-8.48l3.623,3.623a1.324,1.324,0,0,0,.936.388H69.582a4.322,4.322,0,1,0-.042-2.647h-10.2l-3.767-3.767a21.809,21.809,0,0,0,2.095-8.12H68.9l3.043,5.49a1.324,1.324,0,0,0,1.136.682l3.306.054a3.087,3.087,0,1,0-.047-2.648l-2.452-.04-1.96-3.537H80.5a4.323,4.323,0,1,0,0-2.647H69.371l2.823-2.824h2.578a3.088,3.088,0,1,0,0-2.647H71.646a1.323,1.323,0,0,0-.936.388l-5.083,5.083H57.664a21.845,21.845,0,0,0-.907-5.064l6.29-6.29h10.2a4.325,4.325,0,1,0,.04-2.647H62.5a1.324,1.324,0,0,0-.936.388l-5.834,5.834A22.107,22.107,0,0,0,48.7,77.215L58.82,67.1Zm3,57.051a1.676,1.676,0,1,1-1.676,1.676A1.678,1.678,0,0,1,84.617,124.146ZM73.676,107.735A1.676,1.676,0,1,1,72,109.411,1.678,1.678,0,0,1,73.676,107.735Zm3.706-28.412A1.676,1.676,0,1,1,75.705,81,1.678,1.678,0,0,1,77.382,79.323ZM2.647,94.764a9.794,9.794,0,1,1,9.794,9.794A9.805,9.805,0,0,1,2.647,94.764ZM24.755,93H35.382v5.406H34.04a1.323,1.323,0,0,0-.9.353l-.556.516-.31-.381a1.324,1.324,0,0,0-1.027-.488H27.82a1.324,1.324,0,0,0-.9.358l-.67.628-.67-.628a1.323,1.323,0,0,0-.9-.358h-.332A12.393,12.393,0,0,0,24.755,93Zm11.951-2.647H35.47V89.294a1.676,1.676,0,1,1,3.353,0v12a1.676,1.676,0,1,1-3.353,0,1.323,1.323,0,0,0-.023-.241h1.258a1.323,1.323,0,0,0,1.324-1.324V91.676A1.323,1.323,0,0,0,36.706,90.353Zm47.911,2.912a1.676,1.676,0,1,1-1.676,1.676A1.678,1.678,0,0,1,84.617,93.264ZM55.058,94.941a19.325,19.325,0,0,1-35.746,10.188,12.492,12.492,0,0,0,1.135-.852,17.91,17.91,0,0,0,30.63-18.569,1.311,1.311,0,0,0-2.054-.239L49,85.488a1.312,1.312,0,0,0-.185,1.6,15.258,15.258,0,0,1-13.085,23.117,15.362,15.362,0,0,1-13.386-7.928,12.485,12.485,0,0,0,.821-1.225h.976l1.194,1.119a1.324,1.324,0,0,0,1.81,0l1.194-1.119h2.275l.8.988a1.323,1.323,0,0,0,.934.485c.031,0,.062,0,.092,0a1.323,1.323,0,0,0,.524-.11,4.323,4.323,0,0,0,8.5-1.126v-12a4.323,4.323,0,0,0-8.647,0v1.059H24.071a12.423,12.423,0,0,0-1.61-2.952,15.255,15.255,0,0,1,21.4-5.376,1.312,1.312,0,0,0,1.637-.184l.019-.019a1.312,1.312,0,0,0-.235-2.029,17.9,17.9,0,0,0-24.694,5.582,12.5,12.5,0,0,0-1.119-.869A19.325,19.325,0,0,1,55.058,94.941Z" transform="translate(0 -61.5)" fill="#206897"/>
        </g>
      </g>
    </g>
    <path id="Trazado_202164" data-name="Trazado 202164" d="M33.606,13.99V19H31.919V6.2h4.72A4.742,4.742,0,0,1,39.93,7.275a3.635,3.635,0,0,1,1.191,2.839,3.587,3.587,0,0,1-1.165,2.87,4.954,4.954,0,0,1-3.335,1.006Zm0-1.38h3.032a3.032,3.032,0,0,0,2.074-.638,2.334,2.334,0,0,0,.721-1.845A2.411,2.411,0,0,0,38.713,8.3a2.84,2.84,0,0,0-1.978-.713H33.606Zm14.01-1.661a4.873,4.873,0,0,0-.8-.062,2.143,2.143,0,0,0-2.171,1.362V19H43.02V9.49H44.6l.026,1.1A2.532,2.532,0,0,1,46.9,9.314a1.661,1.661,0,0,1,.721.123Zm.888,3.208a5.617,5.617,0,0,1,.549-2.514,4.1,4.1,0,0,1,1.529-1.723,4.163,4.163,0,0,1,2.237-.606,4.01,4.01,0,0,1,3.142,1.345,5.174,5.174,0,0,1,1.2,3.577v.114a5.666,5.666,0,0,1-.532,2.492,4.038,4.038,0,0,1-1.521,1.718,4.211,4.211,0,0,1-2.272.615A4,4,0,0,1,49.7,17.831a5.147,5.147,0,0,1-1.2-3.56Zm1.635.193a4.068,4.068,0,0,0,.734,2.54,2.487,2.487,0,0,0,3.933-.013,4.449,4.449,0,0,0,.729-2.72,4.061,4.061,0,0,0-.743-2.536,2.361,2.361,0,0,0-1.973-.971,2.335,2.335,0,0,0-1.942.958A4.416,4.416,0,0,0,50.139,14.351Zm17.095,0a5.694,5.694,0,0,1-.993,3.5,3.183,3.183,0,0,1-2.689,1.327,3.488,3.488,0,0,1-2.725-1.1v4.579H59.2V9.49h1.485l.079,1.055a3.35,3.35,0,0,1,2.76-1.23,3.243,3.243,0,0,1,2.711,1.292,5.756,5.756,0,0,1,1,3.595Zm-1.626-.185a4.2,4.2,0,0,0-.686-2.54,2.208,2.208,0,0,0-1.881-.932A2.39,2.39,0,0,0,60.826,12v4.544a2.4,2.4,0,0,0,2.232,1.3,2.2,2.2,0,0,0,1.859-.927A4.587,4.587,0,0,0,65.607,14.166ZM71.065,19H69.439V9.49h1.626ZM69.308,6.968a.971.971,0,0,1,.242-.668.907.907,0,0,1,.716-.272.922.922,0,0,1,.721.272.96.96,0,0,1,.246.668.929.929,0,0,1-.246.659.938.938,0,0,1-.721.264.924.924,0,0,1-.716-.264A.938.938,0,0,1,69.308,6.968Zm8.306,12.208a4.155,4.155,0,0,1-3.146-1.27,4.714,4.714,0,0,1-1.213-3.4v-.3a5.707,5.707,0,0,1,.541-2.527,4.217,4.217,0,0,1,1.512-1.74,3.8,3.8,0,0,1,2.1-.628,3.562,3.562,0,0,1,2.883,1.222,5.289,5.289,0,0,1,1.028,3.5v.677H74.88a3.38,3.38,0,0,0,.822,2.272,2.583,2.583,0,0,0,2,.866A2.832,2.832,0,0,0,79.16,17.5a3.666,3.666,0,0,0,1.046-.932l.993.773A3.993,3.993,0,0,1,77.613,19.176Zm-.2-8.525a2.169,2.169,0,0,0-1.652.716,3.482,3.482,0,0,0-.826,2.008H79.7v-.123a3.1,3.1,0,0,0-.668-1.92A2.042,2.042,0,0,0,77.411,10.65Zm5.4,3.516a5.571,5.571,0,0,1,1.037-3.52,3.529,3.529,0,0,1,5.361-.189V5.5h1.626V19H89.338l-.079-1.02a3.311,3.311,0,0,1-2.716,1.2,3.248,3.248,0,0,1-2.694-1.354,5.634,5.634,0,0,1-1.042-3.533Zm1.626.185a4.218,4.218,0,0,0,.668,2.531,2.159,2.159,0,0,0,1.846.914,2.372,2.372,0,0,0,2.259-1.389V12.039a2.39,2.39,0,0,0-2.241-1.345,2.17,2.17,0,0,0-1.863.923A4.644,4.644,0,0,0,84.434,14.351ZM99.226,19A3.416,3.416,0,0,1,99,18a3.628,3.628,0,0,1-2.707,1.178,3.357,3.357,0,0,1-2.307-.8,2.573,2.573,0,0,1-.9-2.017,2.688,2.688,0,0,1,1.129-2.307,5.325,5.325,0,0,1,3.177-.822h1.582v-.747a1.826,1.826,0,0,0-.51-1.358,2.049,2.049,0,0,0-1.5-.505,2.371,2.371,0,0,0-1.459.439,1.3,1.3,0,0,0-.589,1.063H93.275a2.244,2.244,0,0,1,.505-1.375A3.449,3.449,0,0,1,95.152,9.7a4.613,4.613,0,0,1,1.9-.387,3.759,3.759,0,0,1,2.575.822A2.964,2.964,0,0,1,100.6,12.4v4.377a5.351,5.351,0,0,0,.334,2.083V19Zm-2.7-1.239a2.858,2.858,0,0,0,1.45-.4,2.392,2.392,0,0,0,.993-1.028V14.386H97.7q-2.988,0-2.988,1.749a1.48,1.48,0,0,0,.51,1.2A1.959,1.959,0,0,0,96.527,17.761Zm6.223-3.595a5.571,5.571,0,0,1,1.037-3.52,3.529,3.529,0,0,1,5.361-.189V5.5h1.626V19H109.28l-.079-1.02a3.311,3.311,0,0,1-2.716,1.2,3.248,3.248,0,0,1-2.694-1.354,5.634,5.634,0,0,1-1.042-3.533Zm1.626.185a4.218,4.218,0,0,0,.668,2.531,2.159,2.159,0,0,0,1.846.914,2.372,2.372,0,0,0,2.259-1.389V12.039a2.39,2.39,0,0,0-2.241-1.345,2.17,2.17,0,0,0-1.863.923A4.644,4.644,0,0,0,104.376,14.351Z" transform="translate(729 4582)" fill="#12263f"/>
    <path id="Trazado_202166" data-name="Trazado 202166" d="M26.268,15.651H20.906L19.7,19h-1.74L22.849,6.2h1.477l4.9,12.8H27.489Zm-4.852-1.38h4.351l-2.18-5.985ZM34.5,17.849a2.342,2.342,0,0,0,1.521-.527A1.855,1.855,0,0,0,36.744,16h1.538a2.949,2.949,0,0,1-.562,1.556,3.7,3.7,0,0,1-1.384,1.178,3.994,3.994,0,0,1-1.833.439,3.918,3.918,0,0,1-3.089-1.3,5.163,5.163,0,0,1-1.147-3.546v-.272a5.725,5.725,0,0,1,.51-2.47A3.883,3.883,0,0,1,32.24,9.912a4.157,4.157,0,0,1,2.254-.6,3.814,3.814,0,0,1,2.659.958,3.424,3.424,0,0,1,1.129,2.487H36.744a2.241,2.241,0,0,0-.7-1.516,2.174,2.174,0,0,0-1.551-.593,2.276,2.276,0,0,0-1.92.892,4.19,4.19,0,0,0-.681,2.58v.308a4.106,4.106,0,0,0,.677,2.531A2.287,2.287,0,0,0,34.5,17.849Zm9.422,0a2.342,2.342,0,0,0,1.521-.527A1.855,1.855,0,0,0,46.166,16H47.7a2.949,2.949,0,0,1-.562,1.556,3.7,3.7,0,0,1-1.384,1.178,3.994,3.994,0,0,1-1.833.439,3.918,3.918,0,0,1-3.089-1.3,5.163,5.163,0,0,1-1.147-3.546v-.272a5.725,5.725,0,0,1,.51-2.47,3.883,3.883,0,0,1,1.463-1.679,4.157,4.157,0,0,1,2.254-.6,3.814,3.814,0,0,1,2.659.958A3.424,3.424,0,0,1,47.7,12.76H46.166a2.241,2.241,0,0,0-.7-1.516,2.174,2.174,0,0,0-1.551-.593,2.276,2.276,0,0,0-1.92.892,4.19,4.19,0,0,0-.681,2.58v.308a4.106,4.106,0,0,0,.677,2.531A2.287,2.287,0,0,0,43.925,17.849Zm9.554,1.327a4.155,4.155,0,0,1-3.146-1.27,4.714,4.714,0,0,1-1.213-3.4v-.3a5.707,5.707,0,0,1,.541-2.527,4.217,4.217,0,0,1,1.512-1.74,3.8,3.8,0,0,1,2.1-.628,3.562,3.562,0,0,1,2.883,1.222,5.289,5.289,0,0,1,1.028,3.5v.677H50.745a3.38,3.38,0,0,0,.822,2.272,2.583,2.583,0,0,0,2,.866,2.832,2.832,0,0,0,1.459-.352,3.666,3.666,0,0,0,1.046-.932l.993.773A3.993,3.993,0,0,1,53.479,19.176Zm-.2-8.525a2.169,2.169,0,0,0-1.652.716,3.482,3.482,0,0,0-.826,2.008h4.764v-.123a3.1,3.1,0,0,0-.668-1.92A2.042,2.042,0,0,0,53.276,10.65Zm11.329,5.827a1.2,1.2,0,0,0-.5-1.024,4.78,4.78,0,0,0-1.731-.628,8.186,8.186,0,0,1-1.96-.633,2.788,2.788,0,0,1-1.072-.879A2.1,2.1,0,0,1,59,12.1a2.467,2.467,0,0,1,.989-1.978,3.861,3.861,0,0,1,2.527-.809,3.974,3.974,0,0,1,2.624.835,2.652,2.652,0,0,1,1.006,2.136H64.509a1.468,1.468,0,0,0-.567-1.151,2.124,2.124,0,0,0-1.428-.483,2.223,2.223,0,0,0-1.389.387,1.217,1.217,0,0,0-.5,1.011.986.986,0,0,0,.466.888,5.731,5.731,0,0,0,1.683.571,8.77,8.77,0,0,1,1.973.65,2.878,2.878,0,0,1,1.121.91,2.237,2.237,0,0,1,.365,1.3,2.434,2.434,0,0,1-1.02,2.043,4.277,4.277,0,0,1-2.646.769,4.789,4.789,0,0,1-2.021-.4,3.288,3.288,0,0,1-1.375-1.129,2.722,2.722,0,0,1-.5-1.569H60.3a1.683,1.683,0,0,0,.655,1.3,2.54,2.54,0,0,0,1.613.479,2.622,2.622,0,0,0,1.481-.374A1.148,1.148,0,0,0,64.605,16.478ZM70.116,19H68.49V9.49h1.626ZM68.358,6.968A.971.971,0,0,1,68.6,6.3a.907.907,0,0,1,.716-.272.922.922,0,0,1,.721.272.96.96,0,0,1,.246.668.929.929,0,0,1-.246.659.938.938,0,0,1-.721.264.924.924,0,0,1-.716-.264A.938.938,0,0,1,68.358,6.968Zm12.41,7.383a5.654,5.654,0,0,1-1,3.5,3.2,3.2,0,0,1-2.689,1.323A3.315,3.315,0,0,1,74.291,17.9L74.212,19H72.718V5.5h1.626v5.036A3.3,3.3,0,0,1,77.06,9.314a3.221,3.221,0,0,1,2.72,1.31,5.824,5.824,0,0,1,.989,3.586Zm-1.626-.185A4.394,4.394,0,0,0,78.5,11.6a2.124,2.124,0,0,0-1.846-.905,2.387,2.387,0,0,0-2.312,1.494V16.3A2.454,2.454,0,0,0,76.673,17.8a2.112,2.112,0,0,0,1.819-.905A4.672,4.672,0,0,0,79.143,14.166ZM84.583,19H82.957V9.49h1.626ZM82.825,6.968a.971.971,0,0,1,.242-.668.907.907,0,0,1,.716-.272A.922.922,0,0,1,84.5,6.3a.96.96,0,0,1,.246.668.929.929,0,0,1-.246.659.938.938,0,0,1-.721.264.924.924,0,0,1-.716-.264A.938.938,0,0,1,82.825,6.968ZM88.951,19H87.325V5.5h1.626Zm4.368,0H91.693V9.49h1.626ZM91.562,6.968A.971.971,0,0,1,91.8,6.3a.907.907,0,0,1,.716-.272.922.922,0,0,1,.721.272.96.96,0,0,1,.246.668.929.929,0,0,1-.246.659.938.938,0,0,1-.721.264.924.924,0,0,1-.716-.264A.938.938,0,0,1,91.562,6.968Zm3.964,7.2a5.571,5.571,0,0,1,1.037-3.52,3.529,3.529,0,0,1,5.361-.189V5.5h1.626V19h-1.494l-.079-1.02a3.311,3.311,0,0,1-2.716,1.2,3.248,3.248,0,0,1-2.694-1.354,5.634,5.634,0,0,1-1.042-3.533Zm1.626.185a4.218,4.218,0,0,0,.668,2.531,2.159,2.159,0,0,0,1.846.914,2.372,2.372,0,0,0,2.259-1.389V12.039a2.39,2.39,0,0,0-2.241-1.345,2.17,2.17,0,0,0-1.863.923A4.644,4.644,0,0,0,97.151,14.351ZM111.943,19a3.416,3.416,0,0,1-.229-1,3.628,3.628,0,0,1-2.707,1.178,3.357,3.357,0,0,1-2.307-.8,2.573,2.573,0,0,1-.9-2.017,2.688,2.688,0,0,1,1.129-2.307,5.325,5.325,0,0,1,3.177-.822h1.582v-.747a1.826,1.826,0,0,0-.51-1.358,2.049,2.049,0,0,0-1.5-.505,2.371,2.371,0,0,0-1.459.439,1.3,1.3,0,0,0-.589,1.063h-1.635a2.244,2.244,0,0,1,.505-1.375A3.449,3.449,0,0,1,107.87,9.7a4.613,4.613,0,0,1,1.9-.387,3.759,3.759,0,0,1,2.575.822,2.964,2.964,0,0,1,.967,2.263v4.377a5.351,5.351,0,0,0,.334,2.083V19Zm-2.7-1.239a2.858,2.858,0,0,0,1.45-.4,2.392,2.392,0,0,0,.993-1.028V14.386h-1.274q-2.988,0-2.988,1.749a1.48,1.48,0,0,0,.51,1.2A1.959,1.959,0,0,0,109.245,17.761Zm6.223-3.595a5.571,5.571,0,0,1,1.037-3.52,3.529,3.529,0,0,1,5.361-.189V5.5h1.626V19H122l-.079-1.02a3.311,3.311,0,0,1-2.716,1.2,3.248,3.248,0,0,1-2.694-1.354,5.634,5.634,0,0,1-1.042-3.533Zm1.626.185a4.218,4.218,0,0,0,.668,2.531,2.159,2.159,0,0,0,1.846.914,2.372,2.372,0,0,0,2.259-1.389V12.039a2.39,2.39,0,0,0-2.241-1.345,2.17,2.17,0,0,0-1.863.923A4.644,4.644,0,0,0,117.094,14.351Z" transform="translate(1143.991 4795.883)" fill="#12263f"/>
    <path id="Trazado_202167" data-name="Trazado 202167" d="M36.111,13.3a7.935,7.935,0,0,1-3.16-1.534,2.93,2.93,0,0,1-.989-2.246,3.1,3.1,0,0,1,1.208-2.5,4.8,4.8,0,0,1,3.142-.989,5.243,5.243,0,0,1,2.351.51,3.866,3.866,0,0,1,1.6,1.406,3.6,3.6,0,0,1,.567,1.96h-1.7a2.34,2.34,0,0,0-.738-1.83,3,3,0,0,0-2.083-.666,3.074,3.074,0,0,0-1.947.55,1.836,1.836,0,0,0-.7,1.528,1.652,1.652,0,0,0,.664,1.325,6.509,6.509,0,0,0,2.259.991,10.481,10.481,0,0,1,2.5.99,3.788,3.788,0,0,1,1.336,1.261,3.219,3.219,0,0,1,.435,1.7,2.99,2.99,0,0,1-1.213,2.492,5.171,5.171,0,0,1-3.243.936,6.015,6.015,0,0,1-2.461-.505,4.142,4.142,0,0,1-1.762-1.384,3.378,3.378,0,0,1-.62-2h1.7a2.2,2.2,0,0,0,.857,1.833,3.608,3.608,0,0,0,2.29.672,3.317,3.317,0,0,0,2.048-.545,1.77,1.77,0,0,0,.712-1.485,1.738,1.738,0,0,0-.659-1.455A7.6,7.6,0,0,0,36.111,13.3Zm10.6,5.88a4.155,4.155,0,0,1-3.146-1.27,4.714,4.714,0,0,1-1.213-3.4v-.3a5.707,5.707,0,0,1,.541-2.527A4.217,4.217,0,0,1,44.4,9.943a3.8,3.8,0,0,1,2.1-.628,3.562,3.562,0,0,1,2.883,1.222,5.289,5.289,0,0,1,1.028,3.5v.677H43.978a3.38,3.38,0,0,0,.822,2.272,2.583,2.583,0,0,0,2,.866,2.832,2.832,0,0,0,1.459-.352,3.666,3.666,0,0,0,1.046-.932l.993.773A3.993,3.993,0,0,1,46.711,19.176Zm-.2-8.525a2.169,2.169,0,0,0-1.652.716,3.482,3.482,0,0,0-.826,2.008h4.764v-.123a3.1,3.1,0,0,0-.668-1.92A2.042,2.042,0,0,0,46.509,10.65Zm5.405,3.516a5.589,5.589,0,0,1,1.028-3.538,3.545,3.545,0,0,1,5.44-.083l.079-1.055h1.485v9.281a3.869,3.869,0,0,1-1.094,2.909,4.038,4.038,0,0,1-2.94,1.063A4.891,4.891,0,0,1,53.9,22.3a3.465,3.465,0,0,1-1.5-1.2l.844-.976A3.18,3.18,0,0,0,55.8,21.417a2.491,2.491,0,0,0,1.85-.668,2.553,2.553,0,0,0,.664-1.881v-.817a3.342,3.342,0,0,1-2.663,1.125,3.248,3.248,0,0,1-2.7-1.345A5.876,5.876,0,0,1,51.914,14.166Zm1.635.185a4.264,4.264,0,0,0,.659,2.527,2.142,2.142,0,0,0,1.846.918,2.382,2.382,0,0,0,2.259-1.4V12.057a2.41,2.41,0,0,0-2.241-1.362,2.161,2.161,0,0,0-1.854.923A4.644,4.644,0,0,0,53.549,14.351ZM68.271,18.06a3.454,3.454,0,0,1-2.786,1.116,2.956,2.956,0,0,1-2.316-.883,3.823,3.823,0,0,1-.8-2.615V9.49H63.99v6.144q0,2.162,1.758,2.162a2.434,2.434,0,0,0,2.479-1.389V9.49h1.626V19H68.306Zm8.648-7.11a4.873,4.873,0,0,0-.8-.062,2.143,2.143,0,0,0-2.171,1.362V19H72.322V9.49H73.9l.026,1.1A2.532,2.532,0,0,1,76.2,9.314a1.661,1.661,0,0,1,.721.123ZM80.18,19H78.554V9.49H80.18ZM78.422,6.968a.971.971,0,0,1,.242-.668.907.907,0,0,1,.716-.272A.922.922,0,0,1,80.1,6.3a.96.96,0,0,1,.246.668.929.929,0,0,1-.246.659.938.938,0,0,1-.721.264.924.924,0,0,1-.716-.264A.938.938,0,0,1,78.422,6.968Zm3.964,7.2a5.571,5.571,0,0,1,1.037-3.52,3.529,3.529,0,0,1,5.361-.189V5.5H90.41V19H88.916l-.079-1.02a3.311,3.311,0,0,1-2.716,1.2,3.248,3.248,0,0,1-2.694-1.354,5.634,5.634,0,0,1-1.042-3.533Zm1.626.185a4.218,4.218,0,0,0,.668,2.531,2.159,2.159,0,0,0,1.846.914,2.372,2.372,0,0,0,2.259-1.389V12.039a2.39,2.39,0,0,0-2.241-1.345,2.17,2.17,0,0,0-1.863.923A4.644,4.644,0,0,0,84.012,14.351ZM98.8,19a3.416,3.416,0,0,1-.229-1,3.628,3.628,0,0,1-2.707,1.178,3.357,3.357,0,0,1-2.307-.8,2.573,2.573,0,0,1-.9-2.017,2.688,2.688,0,0,1,1.129-2.307,5.325,5.325,0,0,1,3.177-.822h1.582v-.747a1.826,1.826,0,0,0-.51-1.358,2.049,2.049,0,0,0-1.5-.505,2.371,2.371,0,0,0-1.459.439,1.3,1.3,0,0,0-.589,1.063H92.854a2.244,2.244,0,0,1,.505-1.375A3.449,3.449,0,0,1,94.73,9.7a4.613,4.613,0,0,1,1.9-.387,3.759,3.759,0,0,1,2.575.822,2.964,2.964,0,0,1,.967,2.263v4.377a5.351,5.351,0,0,0,.334,2.083V19Zm-2.7-1.239a2.858,2.858,0,0,0,1.45-.4,2.392,2.392,0,0,0,.993-1.028V14.386H97.274q-2.988,0-2.988,1.749a1.48,1.48,0,0,0,.51,1.2A1.959,1.959,0,0,0,96.105,17.761Zm6.223-3.595a5.571,5.571,0,0,1,1.037-3.52,3.529,3.529,0,0,1,5.361-.189V5.5h1.626V19h-1.494l-.079-1.02a3.311,3.311,0,0,1-2.716,1.2,3.248,3.248,0,0,1-2.694-1.354,5.634,5.634,0,0,1-1.042-3.533Zm1.626.185a4.218,4.218,0,0,0,.668,2.531,2.159,2.159,0,0,0,1.846.914,2.372,2.372,0,0,0,2.259-1.389V12.039a2.39,2.39,0,0,0-2.241-1.345,2.17,2.17,0,0,0-1.863.923A4.644,4.644,0,0,0,103.954,14.351Z" transform="translate(1143.991 5211.883)" fill="#12263f"/>
    <path id="Trazado_202168" data-name="Trazado 202168" d="M51.98,14.939a4.708,4.708,0,0,1-1.5,3.133,4.911,4.911,0,0,1-3.353,1.1,4.509,4.509,0,0,1-3.634-1.626A6.542,6.542,0,0,1,42.127,13.2v-1.23a7.291,7.291,0,0,1,.637-3.138,4.76,4.76,0,0,1,1.806-2.079,5.029,5.029,0,0,1,2.707-.725,4.624,4.624,0,0,1,3.27,1.138,4.765,4.765,0,0,1,1.433,3.151h-1.7a3.677,3.677,0,0,0-.954-2.222,2.885,2.885,0,0,0-2.052-.688,3.019,3.019,0,0,0-2.536,1.2,5.492,5.492,0,0,0-.918,3.4v1.24a5.645,5.645,0,0,0,.87,3.316A2.812,2.812,0,0,0,47.128,17.8a3.247,3.247,0,0,0,2.158-.637,3.536,3.536,0,0,0,1-2.219ZM59.9,19a3.416,3.416,0,0,1-.229-1,3.628,3.628,0,0,1-2.707,1.178,3.357,3.357,0,0,1-2.307-.8,2.573,2.573,0,0,1-.9-2.017,2.688,2.688,0,0,1,1.129-2.307,5.325,5.325,0,0,1,3.177-.822h1.582v-.747a1.826,1.826,0,0,0-.51-1.358,2.049,2.049,0,0,0-1.5-.505,2.371,2.371,0,0,0-1.459.439,1.3,1.3,0,0,0-.589,1.063H53.949a2.244,2.244,0,0,1,.505-1.375A3.449,3.449,0,0,1,55.825,9.7a4.613,4.613,0,0,1,1.9-.387,3.759,3.759,0,0,1,2.575.822A2.964,2.964,0,0,1,61.27,12.4v4.377a5.351,5.351,0,0,0,.334,2.083V19Zm-2.7-1.239a2.858,2.858,0,0,0,1.45-.4,2.392,2.392,0,0,0,.993-1.028V14.386H58.37q-2.988,0-2.988,1.749a1.48,1.48,0,0,0,.51,1.2A1.959,1.959,0,0,0,57.2,17.761ZM65.585,19H63.959V5.5h1.626Zm4.368,0H68.328V9.49h1.626ZM68.2,6.968a.971.971,0,0,1,.242-.668.907.907,0,0,1,.716-.272.922.922,0,0,1,.721.272.96.96,0,0,1,.246.668.929.929,0,0,1-.246.659.938.938,0,0,1-.721.264.924.924,0,0,1-.716-.264A.938.938,0,0,1,68.2,6.968Zm3.964,7.2a5.571,5.571,0,0,1,1.037-3.52,3.529,3.529,0,0,1,5.361-.189V5.5h1.626V19H78.69l-.079-1.02a3.311,3.311,0,0,1-2.716,1.2A3.248,3.248,0,0,1,73.2,17.822a5.634,5.634,0,0,1-1.042-3.533Zm1.626.185a4.218,4.218,0,0,0,.668,2.531A2.159,2.159,0,0,0,76.3,17.8a2.372,2.372,0,0,0,2.259-1.389V12.039a2.39,2.39,0,0,0-2.241-1.345,2.17,2.17,0,0,0-1.863.923A4.644,4.644,0,0,0,73.786,14.351ZM88.578,19a3.416,3.416,0,0,1-.229-1,3.628,3.628,0,0,1-2.707,1.178,3.357,3.357,0,0,1-2.307-.8,2.573,2.573,0,0,1-.9-2.017,2.688,2.688,0,0,1,1.129-2.307,5.325,5.325,0,0,1,3.177-.822h1.582v-.747a1.826,1.826,0,0,0-.51-1.358,2.049,2.049,0,0,0-1.5-.505,2.371,2.371,0,0,0-1.459.439,1.3,1.3,0,0,0-.589,1.063H82.627a2.244,2.244,0,0,1,.505-1.375A3.449,3.449,0,0,1,84.5,9.7a4.613,4.613,0,0,1,1.9-.387,3.759,3.759,0,0,1,2.575.822,2.964,2.964,0,0,1,.967,2.263v4.377a5.351,5.351,0,0,0,.334,2.083V19Zm-2.7-1.239a2.858,2.858,0,0,0,1.45-.4,2.392,2.392,0,0,0,.993-1.028V14.386H87.048q-2.988,0-2.988,1.749a1.48,1.48,0,0,0,.51,1.2A1.959,1.959,0,0,0,85.879,17.761ZM92.1,14.166a5.571,5.571,0,0,1,1.037-3.52,3.529,3.529,0,0,1,5.361-.189V5.5h1.626V19H98.632l-.079-1.02a3.311,3.311,0,0,1-2.716,1.2,3.248,3.248,0,0,1-2.694-1.354A5.634,5.634,0,0,1,92.1,14.289Zm1.626.185a4.218,4.218,0,0,0,.668,2.531,2.159,2.159,0,0,0,1.846.914A2.372,2.372,0,0,0,98.5,16.407V12.039a2.39,2.39,0,0,0-2.241-1.345,2.17,2.17,0,0,0-1.863.923A4.644,4.644,0,0,0,93.728,14.351Z" transform="translate(313.009 5211.883)" fill="#12263f"/>
    <path id="Trazado_202165" data-name="Trazado 202165" d="M26.373,14.939a4.708,4.708,0,0,1-1.5,3.133,4.911,4.911,0,0,1-3.353,1.1,4.509,4.509,0,0,1-3.634-1.626A6.542,6.542,0,0,1,16.521,13.2v-1.23a7.291,7.291,0,0,1,.637-3.138,4.76,4.76,0,0,1,1.806-2.079,5.029,5.029,0,0,1,2.707-.725,4.624,4.624,0,0,1,3.27,1.138,4.765,4.765,0,0,1,1.433,3.151h-1.7a3.677,3.677,0,0,0-.954-2.222,2.885,2.885,0,0,0-2.052-.688,3.019,3.019,0,0,0-2.536,1.2,5.492,5.492,0,0,0-.918,3.4v1.24a5.645,5.645,0,0,0,.87,3.316A2.812,2.812,0,0,0,21.521,17.8a3.247,3.247,0,0,0,2.158-.637,3.536,3.536,0,0,0,1-2.219Zm1.617-.782a5.617,5.617,0,0,1,.549-2.514,4.1,4.1,0,0,1,1.529-1.723,4.163,4.163,0,0,1,2.237-.606,4.01,4.01,0,0,1,3.142,1.345,5.174,5.174,0,0,1,1.2,3.577v.114a5.666,5.666,0,0,1-.532,2.492A4.038,4.038,0,0,1,34.6,18.561a4.211,4.211,0,0,1-2.272.615,4,4,0,0,1-3.133-1.345,5.147,5.147,0,0,1-1.2-3.56Zm1.635.193a4.068,4.068,0,0,0,.734,2.54,2.487,2.487,0,0,0,3.933-.013,4.449,4.449,0,0,0,.729-2.72,4.061,4.061,0,0,0-.743-2.536,2.361,2.361,0,0,0-1.973-.971,2.335,2.335,0,0,0-1.942.958A4.416,4.416,0,0,0,29.625,14.351Zm10.6-4.86.053,1.2a3.465,3.465,0,0,1,2.848-1.371q3.015,0,3.041,3.4V19H44.54V12.707a2.189,2.189,0,0,0-.47-1.521,1.884,1.884,0,0,0-1.437-.492,2.347,2.347,0,0,0-1.389.422,2.865,2.865,0,0,0-.932,1.107V19H38.687V9.49Zm7.963,4.667a5.617,5.617,0,0,1,.549-2.514,4.1,4.1,0,0,1,1.529-1.723A4.163,4.163,0,0,1,52.5,9.314a4.01,4.01,0,0,1,3.142,1.345,5.174,5.174,0,0,1,1.2,3.577v.114a5.666,5.666,0,0,1-.532,2.492,4.038,4.038,0,0,1-1.521,1.718,4.211,4.211,0,0,1-2.272.615,4,4,0,0,1-3.133-1.345,5.147,5.147,0,0,1-1.2-3.56Zm1.635.193a4.068,4.068,0,0,0,.734,2.54,2.487,2.487,0,0,0,3.933-.013,4.449,4.449,0,0,0,.729-2.72,4.061,4.061,0,0,0-.743-2.536A2.361,2.361,0,0,0,52.5,10.65a2.335,2.335,0,0,0-1.942.958A4.416,4.416,0,0,0,49.822,14.351Zm12.876,3.5a2.342,2.342,0,0,0,1.521-.527A1.855,1.855,0,0,0,64.939,16h1.538a2.949,2.949,0,0,1-.562,1.556,3.7,3.7,0,0,1-1.384,1.178,3.994,3.994,0,0,1-1.833.439,3.918,3.918,0,0,1-3.089-1.3,5.163,5.163,0,0,1-1.147-3.546v-.272a5.725,5.725,0,0,1,.51-2.47,3.883,3.883,0,0,1,1.463-1.679,4.157,4.157,0,0,1,2.254-.6,3.814,3.814,0,0,1,2.659.958,3.424,3.424,0,0,1,1.129,2.487H64.939a2.241,2.241,0,0,0-.7-1.516,2.174,2.174,0,0,0-1.551-.593,2.276,2.276,0,0,0-1.92.892,4.19,4.19,0,0,0-.681,2.58v.308a4.106,4.106,0,0,0,.677,2.531A2.287,2.287,0,0,0,62.7,17.849ZM70.072,19H68.446V9.49h1.626ZM68.314,6.968a.971.971,0,0,1,.242-.668.907.907,0,0,1,.716-.272.922.922,0,0,1,.721.272.96.96,0,0,1,.246.668.929.929,0,0,1-.246.659.938.938,0,0,1-.721.264.924.924,0,0,1-.716-.264A.938.938,0,0,1,68.314,6.968ZM74.2,9.49l.044,1.055a3.512,3.512,0,0,1,2.821-1.23,2.719,2.719,0,0,1,2.716,1.529,3.6,3.6,0,0,1,1.235-1.107,3.647,3.647,0,0,1,1.8-.422q3.129,0,3.182,3.313V19H84.372V12.725a2.184,2.184,0,0,0-.466-1.525,2.051,2.051,0,0,0-1.564-.505,2.156,2.156,0,0,0-1.5.541,2.193,2.193,0,0,0-.694,1.455V19H78.51V12.769a1.814,1.814,0,0,0-2.03-2.074,2.175,2.175,0,0,0-2.188,1.362V19H72.665V9.49ZM90.217,19H88.591V9.49h1.626ZM88.459,6.968A.971.971,0,0,1,88.7,6.3a.907.907,0,0,1,.716-.272.922.922,0,0,1,.721.272.96.96,0,0,1,.246.668.929.929,0,0,1-.246.659.938.938,0,0,1-.721.264.924.924,0,0,1-.716-.264A.938.938,0,0,1,88.459,6.968Zm8.306,12.208a4.155,4.155,0,0,1-3.146-1.27,4.714,4.714,0,0,1-1.213-3.4v-.3a5.707,5.707,0,0,1,.541-2.527,4.217,4.217,0,0,1,1.512-1.74,3.8,3.8,0,0,1,2.1-.628,3.562,3.562,0,0,1,2.883,1.222,5.289,5.289,0,0,1,1.028,3.5v.677H94.031a3.38,3.38,0,0,0,.822,2.272,2.583,2.583,0,0,0,2,.866,2.832,2.832,0,0,0,1.459-.352,3.666,3.666,0,0,0,1.046-.932l.993.773A3.993,3.993,0,0,1,96.765,19.176Zm-.2-8.525a2.169,2.169,0,0,0-1.652.716,3.482,3.482,0,0,0-.826,2.008h4.764v-.123a3.1,3.1,0,0,0-.668-1.92A2.042,2.042,0,0,0,96.563,10.65Zm7.33-1.16.053,1.2a3.465,3.465,0,0,1,2.848-1.371q3.015,0,3.041,3.4V19h-1.626V12.707a2.189,2.189,0,0,0-.47-1.521,1.884,1.884,0,0,0-1.437-.492,2.347,2.347,0,0,0-1.389.422,2.865,2.865,0,0,0-.932,1.107V19h-1.626V9.49Zm10.6-2.3v2.3h1.775v1.257h-1.775v5.9a1.32,1.32,0,0,0,.237.858,1,1,0,0,0,.809.286,3.937,3.937,0,0,0,.773-.105V19a4.742,4.742,0,0,1-1.248.175,2.025,2.025,0,0,1-1.644-.659,2.832,2.832,0,0,1-.554-1.872v-5.9h-1.731V9.49h1.731v-2.3Zm3.067,6.97a5.617,5.617,0,0,1,.549-2.514,4.1,4.1,0,0,1,1.529-1.723,4.163,4.163,0,0,1,2.237-.606,4.01,4.01,0,0,1,3.142,1.345,5.174,5.174,0,0,1,1.2,3.577v.114a5.666,5.666,0,0,1-.532,2.492,4.038,4.038,0,0,1-1.521,1.718,4.211,4.211,0,0,1-2.272.615,4,4,0,0,1-3.133-1.345,5.147,5.147,0,0,1-1.2-3.56Zm1.635.193a4.068,4.068,0,0,0,.734,2.54,2.487,2.487,0,0,0,3.933-.013,4.449,4.449,0,0,0,.729-2.72,4.061,4.061,0,0,0-.743-2.536,2.361,2.361,0,0,0-1.973-.971,2.335,2.335,0,0,0-1.942.958A4.416,4.416,0,0,0,119.194,14.351Z" transform="translate(313.009 4795.883)" fill="#12263f"/>
  </g>
</svg>
