<svg xmlns="http://www.w3.org/2000/svg" width="129.991" height="129.991" viewBox="0 0 129.991 129.991">
  <g id="Grupo_149139" data-name="Grupo 149139" transform="translate(-383.758 -3503.063)">
    <path id="Trazado_188360" data-name="Trazado 188360" d="M9943-3120.29q3.045,0,6.076.3t6.018.892q2.988.6,5.9,1.479t5.728,2.05q2.814,1.166,5.5,2.6t5.22,3.127q2.531,1.693,4.886,3.625t4.508,4.085q2.153,2.156,4.086,4.508t3.624,4.887q1.692,2.532,3.128,5.218t2.6,5.5q1.165,2.814,2.05,5.729t1.478,5.9q.595,2.988.894,6.019t.3,6.076q0,3.045-.3,6.076t-.894,6.019q-.593,2.986-1.478,5.9t-2.05,5.729q-1.166,2.814-2.6,5.5t-3.128,5.218q-1.692,2.532-3.624,4.887t-4.086,4.508q-2.153,2.154-4.508,4.085t-4.886,3.625q-2.534,1.692-5.22,3.127t-5.5,2.6q-2.814,1.167-5.728,2.05t-5.9,1.479q-2.987.593-6.018.892t-6.076.3q-3.047,0-6.077-.3t-6.018-.892q-2.988-.6-5.9-1.479t-5.728-2.05q-2.815-1.165-5.5-2.6t-5.219-3.127q-2.533-1.693-4.887-3.625t-4.508-4.085q-2.155-2.156-4.086-4.508t-3.624-4.887q-1.692-2.532-3.128-5.218t-2.6-5.5q-1.165-2.814-2.05-5.729t-1.478-5.9q-.595-2.986-.893-6.019t-.3-6.076q0-3.045.3-6.076t.893-6.019q.593-2.987,1.478-5.9t2.05-5.729q1.166-2.814,2.6-5.5t3.128-5.218q1.692-2.532,3.624-4.887t4.086-4.508q2.153-2.153,4.508-4.085t4.887-3.625q2.533-1.692,5.219-3.127t5.5-2.6q2.814-1.167,5.728-2.05t5.9-1.479q2.985-.593,6.018-.892T9943-3120.29Z" transform="translate(-9494.242 6626.354)" fill="#fff" stroke="#f40b74" stroke-width="6"/>
    <g id="Grupo_148626" data-name="Grupo 148626" transform="translate(411.023 3530.329)">
      <g id="Grupo_148620" data-name="Grupo 148620" transform="translate(0)">
        <path id="Trazado_200201" data-name="Trazado 200201" d="M73.026,53.552h-8.52V43.815H54.769V41.381A20.691,20.691,0,1,0,34.079,20.691c0,.405.013.812.037,1.217H3.651A3.655,3.655,0,0,0,0,25.559v7.3a3.655,3.655,0,0,0,3.651,3.651v4.868A3.655,3.655,0,0,0,0,45.033v7.3a3.655,3.655,0,0,0,3.651,3.651v4.868A3.655,3.655,0,0,0,0,64.506v7.3A3.655,3.655,0,0,0,3.651,75.46H42.6a3.655,3.655,0,0,0,3.651-3.651v-7.3A3.655,3.655,0,0,0,42.6,60.855V55.986a3.655,3.655,0,0,0,3.651-3.651V48.684h6.086a2.437,2.437,0,0,0,2.434-2.434h7.3v7.3h-.465A2.421,2.421,0,0,0,59.43,54.9l-1.761,3.523h-6.55a2.437,2.437,0,0,0-2.434,2.434V73.026a2.437,2.437,0,0,0,2.434,2.434H73.026a2.437,2.437,0,0,0,2.434-2.434V55.986A2.437,2.437,0,0,0,73.026,53.552ZM32.862,73.026h-7.3V24.342h7.3v7.3H30.427a2.437,2.437,0,0,0-2.434,2.434V46.25a2.437,2.437,0,0,0,2.434,2.434h2.434ZM42.6,24.342a1.218,1.218,0,0,1,1.217,1.217v1.217h-2.9a2.421,2.421,0,0,0-2.177,1.346l-1.761,3.523H35.3v-7.3ZM30.427,34.079h8.055l2.434-4.868H52.335v7.3H30.427Zm24.342-2.434h4.767c-1.2,4.5-3.045,7.3-4.767,7.3Zm4.591,6.717a21.7,21.7,0,0,0,2.691-6.717h7.313A18.308,18.308,0,0,1,59.361,38.362ZM49.45,12.171H60.089a45.04,45.04,0,0,1,.751,7.3H48.7A45.057,45.057,0,0,1,49.45,12.171Zm5.319-9.737c1.722,0,3.566,2.805,4.767,7.3H50C51.2,5.239,53.048,2.434,54.769,2.434ZM72.984,19.474h-9.71a48.978,48.978,0,0,0-.712-7.3h8.35a18.119,18.119,0,0,1,2.073,7.3Zm-9.71,2.434h9.71a18.123,18.123,0,0,1-2.073,7.3h-8.35a48.983,48.983,0,0,0,.712-7.3ZM69.365,9.737H62.052a21.7,21.7,0,0,0-2.691-6.717A18.308,18.308,0,0,1,69.365,9.737ZM50.177,3.019a21.7,21.7,0,0,0-2.691,6.717H40.173A18.308,18.308,0,0,1,50.177,3.019ZM36.513,20.691a18.142,18.142,0,0,1,2.114-8.52h8.35a49.519,49.519,0,0,0-.727,8.52v1.217H60.84a45.061,45.061,0,0,1-.751,7.3h-5.32a2.437,2.437,0,0,0-2.434-2.434H46.25V25.559A3.655,3.655,0,0,0,42.6,21.908H36.554C36.527,21.5,36.513,21.1,36.513,20.691ZM2.434,32.862v-7.3a1.219,1.219,0,0,1,1.217-1.217H23.125v9.737H3.651A1.219,1.219,0,0,1,2.434,32.862Zm20.691,3.651v4.868H6.085V36.513M2.434,52.335v-7.3a1.219,1.219,0,0,1,1.217-1.217H23.125v9.737H3.651A1.219,1.219,0,0,1,2.434,52.335Zm3.651,3.651H23.125v4.868H6.085ZM2.434,71.809v-7.3a1.219,1.219,0,0,1,1.217-1.217H23.125v9.737H3.651A1.219,1.219,0,0,1,2.434,71.809Zm41.381-7.3v7.3A1.218,1.218,0,0,1,42.6,73.026H35.3V63.289h7.3A1.218,1.218,0,0,1,43.815,64.506Zm-3.651-3.651H35.3V55.986h4.868ZM35.3,48.684h3.651v2.434h2.434V48.684h2.434v3.651A1.218,1.218,0,0,1,42.6,53.552H35.3m-4.868-7.3v-7.3H52.335v7.3ZM59.173,60.855l2.434-4.868H73.026v7.3H51.118V60.855ZM51.118,73.026v-7.3H73.026v7.3Z" transform="translate(0)" fill="#206897"/>
        <path id="Trazado_200202" data-name="Trazado 200202" d="M429.419,396.387h7.759v2.586h-7.759Z" transform="translate(-366.891 -338.088)" fill="#206897"/>
        <path id="Trazado_200203" data-name="Trazado 200203" d="M289.032,214.71h7.759V217.3h-7.759Z" transform="translate(-246.719 -183.131)" fill="#206897"/>
        <path id="Trazado_200204" data-name="Trazado 200204" d="M33.032,181.677h2.586v5.173H33.032Z" transform="translate(-27.859 -155.016)" fill="#206897"/>
        <path id="Trazado_200205" data-name="Trazado 200205" d="M66.065,181.677h2.586v5.173H66.065Z" transform="translate(-55.72 -155.016)" fill="#206897"/>
        <path id="Trazado_200206" data-name="Trazado 200206" d="M33.032,445.935h2.586v5.173H33.032Z" transform="translate(-27.859 -380.82)" fill="#206897"/>
        <path id="Trazado_200207" data-name="Trazado 200207" d="M66.065,445.935h2.586v5.173H66.065Z" transform="translate(-55.72 -380.82)" fill="#206897"/>
        <path id="Trazado_200208" data-name="Trazado 200208" d="M68.651,48.55h2.586V35.618a2.589,2.589,0,0,0-2.586-2.586H66.065v2.586h2.586Z" transform="translate(-55.72 -27.859)" fill="#206897"/>
        <path id="Trazado_200209" data-name="Trazado 200209" d="M2.586,48.55H5.173a2.589,2.589,0,0,0,2.586-2.586V35.618a2.589,2.589,0,0,0-2.586-2.586H2.586A2.589,2.589,0,0,0,0,35.618V45.964A2.589,2.589,0,0,0,2.586,48.55Zm0-12.932H5.173V45.964H2.586Z" transform="translate(0 -27.859)" fill="#206897"/>
        <path id="Trazado_200210" data-name="Trazado 200210" d="M184.263,48.55h2.586V35.618a2.589,2.589,0,0,0-2.586-2.586h-2.586v2.586h2.586Z" transform="translate(-155.016 -27.859)" fill="#206897"/>
        <path id="Trazado_200211" data-name="Trazado 200211" d="M118.2,48.55h2.586a2.589,2.589,0,0,0,2.586-2.586V35.618a2.589,2.589,0,0,0-2.586-2.586H118.2a2.589,2.589,0,0,0-2.586,2.586V45.964A2.589,2.589,0,0,0,118.2,48.55Zm0-12.932h2.586V45.964H118.2Z" transform="translate(-98.688 -27.859)" fill="#206897"/>
      </g>
    </g>
  </g>
</svg>
